<?xml version="1.0" encoding="utf-8"?>
<!-- Generator: Adobe Illustrator 24.3.0, SVG Export Plug-In . SVG Version: 6.00 Build 0)  -->
<svg version="1.1" id="Layer_1" xmlns="http://www.w3.org/2000/svg" xmlns:xlink="http://www.w3.org/1999/xlink" x="0px" y="0px"
	 viewBox="0 0 300 200" style="enable-background:new 0 0 300 200;" xml:space="preserve">
<style type="text/css">
	.st0{fill:#FFFFFF;}
	.st1{fill:#333031;}
	.st2{opacity:0.55;}
	.st3{fill:#ED1C2C;}
	.st4{fill:#4C4748;}
	.st5{opacity:0.4;}
</style>
<g>
	<path class="st0" d="M189.7,145H4.3V83.4c0-24,19-43.4,42.4-43.4"/>
	<g>
		<path d="M189.7,142.6c-20.9,0-41.9,0-62.8,0c-33.2,0-66.4,0-99.6,0c-7.7,0-15.4,0-23.1,0c0.8,0.8,1.6,1.6,2.4,2.4
			c0-12.7,0-25.4,0-38.2c0-14.3-2-30.5,5.1-43.5c7.1-12.8,20.3-20.6,34.9-20.9c3.1,0,3.1-4.8,0-4.8C21.6,38,2.2,58.6,1.9,83.5
			c-0.2,14.6,0,29.2,0,43.7c0,5.9,0,11.8,0,17.8c0,1.3,1.1,2.4,2.4,2.4c20.9,0,41.9,0,62.8,0c33.2,0,66.4,0,99.6,0
			c7.7,0,15.4,0,23.1,0C192.8,147.4,192.8,142.6,189.7,142.6L189.7,142.6z"/>
	</g>
</g>
<g>
	<path class="st1" d="M167.5,87.4l0.9-0.1l1,0.9l0.1,0.9l-1.2,1.6l-1.6-1.3l-0.1-0.9L167.5,87.4z M172.7,62.4l0.9-0.1
		c1.1,0,1.7,0.2,1.8,0.7l-0.1,2l1.6,2.1v0.3c-0.2,1.9-1,3-2.2,3.2v-0.3l-0.3,0.3l-0.3,0.1c-0.9,0.1-2.1-0.9-3.7-3.1l-0.1-0.3
		C170.8,65.2,171.5,63.6,172.7,62.4z M183.4,66.8l1,0.8l0.1,0.9l-1.2,1.6c-0.6,0.1-1.2-0.8-1.6-2.7L182,67L183.4,66.8z M189.3,55.6
		l3.8,0.5l4.6-0.5c0.5,0,2.1,1.4,4.7,4.3c5.1-4.4,10.4-6.9,16-7.5c6.4,1.7,9.8,4.7,10.3,8.9c0.2,2-0.9,4.8-3.3,8.5l-4.6,0.5
		c-3-1.6-4.6-4.2-5-8l-1.5-0.8c-1.7,0.2-3.5,2.3-5.4,6.3l-1.4-0.3c-2.2,4.3-3.3,7.4-3.2,9.4l0.6,1.4l-0.9,3.9
		c0.9,4.3,2.2,6.4,3.9,6.2l4.6-1l4.2,0.5l0.4-0.6l0.5,0c2.2,0.4,3.4,1.2,3.5,2.5c-2.6,4.8-4.8,7.2-6.7,7.4l-3.3-0.6l-5.1,1.1l-4.1,0
		l-11,2.6l-0.9,0.1c-1.6-0.6-2.5-1.8-2.7-3.5l-0.1-1.5c-0.3-3,0.9-4.9,3.6-5.6l6.1,0.8l1.7-1.6l0-0.5l-1.5-9.9l0.5-3.9l-0.8-7.1
		c-0.2-2.5-1.6-3.7-4.1-3.4l-1.9,0.2c-1.1,0.1-2.6,0.9-4.4,2.4l-1.4,0.1c-1.1-0.3-2.2-1.6-3.2-3.9c0.7-4.2,2.5-6.5,5.3-6.8l0.1,0.5
		L189.3,55.6z M210.4,78.6l0.5,0.4l0.2,1.4l-0.5,0l-1-0.8L210.4,78.6z M214.7,79.6l0.9-0.1l1,0.9l-1.2,1.6l-0.5-0.4L214.7,79.6z
		 M221.6,79.3c2.3,0.1,3.6,0.6,3.9,1.5c-0.2,1.6-0.6,2.5-1.1,2.5c-2-0.6-3.2-1.3-3.5-2.1l-0.1-0.9L221.6,79.3z M225.5,102.3
		l-0.1-0.9l1.2-1.6 M234.6,95.6l0.8-1.1l0.5,0 M239.9,43.8l3.2-0.3l3.1,2.5c0.1,0.6-0.5,1-1.7,1.2c0.1,1.3-0.3,1.9-1.2,2l-2.5-1.2
		l-0.8,1l-1.5-0.8c0.1,1.2-0.2,1.9-1.2,2.1l-0.9,0.1l-1.6-1.3l0-0.5C236.6,45.6,238.3,44,239.9,43.8z M249.9,90.6l-8.6,0.8l9.4-2.3"
		/>
</g>
<g>
	<path d="M93.2,61.9v1l0.5,3.2l-0.5,0.5v0.5l0.5,0.5v0.5l-0.5,1.6l0.5,5.8l-0.5,3.7l0.5,4.8v9l0.5,2.2l-0.5,0.5l0.5,5.3v7.4l0.5,8.5
		l-0.5,0.5v0.5l0.5,2.1l-0.5,0.5H80.8l-0.5-3.7V90h-1.1c-0.6,0-1.2,3-2.1,9h0.5c-2,14.8-3.6,22.3-4.7,22.3h-0.5l-1.6-0.5l-2.6,0.5
		h-2.6c-1.3,0-2.8-8.3-4.7-24.9c-0.5,0-1.2-2.7-2-8l0.5-0.5l-0.5-3.7H58v15.3l0.5,0.6l-0.5,0.5v0.5l0.5,0.5v0.5l-0.5,0.5l1.1,10.6
		l-0.6,0.5l0.6,2.6v3.7l-1.1,1.1H45.1v-2.6c0-13.1-0.3-22.5-1-28.1l0.5-2.1L44,87.9v-0.5l0.5-0.5L44,83.1v-8.5l-1-1.1l1-2.2
		l-0.5-9.5h11.4l9.3,0.5l3.6,23.3v1.6l1,1.1h0.5l3.1-26.5l1.5,0.5l2.6-0.5L93.2,61.9L93.2,61.9z M46.5,119.4v0.5h-1.8v-0.5H46.5z
		 M48.4,119.4v0.9l-1.4-0.5v-0.5H48.4z M61.4,119.8v1.9H60l0.9-1.9H61.4z M66.5,124.1h0.9l-0.9,0.9l0.9,2.4
		c-0.6,1.3-2.2,2.7-4.7,4.2h-0.5v-0.9h1v-0.5l-1.9-0.4h-0.5l0.5-1.5v-0.5l-0.5-0.5h0.5V126l3.3,0.5L66.5,124.1z M61.4,82.3l0.9,0.9
		v-1.4h-0.9V82.3z M62.3,120.3l0.5-0.5h0.5l0.5,1.9l-0.5,0.5l0.9,1.4l-0.9,0.9h-1l0.5-0.5l-0.9-0.9l0.5-1.5l-0.5-1.4
		C61.8,120.3,62.3,120.3,62.3,120.3z M65.6,131.2l0.9,1h-2.3v-1H65.6z M66,119.8v1.9l-0.9-0.9v-0.9L66,119.8L66,119.8z M69.2,119.8
		c0,1.6-0.6,2.6-1.8,2.9l-0.9-2.9H69.2z M76.9,116.3c-0.5,0-0.8,0.5-0.9,1.6v0.3l-0.9-0.3l-0.3,0.9c-0.4,0-0.6-0.5-0.6-1.6l-0.6,0.6
		v0.3l0.3,0.3l-0.9,0.3v-0.6l0.3-0.3l-0.6-0.6v-0.9c0.7,0,1.5,0.3,2.3,0.9h0.6v-0.6l-0.3-0.3l1.1-0.4h0.3
		C76.9,115.9,76.9,116.3,76.9,116.3z M76.9,114.4h-0.3l0.6-0.7h0.3L76.9,114.4z M78.3,116.9v0.3l-0.3,0.3l-1.2-0.6l0.6-1L78.3,116.9
		z M78.3,120.1l-0.3,0.3l-1.2-0.3v-0.3h1.5L78.3,120.1L78.3,120.1z M87.4,121.8v0.3h-0.3v-0.6h-0.6c0,1.1-1.1,1.6-3.2,1.6
		c0-0.3-0.6-0.5-1.8-0.6l-0.3,0.3c0-0.8-0.9-1.3-2.6-1.3v-0.3c0.8,0,1.1-0.2,1.1-0.7h0.9v1h0.6l0.3-0.3l-0.3-1.6v-0.4h1.2
		c0-0.4-0.3-0.6-0.9-0.6v-0.3l1.5-0.3h0.3l0.3,0.3l1.1-0.3h0.6v0.3l-0.3,0.3v0.3l0.9,0.3l0.3-0.3C86.5,118.8,86.9,119.8,87.4,121.8z
		 M105.8,114h-4.4l-0.3,0.4l-0.3-0.4h-2.3l-0.3,0.4l-0.6-0.7H85.9l-1.4-0.3l-0.9,0.3h-4.1l-0.6-0.6v-0.3l1.7-0.3l0.6,0.6h2.1
		l0.3-0.3v0.3l0.3-0.3l0.3,0.3l2.1-0.3l14,0.6l1.2,0.3l0.3-0.3l0.3,0.3h0.3l0.3-0.3v0.3l1.2-0.3l2.1,0.3L105.8,114
		C105.9,114,105.8,114,105.8,114z M83.9,115h-0.6l-0.3-0.3l0.6-0.7L83.9,115z M86.2,117.9v0.3h-0.6v-0.9L86.2,117.9z M92.7,120.8
		l-0.9,0.3h-0.3v-0.3l0.9-0.4h0.3V120.8z M94.1,121.5h-0.3c0-0.7-0.3-1-0.9-1v-0.3h1.5L94.1,121.5z M95.2,120.3l-0.2-0.2l0.4-0.3
		v0.5l0.5-0.3h1.5v-0.3l-0.2-0.2l0.9-0.4h0.2v0.4l-0.4,0.3l0.4,0.3h0.4v-0.3h0.6v0.2c0,0.2,2.7,0.5,8.2,0.8l0.6-0.4l0.4,0.4
		c0.8,0,1.1,0.2,1.1,0.6L109,124h-0.2c0-0.3-0.1-0.5-0.4-0.5h-0.2v0.3h-0.2v-0.2l0.4-0.9l0.2,0.2l0.4-0.3c0-0.3-3-0.6-8.9-1
		l-0.2,0.2v-0.2l-3.9-0.1h-0.2l-0.2-0.2v-0.1l0.2-0.2v-0.3h-0.9L95.2,120.3z M100.8,115.6h-1.2v-0.3h1.2V115.6z M100.8,119.1h-0.3
		l-0.6-0.6h0.9C100.8,118.5,100.8,119.1,100.8,119.1z M103.2,134.8l0.2-0.2l-0.2-0.2v-0.3c0.4,0,0.8-0.2,1.3-0.5v-0.1l-0.2-0.2
		l0.5,0.2h0.2l0.2-0.2c0-0.4,0.2-0.6,0.6-0.6l0.2,0.2h0.6v-0.4h-0.6V132h0.2l0.2,0.2h0.2v-0.5h0.4v0.8h0.4c0-0.3,0.1-0.5,0.4-0.5
		v-0.3l-0.2-0.2h0.4c0,0.3,0.2,0.6,0.7,1.1l0.8-0.2v-0.2h-0.8v-0.2l0.6-0.2h0.2v0.3h0.2l0.2-0.2l-0.2,0.5v0.2l0.2,0.1v0.2l-0.2-0.2
		c-0.2,0-0.5,0.3-0.8,0.9l0.2,0.2l-0.4,0.5h0.4l0.6-0.3v-0.2l-0.2-0.2h0.2l0.4,0.4v0.3h-0.6l0.8,1l-0.2,0.4h-0.4l-0.2-0.1l-0.2,0.5
		v0.2l0.2,0.2v0.2h-0.2l-0.2-0.2h-0.2v0.3c0.8,0,1.1,0.2,1.1,0.5v0.5h-0.4v-0.2l0.2-0.2v-0.3l-0.4,0.3v0.8h0.4v-0.3h0.2v0.3
		l-0.2,0.2l0.2,0.2v0.2h-0.2l-0.2-0.2c-0.2,0-0.4,0.4-0.8,1.3v0.2l0.2,0.2h-0.7v-0.2l0.2-0.2v-0.1l-0.8,0.1h-0.2l-0.2-0.1h-0.2
		l-0.2,0.1h-0.4v-0.1l0.2-0.2v-0.2l-0.6,0.2h-0.2c0-0.3,0.2-0.5,0.6-0.5V139c-0.5,0-0.8-0.2-0.8-0.5l0.2-1l-0.3-0.3
		c0,0.3-0.2,0.6-0.6,1h-0.2l-0.2-0.2l0.6-0.7v-0.5l-0.2-0.2h0.4l-0.2-0.5V136h0.4v-0.3H105l-0.2,0.2c0-0.4-0.2-0.5-0.5-0.5v-0.3
		l0.2-0.2h-0.2l-0.2-0.2h-0.2l-0.2,0.2l-0.2-0.2h-0.2v0.5h-0.2L103.2,134.8L103.2,134.8L103.2,134.8z M107.1,127.1h0.4v-0.2
		l-0.4-0.3l0.4-0.5V126l-0.2-0.2c0.2,0,0.4-0.2,0.4-0.5v-0.2l0.6,0.2c0.2,0,0.3-0.3,0.3-0.8h0.2v0.2c-0.2,0.6-0.5,0.9-0.7,0.9
		l0.4,0.7v0.2l-0.2,0.2v0.2h0.2l1.1-0.3v-0.2c0-0.2-0.2-0.3-0.6-0.3l0.6-0.5h0.4v2.2l-0.2,0.2l0.2,0.1l-0.2,0.7v0.2l0.5-0.2h0.2v0.3
		c-0.4,0-0.7,0.4-0.7,1.3h0.2l-0.2,0.6v0.2l0.2,0.1v0.2l-0.2-0.2l-1.2,0.5v-0.2l-0.2,0.2c-0.8-0.4-1.1-1-1.1-1.6
		c0.2-0.4,0.4-1,0.4-1.7v-0.2l-0.2-0.2l0.2-0.1v-0.3h-0.2l-0.2,0.1h-0.2L107.1,127.1L107.1,127.1z M108.4,134.1l0.2-0.2l-0.2-0.7
		h-0.4c0,0.3-0.1,0.4-0.4,0.4L108.4,134.1z M108.3,137l0.3-0.3h-0.5v-0.2l0.2-0.2v-0.2l-0.2-0.2h-0.2l-0.2,0.2
		C107.8,136.7,108,137,108.3,137z M109.3,128.8v-0.5h-0.2l-0.4,0.3v0.2H109.3z M109.2,135.7l0.2-0.1l0.2,0.1h0.2v-0.3h-1v0.3H109.2z
		 M109.7,133.3h0.2l-0.2,0.5h-0.2l-0.2-0.2L109.7,133.3z M109.7,139.3h0.2v0.3l-0.2,0.2v0.2l0.2,0.1h-0.4l-0.2-0.1L109.7,139.3z"/>
	<path d="M89,49.1l0.7,0.6l0.1,1.3l-0.7,0l-0.8-1.9L89,49.1z M101.9,134.4l0.1,0.7l-5.9,1.1l-6.7-0.2l-0.1-0.7L101.9,134.4z
		 M93.7,49.4l0.1,0.7L91.8,51l-0.1-1.4L93.7,49.4z M116.4,60.6l0.7,0.6l2.6-0.8l5.9-0.5l8,27.3l-7.3,0.5l-5.2,2.5l-3.8-16.7
		l-1.3,0.1l-2.3,13.8l0.8,2.6l0.3,4.1l-1.2,2.2l0.1,0.6l1.4,1.3l6.6-0.5l1.2-1.5l-0.1-0.7l-1.5-1.9l-0.2-2l6.5-1.9l2.6-0.2l3.4,0.4
		l6.9,30.8l-10.6-0.6l-0.6,0.7l-0.7-0.6l-3.3,0.3l-0.2-2c-0.4-5.8-1.1-9.8-2.2-12.1l-2.6,0.8l-2.7-0.5l-5.9,0.5l-2.3,13.1l0.1,0.7
		l-2.1-0.5l-1.9,0.8l-6-0.9l-0.6,0.7l-3.3-0.4l6.2-32.4c1.8-17.3,3.2-26.1,4.1-26.1l3.9-0.3L116.4,60.6z M122.6,127.8l0.7,0.6h-1
		v-0.6C122.3,127.8,122.6,127.8,122.6,127.8z M130.9,134.5h1v-0.4l-0.4-0.3L130.9,134.5z M130.9,136.2v0.4h0.6v-1.1L130.9,136.2z
		 M132.1,137.8v0.7l1-0.7c0,0.7,0.2,1.1,0.7,1.1l-1.3,2.4h-0.4l-0.3-0.4v-0.3l0.3-0.4v-0.3h-0.7l0.4-2L132.1,137.8L132.1,137.8z
		 M136.4,134.8l-1,1.1 M133.8,136.2v-0.3l-0.4-0.4l0.4-0.3v-0.4l-0.4-0.3c0.4,0,0.7-0.3,0.7-1 M135.1,137.5h-1.6 M135.5,142.6h-1.6
		l-0.7-0.7v-0.4C134.7,141.9,135.5,142.2,135.5,142.6z M135.1,128.1h0.4v0.7l-1.6,0.7h-0.4v-0.7L135.1,128.1z M134.1,140.2l0.7,0.7
		v0.4h-1 M134.4,144.6h0.7l-1.3,1.1h-0.4L134.4,144.6z M136.8,139.6v1l-1-0.4v-0.6H136.8z M143,142.2v1h-0.3l-0.4-1H143z M146,141.9
		l0.3,2H144l-0.7-0.7"/>
	<path d="M156.8,61.4v-1.1l2.7,0.6h5.9c4.3,0,8.8,1.6,13.5,4.7l2.7,7c1.4,0,2.1,0.6,2.1,1.8V75c-1.4,0-2.1,0.4-2.1,1.2v2.9h2.7v1.2
		h-1.1l-0.6-0.6v0.6l-0.5,0.6v0.6h-0.6l-0.5,5.9l1.1,1.7h-0.6l-0.5,0.6v15.6c-1.6,10.3-6.6,15.5-15.1,15.5h-6.4c-0.7,0-1.4,0-2-0.1
		h-8.3l-4.6-0.7l-0.7,0.7h-0.7l-0.7-0.7l0.7-3.4v-0.7l-0.7-0.7h0.7l0.1-21.1l-0.1-9.9l-0.5-1.6c0.1-1.8,0.3-3.6,0.5-5.3l-0.1-6.3
		l-0.7-0.7h0.7l0.4-4.8v-0.7l-0.4-3.4h9.3l0.7-0.7v0.7h1.1l0.9-0.5l0.5,0.5L156.8,61.4L156.8,61.4L156.8,61.4z M146.5,49.6h-0.2
		l-0.5,0.4h0.3L146.5,49.6z M154.8,55.8l-0.3-0.7V55l0.3-0.2h-0.3c0-0.9-0.1-1.4-0.5-1.4l-0.5,2l0.2,0.5L154.8,55.8z M157.8,95.4
		l-0.1-0.3l-0.1,2.7h0.1L157.8,95.4L157.8,95.4z M166.9,101.8l-0.4-2.2V84.4l-0.5-0.6l0.5-0.6v-0.6h-1.6V82c1.1,0,1.6-1,1.6-2.9
		v-2.5c0-0.8-0.5-1.2-1.6-1.2l0.5-0.6l-1.1-1.7l-2.1,0.6h-0.5l-0.6-0.6c-1.1,0-1.6,0.4-1.6,1.2h1.1v0.6h-1.1l-1.6-0.6l-0.1,1.8v1.8
		l0.6,0.6h-0.6v0.9l0.1,1.8v0.7l-0.1,0.1v2.4h-0.1v0.3l-0.1-0.1l-0.1,9.5h0.1v1.3l0.8,2.1l-0.7,0.7l0.5,5.3l-0.6,3.1v0.3l0.6,0.6
		v0.7l-0.3,0.3c0.5,0,1.7,0.1,3.5,0.1h3.2c1.1,0,1.8-2,2.1-6.1h-0.6L166.9,101.8z M158,85.3v8.1l0.7,0.7h-0.8v-9.4L158,85.3z
		 M160.9,62.9l-0.5-0.2l-0.5,0.3h0.5v0.2h-0.7v-0.4h-0.3v0.5c0.6,0,1,0.1,1,0.3h0.2l0.3-0.5L160.9,62.9
		C160.9,62.9,160.9,62.9,160.9,62.9z M164.2,53.3v-0.2h-0.7v0.5h0.3L164.2,53.3z M166.9,101.8l0.1,0.6v-0.8L166.9,101.8z
		 M175.1,48.8l-0.7,0.2v-0.2c-0.4,0-0.6-0.3-0.7-0.8h0.2l0.3-0.2h0.3V48l-0.3,0.2v0.5h0.7V48h0.5v0.8h0.3c0.6-0.9,0.9-1.3,1.2-1.3
		h0.2l-0.5,0.3l0.5,0.8v0.2h-0.5c0-0.3-0.1-0.5-0.5-0.5l-0.3,0.7L175.1,48.8z M173.9,47.7V47l0.5,0.4L173.9,47.7z M176,44.1
		l-0.3-0.8h-0.5l-0.2,0.8h-0.5l-0.5-0.3v-0.3c0-0.2,0.4-0.4,1.2-0.5l1.2,0.2l0.7-0.2h0.3l-0.5,1.2L176,44.1L176,44.1z M176.5,41.8
		v-0.3l-0.2,0.2c-0.3,0-0.5-0.3-0.5-0.8l-0.9,0.3v0.2h0.5v0.2l-0.2,0.2l-0.7-0.5v-0.5h1.9v0.2L176,41v0.4h0.5v-0.7h0.5v1.2
		L176.5,41.8L176.5,41.8L176.5,41.8z M176.3,49.5h-0.7v0.3l0.7,0.2V49.5z M176.9,52h-0.2l-0.5,0.3h0.2L176.9,52z M176.6,124.4
		L176.6,124.4l0.2,0.1l0.1-0.3L176.6,124.4z M177.5,127.1l0.2,0.1l-0.5,0.3h-0.1L177.5,127.1z M178.2,123.8c-0.1,0.2,0,0.3,0.2,0.3
		l-0.3,0.3l0.1,0.1l-0.2,0.4l-0.5-0.1l-0.1-0.1l-0.1,0.1v-0.2c0.2,0,0.3-0.1,0.3-0.2v-0.1l-0.1-0.1l0.1-0.1l0.1-0.1l-0.1-0.1
		c0.1,0.1,0.2,0,0.3-0.3L178.2,123.8z M178.7,126.7L178.7,126.7l-0.2-0.2l0.1-0.1l-0.1-0.8h0.1v-2.4l1.1,0.2c0,0.4,0.2,1.2,0.6,2.2
		h0.1l0.1-0.1v-0.1l-0.1-0.1l0.1-1.3l-0.1-0.6h0.1l0.1-0.1l0.6,0.1v1.1l-0.1,1.2H181v0.1h0.1v0.4h0.1l-0.1,0.4l-0.1-0.1l-0.1,0.1
		l0.1,0.7l-0.8-0.1l-0.2-0.2H180l-0.1-0.3l0.1-0.1v-0.1h0.2l-0.3-0.3c0.1,0,0.2-0.1,0.3-0.2h-0.1l-0.2,0.1c-0.3-0.4-0.4-0.9-0.4-1.4
		h-0.2l-0.1,0.2l0.1,0.1h-0.1l0.1,2l-0.1,0.1h-0.1l-0.4-0.1l-0.1-0.1l-0.1,0.1l-0.1-0.1L178.7,126.7z M180.3,126.6
		c0.3,0.1,0.5,0.2,0.5,0.3l-0.5-0.1l0.6,0.1l-0.1-0.3H180.3z M180.2,126.9L180.2,126.9L180.2,126.9z M180.9,126.6l-0.1-0.2l-0.1,0.1
		v0.1L180.9,126.6z M181,54h2.1l0.3,0.2l0.3-0.2C183.8,54,182.9,54,181,54z M184.9,123.7l-0.5,2c-0.2,1.1-0.4,1.6-0.5,1.6l-0.7,0.1
		l-0.4-0.1c-0.1,0-0.3-1-0.7-2.9l0.1-0.7l-0.1-0.1l0.9-0.1v0.7l0.2,0.2h0.6c0.1-0.6,0.3-0.8,0.4-0.8l0.2,0.1l0.4,0.2L184.9,123.7
		L184.9,123.7z M182.6,81.4l0.6-0.6c0,1.2,0.4,1.7,1.1,1.7v-1.2l3.2,0.6v1.2c-1.1,0-1.6,0.6-1.6,1.8h-0.5v-2.4h-0.6l-1.1,1.2h-1.6
		v-0.6h1.1v-0.6l-1.1-1.2H182.6z M183.3,126.1l0.1-0.1l0.2-1h-0.1l-0.1-0.1h-0.3 M185.2,123.8v-0.2l0.5,0.1h0.1l0.9,0.1
		c0.2,0,0.5,0,0.7,0v0.8l-0.1,0.2h0.1v0.1v0.2c0,0.1,0,0.2,0.1,0.2v0.1h-0.1v0.1v0.1h-0.1v0.2v0.1v0.1c0,0,0,0.1,0,0.1v0.2v-0.2
		l0.1,0.1v0.1l-0.1-0.1h-0.1c0,0.1,0,0.2-0.1,0.2v0.3l-0.1,0.2h0.1l-0.1,0.1v0.1v0.4l-0.1,0.7l-1-0.1l0.1-0.4H186v-0.1h0.1v-0.4
		l0.1-1.2l-0.1-0.1l0.1-0.1l0.1-0.4h-0.1v-0.1h-0.1v-0.1v0.1H186v-0.1h0.2v-0.2c0,0-0.1-0.1-0.1-0.1v-0.1c0-0.1,0.1-0.1,0.1-0.1
		h-0.1h-0.4 M185.3,127.3L185.3,127.3l0.1,0.1h-0.1c0,0,0-0.1-0.1-0.1 M186.1,125.1h0.1v0.1L186.1,125.1H186v-0.1l-0.1,0.2h-0.1
		c0-0.1,0-0.1-0.1-0.1v-0.1L186.1,125.1L186.1,125.1c0,0,0,0,0-0.2v0.1h0.1L186.1,125.1z M187.2,126.4L187.2,126.4L187.2,126.4z
		 M187.2,127.5l0.1,0.1L187.2,127.5z M187.4,126.3L187.4,126.3l-0.1,0L187.4,126.3z M187.3,127.5L187.3,127.5l-0.1-0.2L187.3,127.5
		L187.3,127.5z M187.5,125.5h-0.1v-0.1L187.5,125.5L187.5,125.5z M187.4,125.6h-0.1v-0.1L187.4,125.6z M187.4,126.6L187.4,126.6
		L187.4,126.6L187.4,126.6L187.4,126.6z M187.5,123.8l-0.1-0.1v-0.1L187.5,123.8L187.5,123.8z M187.5,126v0.2h-0.1L187.5,126
		L187.5,126z M189.7,126.9L189.7,126.9L189.7,126.9l-0.1,0.2l-0.1,0.5v0.1l-0.4-0.1h-0.1h-0.5l-1.1-0.1l0.1-0.4h-0.1V127V127
		l0.1,0.1v-0.2v-0.2h0.1h0.3l0.2,0.1l0.1-0.1l0.1,0.1h0.1l0.2,0.1h0.1l0.1-0.6h-0.1h-0.4l-0.7-0.1l0.1-0.6v-0.2l0.4-0.1l0.1,0.1
		l0.1-0.1l0.6,0.1V125h-0.1V125v-0.1v-0.1l-0.1,0.1h-0.1v-0.1h0.1v-0.2c0-0.1-0.1-0.1-0.1-0.1h0.1c0-0.1,0-0.2,0.1-0.2l0.1-0.8
		c0.3,0,0.7,0,1,0.1l-0.1,0.8l-0.1,0.1v0.1c0,0,0.1,0,0.1,0.1v0.2c0,0.1,0,0.2,0.1,0.2v0.1h-0.1v0.1v0.1l-0.1,0.2l0.1,0.1h-0.1v0.2
		c0,0,0.1,0,0.1,0.1h-0.1v0.2l0.1-0.1h0.1v0.1h-0.1c0,0.1,0,0.2-0.1,0.2v0.2l-0.1,0.2h0.1h-0.1v0.1
		C189.6,126.7,189.6,126.7,189.7,126.9L189.7,126.9z M188,124.2L188,124.2 M188.6,125.1L188.6,125.1
		C188.7,125.1,188.7,125.1,188.6,125.1l0.1,0L188.6,125.1l0.1,0.1h0.1v0.1l-0.1-0.1V125.1l-0.1,0.1v0.2 M189.2,128.1h0.1
		c0-0.1,0-0.1,0.1-0.1l0.1,0.2c-0.1,0-0.1,0-0.1,0.1C189.3,128.2,189.2,128.2,189.2,128.1z M189.9,127.5h0.1v0.1L189.9,127.5
		L189.9,127.5L189.9,127.5z M189.9,127.5h0.1v0.1L189.9,127.5L189.9,127.5L189.9,127.5z M189.9,125.6L189.9,125.6l-0.1-0.1
		L189.9,125.6L189.9,125.6L189.9,125.6z M189.9,126.4l0.1-0.2h0.1v0.2H189.9z M189.9,127.4L189.9,127.4l0.1-0.1v0.1H189.9z
		 M189.9,127.4L189.9,127.4l0.1-0.1v0.1H189.9z M190,126.5L190,126.5L190,126.5z M190,126.5L190,126.5L190,126.5z M190,126.2
		L190,126.2l0.1-0.2V126l-0.1-0.1h0.1v0l0.2,0.1v0.1l-0.1,0.1l0.1,0.1l-0.1-0.1L190,126.2z M190.2,127.7L190.2,127.7L190.2,127.7
		h-0.1v-0.1v-0.1l0.1-0.1l-0.1,0.1v-0.1l0.1-0.1v-0.1h0.1l0.1-0.1c0,0.2,0,0.3,0.1,0.3v0.1L190.2,127.7L190.2,127.7z M190,126v0.2
		V126z M190,126v0.2V126z M190,127.2L190,127.2l0.1-0.1h0.1v0.1L190,127.2L190,127.2z M190.1,124.8L190.1,124.8L190.1,124.8
		L190.1,124.8z M190.1,126L190.1,126v-0.1v-0.1v-0.1h0.1L190.1,126l0.1,0.1L190.1,126z M190.1,127.4L190.1,127.4L190.1,127.4
		L190.1,127.4L190.1,127.4z M190.2,124.4L190.2,124.4L190.2,124.4l0.1-0.1v-0.1h-0.1l0.1-0.1h0.1v0.1L190.2,124.4L190.2,124.4
		L190.2,124.4z M190.3,126.2L190.3,126.2L190.3,126.2 M192.6,127.8h-0.1v0.1l-0.1-0.1h-0.1l-0.1,0.1v-0.1l-0.4,0.1l-0.1-0.1
		l-0.1,0.1l-0.1-0.1l-0.4-0.1c-0.5-0.1-0.7-0.4-0.8-1h-0.1h-0.1v-0.1l0.1-0.1h-0.1c0-0.1,0-0.2,0.1-0.2l0.1-1l0.1-0.2l-0.1-0.2v-0.1
		h0.1h-0.1v-0.2l0.1,0.1v0.1l-0.1,0.1v0.1h0.1v-0.6l0.1-0.2c0-0.3,0.4-0.5,1-0.6l1.3,0.1l0.1,0.1l-0.1,1.5l-0.1,0.2v0.1v0.1v0.2v0.1
		l-0.1,0.2l0.1,0.2l-0.1,0.1l-0.1,0.2l0.1,0.1l-0.1,0.1v0.1l0.1,0.1l-0.1,0.3v0.1l0.1,0.1l-0.1,0.4L192.6,127.8z M190.4,124.6v-0.2
		h0.1v0.1L190.4,124.6L190.4,124.6L190.4,124.6z M190.4,124.9L190.4,124.9l0.1-0.1v0.1v0.1L190.4,124.9z M190.5,124.2
		c-0.1,0-0.1-0.1-0.1-0.2l0.1-0.1c0,0.1,0.1,0.2,0.1,0.2L190.5,124.2L190.5,124.2z M190.7,127.7L190.7,127.7l0.1,0.1L190.7,127.7z
		 M191.5,128.3l-0.1-0.1h0.1l0.1,0.2L191.5,128.3z M191.6,128.3l0.1-0.1h-0.1v-0.1h0.1c0,0.1,0,0.1,0.1,0.1l-0.1,0.1H191.6z
		 M193.9,126.5l-0.1,0.2l0.1-0.1c0.1,0.1,0.3,0.2,0.6,0.3c0.6-0.1,0.9-0.5,1-1c0-0.4-0.1-0.7-0.4-1.1c-0.3,0-0.4-0.1-0.4-0.2
		c-0.3,0.1-0.6,0.2-0.7,0.3l0.1-0.9c0-0.1,0.2-0.2,0.7-0.3l0.4,0.1c0.8,0.4,1.2,1,1.2,1.8l-0.1,0.5c-0.3,1.1-0.9,1.6-1.8,1.5
		c-0.4,0-0.7-0.1-0.8-0.3l0.1-0.8l-0.1-0.1 M196.7,126.4L196.7,126.4L196.7,126.4L196.7,126.4z M196.8,128.1L196.8,128.1l0.1-0.1
		v0.1H196.8z M219.1,128H219l-0.1,0.1V128l-0.1,0.1l-0.1-0.1h-0.1l-0.1,0.1l-0.1-0.5v-0.5h1.1c0.1,0,0.3,0.2,0.4,0.6l-0.3,0.4
		L219.1,128z M220.7,127.9l-0.1,0.1v-0.1l-0.1,0.1l-0.5-0.1v-0.8h1.4l0.1,0.7v0.2H220.7z"/>
</g>
<g class="st2">
	<path d="M227.2,84.2l0.5-0.1l0.5,0.4l0.1,0.5l-0.6,0.8l-0.8-0.6l0-0.5L227.2,84.2z M229.4,71.2l0.4-0.1c0.6,0,0.9,0.1,0.9,0.3
		l0,1.1l0.9,1.1l0,0.2c-0.1,1-0.4,1.6-1.1,1.7l0-0.2l-0.1,0.2l-0.1,0c-0.4,0.1-1.1-0.5-1.9-1.5l0-0.2
		C228.5,72.7,228.9,71.8,229.4,71.2z M237.6,67.5l1.9,0.2l2.3-0.3c0.2,0,1.1,0.7,2.4,2.2c2.5-2.3,5.1-3.7,7.9-4.1
		c3.2,0.8,5,2.3,5.3,4.5c0.1,1-0.4,2.5-1.5,4.5l-2.3,0.3c-1.5-0.8-2.4-2.1-2.6-4.1l-0.8-0.4c-0.8,0.1-1.7,1.2-2.6,3.3l-0.7-0.2
		c-1.1,2.2-1.5,3.9-1.5,4.9l0.3,0.7l-0.4,2.1c0.5,2.2,1.2,3.3,2,3.2l2.3-0.6l2.1,0.2l0.2-0.3l0.2,0c1.1,0.2,1.7,0.6,1.8,1.2
		c-1.2,2.5-2.3,3.8-3.2,3.9l-1.7-0.3l-2.5,0.6l-2.1,0.1l-5.4,1.5l-0.5,0.1c-0.8-0.3-1.3-0.9-1.4-1.8l-0.1-0.8
		c-0.2-1.6,0.4-2.6,1.7-3l3.1,0.3l0.8-0.9l0-0.2l-0.9-5.1l0.2-2l-0.5-3.7c-0.2-1.3-0.9-1.9-2.1-1.7l-0.9,0.1
		c-0.6,0.1-1.3,0.5-2.2,1.3l-0.7,0.1c-0.6-0.1-1.1-0.8-1.7-2c0.3-2.2,1.2-3.4,2.6-3.6l0.1,0.2L237.6,67.5z M234.8,73.4l0.5,0.4
		l0.1,0.5l-0.6,0.8c-0.3,0.1-0.6-0.4-0.9-1.4l0.2-0.3L234.8,73.4z M248.5,79.1l0.2,0.2l0.1,0.7l-0.2,0l-0.5-0.4L248.5,79.1z
		 M250.6,79.6l0.5-0.1l0.5,0.4l-0.6,0.8l-0.3-0.2L250.6,79.6z M254.1,79.3c1.2,0,1.8,0.3,2,0.7c-0.1,0.8-0.3,1.3-0.5,1.3
		c-1-0.3-1.6-0.6-1.8-1l-0.1-0.5L254.1,79.3z M256.9,89.9l1,0.9l-0.8,1.1l-0.8-0.6l-0.1-0.5L256.9,89.9z M262.7,60.7l1.6-0.2
		l1.6,1.3c0,0.3-0.2,0.5-0.8,0.6c0.1,0.7-0.1,1-0.6,1.1l-1.3-0.5l-0.4,0.5L262,63c0.1,0.7-0.1,1-0.5,1.1l-0.5,0.1l-0.8-0.6l0-0.2
		C261.1,61.7,261.9,60.8,262.7,60.7z M261.2,87l0.2,0l1,0.8l-0.8,1.1l-0.8-0.6l-0.1-0.7L261.2,87z M267.5,83.4l0.3,0.2l0.2-0.1v1.8
		l0,0.2l0.6,0.7l-0.6,0.8l-0.8-0.6l0.4-0.8l-0.1-0.7l-0.5-0.7L267.5,83.4z M268.7,84l0.5,0.4l0,0.2l-0.4,0.6l-0.5-0.4l0-0.3
		L268.7,84z"/>
</g>
<g>
	<g>
		<path d="M48.1,42.4c27.5,0,55,0,82.6,0c43.7,0,87.4,0,131,0c10.1,0,20.1,0,30.2,0c3.1,0,3.1-4.8,0-4.8c-27.5,0-55.1,0-82.6,0
			c-43.7,0-87.4,0-131.1,0c-10.1,0-20.1,0-30.2,0C45,37.6,45,42.4,48.1,42.4L48.1,42.4z"/>
	</g>
</g>
<g>
	<g>
		<path d="M290.1,38.4c-6.1,5.9-12.1,12-18,18.2c-2.1,2.3,1.5,5.3,3.7,3.1c7.1-7.2,10.6-10.7,17.7-17.9
			C295.8,39.5,292.4,36.1,290.1,38.4c-7.1,7.1-10.9,11-18.1,18.2c0.5,3.1,1.6,5.2,3.7,3c7.1-7.2,10.6-10.7,17.7-17.9
			C295.8,39.5,292.3,36.1,290.1,38.4z"/>
	</g>
</g>
<g>
	<path class="st3" d="M206.4,83.1L207,83l0.7,0.6l0.1,0.6l-0.8,1l-1.1-0.8l-0.1-0.6L206.4,83.1z M209.4,66.7l0.6-0.1
		c0.8,0,1.1,0.1,1.2,0.4l0,1.3l1.1,1.3l0,0.2c-0.1,1.3-0.6,2-1.4,2.1l0-0.2l-0.2,0.2l-0.2,0c-0.6,0.1-1.4-0.6-2.5-1.9l0-0.2
		C208.1,68.5,208.6,67.4,209.4,66.7z M220.2,61.9l2.5,0.3l3-0.4c0.3-0.1,1.4,0.9,3.2,2.7c3.3-3,6.8-4.7,10.4-5.2
		c4.3,1,6.6,2.9,6.9,5.7c0.2,1.3-0.5,3.2-2,5.6l-3.1,0.4c-2-1-3.1-2.7-3.5-5.2l-1-0.5c-1.1,0.2-2.2,1.6-3.5,4.2l-0.9-0.2
		c-1.4,2.8-2.1,4.9-2,6.2l0.4,0.9l-0.6,2.6c0.7,2.8,1.6,4.2,2.7,4l3-0.7l2.8,0.3l0.3-0.4l0.3,0c1.5,0.2,2.3,0.8,2.4,1.5
		c-1.6,3.2-3.1,4.8-4.3,5l-2.2-0.3l-3.3,0.8l-2.7,0.1l-7.2,1.9l-0.6,0.1c-1.1-0.4-1.7-1.1-1.9-2.2l-0.1-1c-0.3-2,0.5-3.2,2.3-3.8
		l4.1,0.4l1.1-1.1l0-0.3l-1.2-6.4l0.3-2.6l-0.6-4.6c-0.2-1.7-1.1-2.4-2.7-2.2l-1.2,0.2c-0.7,0.1-1.7,0.7-2.9,1.7l-0.9,0.1
		c-0.7-0.2-1.5-1-2.2-2.5c0.4-2.8,1.6-4.3,3.4-4.6l0.1,0.3L220.2,61.9z M216.5,69.3l0.7,0.5l0.1,0.6l-0.8,1.1
		c-0.4,0.1-0.8-0.5-1.1-1.7l0.2-0.4L216.5,69.3z M234.5,76.6l0.3,0.3l0.1,0.9l-0.3,0l-0.7-0.5L234.5,76.6z M237.4,77.1L238,77
		l0.7,0.6l-0.8,1l-0.4-0.2L237.4,77.1z M242,76.8c1.6,0,2.4,0.3,2.6,0.9c-0.1,1.1-0.3,1.6-0.7,1.7c-1.4-0.4-2.1-0.8-2.3-1.3
		l-0.1-0.6L242,76.8z M245.6,90.1l1.4,1.1l-1.1,1.4l-1-0.8l-0.1-0.6L245.6,90.1z M253.4,53.2l2.1-0.3l2.1,1.6
		c0.1,0.4-0.3,0.7-1.1,0.8c0.1,0.8-0.2,1.3-0.8,1.3l-1.7-0.7l-0.5,0.7l-1-0.5c0.1,0.8-0.1,1.3-0.7,1.4l-0.6,0.1l-1.1-0.8l0-0.3
		C251.3,54.4,252.4,53.3,253.4,53.2z M251.3,86.5l0.3,0l1.4,1.1l-1,1.4l-1.1-0.8l-0.1-0.9L251.3,86.5z M259.8,81.9l0.4,0.3l0.3-0.1
		l0,2.2l0,0.3l0.8,0.8l-0.8,1.1l-1.1-0.8l0.5-1l-0.1-0.9l-0.7-0.9L259.8,81.9z M261.4,82.6l0.7,0.5l0.1,0.3l-0.5,0.7l-0.7-0.5l0-0.3
		L261.4,82.6z"/>
</g>
<g>
	<g>
		<path d="M192.8,146.7c9.1-9.1,15.8-15.9,24.9-25c-1.1-1.1-1.9-1.8-3.4-3.4c-9.1,9.1-15.8,15.9-24.9,25
			C187.1,145.4,190.6,148.9,192.8,146.7L192.8,146.7z"/>
	</g>
</g>
<g>
	<path class="st4" d="M272,59.3C271.5,59.9,272.5,58.8,272,59.3c0.9,0.6,1.8,1.2,2.8,1.9c-1.7,0.4-3,1.1-3.8,2.5
		c-0.5,0.9-0.6,1.6,0.1,2.4c0.5,0.5,0.8,0.6,1.5,0.4c3.2-0.8,5.7,0.3,7.4,3.2c-1.6-0.1-3,0.2-4,1.4c-0.5,0.5-1,1-0.6,1.9
		c0.4,0.8,0.7,1.3,1.8,1.3c3,0,5,1.8,6,5.1c-1.7-0.7-3.2-0.5-4.7,0.6c-0.8,0.6-0.7,1.1-0.6,1.9c0,0.8,0.4,1,1.1,1.2
		c3,0.8,4.7,3.2,4.6,6.6c-1.4-1.1-3-1.3-4.7-0.6c-0.8,0.3-0.9,0.9-1,1.6c-0.1,0.7,0,1,0.6,1.4c2.7,1.7,3.7,4.2,2.8,7.6
		c-0.3-0.2-0.5-0.4-0.7-0.6c-0.9-0.9-2-1.2-3.3-1.1c-0.7,0.1-1.3,0.1-1.6,1c-0.3,0.8-0.4,1.4,0.3,2.1c2.1,2.2,2.2,5.2,0.4,8.1
		c-0.6-1.8-1.9-2.7-3.7-2.9c-0.9-0.1-1.3,0.4-1.6,1c-0.2,0.4-0.3,1-0.1,1.4c1.4,3.1,1,5.5-1.6,8.3c-0.3-1.6-0.8-2.9-2.3-3.6
		c-0.6-0.3-1.2-0.6-2,0c-0.7,0.6-1,1.1-0.8,2c0.6,2.9-0.6,5.4-3.3,7.2c-0.5-1.2-0.8-2.4-1.4-3.6c-0.5-0.9-1.5-1.3-2.5-0.5
		c-0.4,0.3-0.7,0.8-0.8,1.2c-0.3,3.3-2.2,5.6-5.5,6.6c0.7-1.7,0.6-3.2-0.4-4.7c-0.5-0.7-1.1-0.5-1.8-0.4c-0.7,0.1-1,0.3-1.2,1
		c-1,3.2-3.3,4.8-6.8,5.1c0.1-0.3,0.2-0.5,0.4-0.8c0.9-1.3,0.8-2.6,0.4-4c-0.3-0.8-0.9-0.8-1.6-0.9c-0.7-0.1-1,0.1-1.4,0.7
		c-1.9,2.9-4.7,4-7.8,3.1c1.5-1.2,2.3-2.7,1.9-4.5c-0.1-0.5-0.8-0.9-1.3-1.1c-0.3-0.1-1,0-1.3,0.3c-2.6,2.3-5.1,2.7-8,1.3
		c0.8-1.1,1.8-2.1,2.4-3.3c0.6-1.3,0.3-2-1-2.6c-0.3-0.1-0.4,0.7-0.7,0.9c-0.9,0.5-2.7,3.1-3.6,4.7c-1,1.8-1.3,1.1-2,0.4
		c-0.4-0.4-1.6-1.6-2.5-2.5c-0.4,0.4,0.4-1.3,1.2-2.4c1-0.9,1.2-1.3,1.3-1.5c18.7-19.4,36.2-37.7,54.9-57.1
		C272.4,57.5,271.3,58.1,272,59.3z M224.5,109.3c5.2,6.6,17.9,9.2,27.7,5.8c11.3-3.9,19.4-14,20.5-25.7c0.8-8.7-1.9-16-7.8-22
		c-2.4,2.4-4.5,4.7-6.7,7c8,8.2,5.9,20.1-0.4,26.5c-3.2,3.3-7.1,5.4-11.5,6c-5.8,0.8-10.8-0.8-15-4.5
		C228.9,104.7,226.8,106.9,224.5,109.3z M236.2,97.1c3.3,2.9,7.1,3.7,11.4,2.3c4.7-1.6,7.6-4.9,8.5-9.8c0.7-3.9-0.3-7.2-3.1-10
		C247.4,85.5,241.9,91.2,236.2,97.1z"/>
</g>
<g class="st5">
	<path class="st4" d="M214.7,114.6C215.2,114.1,214.2,115.1,214.7,114.6c-0.9-0.6-1.8-1.1-2.9-1.8c1.7-0.4,3-1,3.8-2.4
		c0.5-0.9,0.6-1.5-0.2-2.3c-0.5-0.5-0.8-0.6-1.5-0.4c-3.2,0.8-5.7-0.3-7.4-3.1c1.6,0.1,3-0.2,4.1-1.4c0.5-0.5,1-1,0.6-1.8
		c-0.4-0.8-0.7-1.2-1.8-1.2c-3,0-5.1-1.7-6-5c1.7,0.6,3.2,0.5,4.7-0.5c0.8-0.5,0.7-1.1,0.6-1.8c-0.1-0.7-0.4-1-1.1-1.2
		c-3-0.8-4.7-3.1-4.6-6.5c1.4,1.1,3,1.3,4.7,0.6c0.8-0.3,0.9-0.9,1-1.6c0.1-0.6,0-1-0.6-1.4c-2.8-1.6-3.7-4.1-2.8-7.4
		c0.3,0.2,0.5,0.4,0.7,0.6c0.9,0.9,2,1.2,3.3,1.1c0.7-0.1,1.3-0.1,1.6-1c0.3-0.8,0.4-1.3-0.3-2c-2.1-2.1-2.2-5.1-0.4-7.9
		c0.6,1.7,1.9,2.6,3.7,2.8c0.9,0.1,1.3-0.4,1.6-1c0.2-0.4,0.3-1,0.2-1.4c-1.4-3-1-5.4,1.6-8.1c0.3,1.5,0.8,2.8,2.3,3.5
		c0.6,0.3,1.2,0.6,2,0c0.7-0.6,1-1.1,0.8-2c-0.6-2.9,0.6-5.3,3.3-7c0.5,1.1,0.8,2.4,1.4,3.5c0.5,0.9,1.5,1.3,2.5,0.5
		c0.4-0.3,0.7-0.8,0.8-1.2c0.3-3.2,2.2-5.5,5.5-6.4c-0.7,1.7-0.6,3.2,0.4,4.6c0.5,0.7,1.1,0.5,1.8,0.4c0.7-0.1,1-0.3,1.2-1
		c1-3.1,3.3-4.7,6.8-4.9c-0.1,0.3-0.2,0.5-0.4,0.7c-0.9,1.3-0.8,2.6-0.4,3.9c0.3,0.8,0.9,0.8,1.6,0.9c0.7,0.1,1-0.1,1.4-0.7
		c1.9-2.8,4.7-3.9,7.9-3.1c-1.5,1.2-2.3,2.7-1.9,4.4c0.1,0.5,0.8,0.9,1.3,1.1c0.3,0.1,1,0,1.3-0.3c2.7-2.3,5.2-2.6,8-1.3
		c-0.8,1.1-1.8,2.1-2.4,3.3c-0.7,1.3-0.3,2,1,2.5c0.3,0.1,0.4-0.7,0.7-0.9c0.9-0.5,2.7-3,3.7-4.6c1-1.7,1.3-1,2-0.4
		c0.4,0.4,1.6,1.6,2.5,2.5c0.4-0.4-0.4,1.3-1.2,2.3c-1,0.9-1.2,1.3-1.3,1.4c-18.8,19-36.4,36.9-55.2,55.9
		C214.4,116.4,215.5,115.9,214.7,114.6z M262.5,65.8c-5.2-6.4-18-9-27.8-5.7c-11.3,3.8-19.5,13.7-20.6,25.1
		c-0.8,8.5,1.9,15.7,7.9,21.5c2.4-2.4,4.6-4.6,6.7-6.8c-8-8-5.9-19.6,0.4-25.9c3.2-3.2,7.1-5.3,11.6-5.9c5.8-0.8,10.8,0.8,15.1,4.4
		C258,70.3,260.2,68.1,262.5,65.8z M250.7,77.7c-3.3-2.8-7.2-3.7-11.4-2.3c-4.7,1.5-7.7,4.8-8.6,9.6c-0.7,3.8,0.3,7.1,3.1,9.8
		C239.5,89.1,245,83.4,250.7,77.7z"/>
</g>
</svg>
