<?xml version="1.0" encoding="utf-8"?>
<!-- Generator: Adobe Illustrator 24.3.0, SVG Export Plug-In . SVG Version: 6.00 Build 0)  -->
<svg version="1.1" id="Layer_1" xmlns="http://www.w3.org/2000/svg" xmlns:xlink="http://www.w3.org/1999/xlink" x="0px" y="0px"
	 viewBox="0 0 300 200" style="enable-background:new 0 0 300 200;" xml:space="preserve">
<style type="text/css">
	.st0{fill:#FFFFFF;stroke:#000000;stroke-miterlimit:10;}
	.st1{fill:#333031;}
	.st2{opacity:0.55;}
	.st3{fill:#ED1C2C;}
	.st4{opacity:0.4;}
	.st5{fill:#4C4748;}
	.st6{opacity:0.74;}
</style>
<rect x="31.5" y="38.6" class="st0" width="242.7" height="107.4"/>
<g>
	<g>
		<path class="st1" d="M175.2,99.7l0.9-0.1l1,0.9l0.1,0.9L176,103l-1.6-1.3l-0.1-0.9L175.2,99.7z M180.4,74.7l0.9-0.1
			c1.1,0,1.7,0.2,1.8,0.7l-0.1,2l1.6,2.1v0.3c-0.2,1.9-1,3-2.2,3.2v-0.3l-0.3,0.3l-0.3,0.1c-0.9,0.1-2.1-0.9-3.7-3.1l-0.1-0.3
			C178.5,77.5,179.2,75.9,180.4,74.7z M191.1,79.1l1,0.8l0.1,0.9l-1.2,1.6c-0.6,0.1-1.2-0.8-1.6-2.7l0.3-0.4L191.1,79.1z M197,67.9
			l3.8,0.5l4.6-0.5c0.5,0,2.1,1.4,4.7,4.3c5.1-4.4,10.4-6.9,16-7.5c6.4,1.7,9.8,4.7,10.3,8.9c0.2,2-0.9,4.8-3.3,8.5l-4.6,0.5
			c-3-1.6-4.6-4.2-5-8l-1.5-0.8c-1.7,0.2-3.5,2.3-5.4,6.3l-1.4-0.3c-2.2,4.3-3.3,7.4-3.2,9.4l0.6,1.4l-0.9,3.9
			c0.9,4.3,2.2,6.4,3.9,6.2l4.6-1l4.2,0.5l0.4-0.6h0.5c2.2,0.4,3.4,1.2,3.5,2.5c-2.6,4.8-4.8,7.2-6.7,7.4l-3.3-0.6l-5.1,1.1h-4.1
			l-11,2.6l-0.9,0.1c-1.6-0.6-2.5-1.8-2.7-3.5l-0.1-1.5c-0.3-3,0.9-4.9,3.6-5.6l6.1,0.8l1.7-1.6v-0.5l-1.5-9.9l0.5-3.9l-0.8-7.1
			c-0.2-2.5-1.6-3.7-4.1-3.4l-1.9,0.2c-1.1,0.1-2.6,0.9-4.4,2.4l-1.4,0.1c-1.1-0.3-2.2-1.6-3.2-3.9c0.7-4.2,2.5-6.5,5.3-6.8l0.1,0.5
			L197,67.9z M218.1,90.9l0.5,0.4l0.2,1.4h-0.5l-1-0.8L218.1,90.9z M222.4,91.9l0.9-0.1l1,0.9l-1.2,1.6l-0.5-0.4L222.4,91.9z
			 M229.3,91.6c2.3,0.1,3.6,0.6,3.9,1.5c-0.2,1.6-0.6,2.5-1.1,2.5c-2-0.6-3.2-1.3-3.5-2.1l-0.1-0.9L229.3,91.6z M233.2,114.6
			l-0.1-0.9l1.2-1.6 M242.3,107.9l0.8-1.1h0.5 M247.6,56.1l3.2-0.3l3.1,2.5c0.1,0.6-0.5,1-1.7,1.2c0.1,1.3-0.3,1.9-1.2,2l-2.5-1.2
			l-0.8,1l-1.5-0.8c0.1,1.2-0.2,1.9-1.2,2.1l-0.9,0.1l-1.6-1.3v-0.5C244.3,57.9,246,56.3,247.6,56.1z"/>
	</g>
</g>
<g>
	<g>
		<path d="M103,60.6v1l0.5,3.2l-0.5,0.5v0.5l0.5,0.5v0.5l-0.5,1.6l0.5,5.8l-0.5,3.7l0.5,4.8v9l0.5,2.2l-0.5,0.5l0.5,5.3v7.4l0.5,8.5
			l-0.5,0.5v0.5l0.5,2.1l-0.5,0.5H90.6l-0.5-3.7V88.7H89c-0.6,0-1.2,3-2.1,9h0.5c-2,14.8-3.6,22.3-4.7,22.3h-0.5l-1.6-0.5L78,120
			h-2.6c-1.3,0-2.8-8.3-4.7-24.9c-0.5,0-1.2-2.7-2-8l0.5-0.5l-0.5-3.7h-0.9v15.3l0.5,0.6l-0.5,0.5v0.5l0.5,0.5v0.5l-0.5,0.5
			l1.1,10.6l-0.6,0.5l0.6,2.6v3.7l-1.1,1.1H54.9v-2.6c0-13.1-0.3-22.5-1-28.1l0.5-2.1l-0.6-0.4v-0.5l0.5-0.5l-0.5-3.8v-8.5l-1-1.1
			l1-2.2l-0.5-9.5h11.4L74,61l3.6,23.3v1.6l1,1.1h0.5l3.1-26.5l1.5,0.5l2.6-0.5L103,60.6L103,60.6z M56.3,118.1v0.5h-1.8v-0.5H56.3z
			 M58.2,118.1v0.9l-1.4-0.5V118L58.2,118.1L58.2,118.1z M71.2,118.5v1.9h-1.4l0.9-1.9H71.2z M76.3,122.8h0.9l-0.9,0.9l0.9,2.4
			c-0.6,1.3-2.2,2.7-4.7,4.2H72v-0.9h1v-0.5l-1.9-0.4h-0.5l0.5-1.5v-0.5l-0.5-0.5h0.5v-1.3l3.3,0.5L76.3,122.8z M71.2,81l0.9,0.9
			v-1.4h-0.9V81z M72.1,119l0.5-0.5h0.5l0.5,1.9l-0.5,0.5l0.9,1.4l-0.9,0.9h-1l0.5-0.5l-0.9-0.9l0.5-1.5l-0.5-1.4
			C71.6,119,72.1,119,72.1,119z M75.4,129.9l0.9,1H74v-1H75.4z M75.8,118.5v1.9l-0.9-0.9v-0.9L75.8,118.5L75.8,118.5z M79,118.5
			c0,1.6-0.6,2.6-1.8,2.9l-0.9-2.9H79z M86.7,115c-0.5,0-0.8,0.5-0.9,1.6v0.3l-0.9-0.3l-0.3,0.9c-0.4,0-0.6-0.5-0.6-1.6l-0.6,0.6
			v0.3l0.3,0.3l-0.9,0.3v-0.6l0.3-0.3l-0.6-0.6V115c0.7,0,1.5,0.3,2.3,0.9h0.6v-0.6l-0.3-0.3l1.1-0.4h0.3
			C86.7,114.6,86.7,115,86.7,115z M86.7,113.1h-0.3l0.6-0.7h0.3L86.7,113.1z M88.1,115.6v0.3l-0.3,0.3l-1.2-0.6l0.6-1L88.1,115.6z
			 M88.1,118.8l-0.3,0.3l-1.2-0.3v-0.3h1.5V118.8L88.1,118.8z M97.2,120.5v0.3h-0.3v-0.6h-0.6c0,1.1-1.1,1.6-3.2,1.6
			c0-0.3-0.6-0.5-1.8-0.6l-0.3,0.3c0-0.8-0.9-1.3-2.6-1.3v-0.3c0.8,0,1.1-0.2,1.1-0.7h0.9v1H91l0.3-0.3l-0.3-1.6v-0.4h1.2
			c0-0.4-0.3-0.6-0.9-0.6V117l1.5-0.3h0.3l0.3,0.3l1.1-0.3h0.6v0.3l-0.3,0.3v0.3l0.9,0.3l0.3-0.3C96.3,117.5,96.7,118.5,97.2,120.5z
			 M115.6,112.7h-4.4l-0.3,0.4l-0.3-0.4h-2.3l-0.3,0.4l-0.6-0.7H95.7l-1.4-0.3l-0.9,0.3h-4.1l-0.6-0.6v-0.3l1.7-0.3l0.6,0.6h2.1
			l0.3-0.3v0.3l0.3-0.3l0.3,0.3l2.1-0.3l14,0.6l1.2,0.3l0.3-0.3l0.3,0.3h0.3l0.3-0.3v0.3l1.2-0.3l2.1,0.3L115.6,112.7
			C115.7,112.7,115.6,112.7,115.6,112.7z M93.7,113.7h-0.6l-0.3-0.3l0.6-0.7L93.7,113.7z M96,116.6v0.3h-0.6V116L96,116.6z
			 M102.5,119.5l-0.9,0.3h-0.3v-0.3l0.9-0.4h0.3V119.5z M103.9,120.2h-0.3c0-0.7-0.3-1-0.9-1v-0.3h1.5L103.9,120.2z M105,119
			l-0.2-0.2l0.4-0.3v0.5l0.5-0.3h1.5v-0.3l-0.2-0.2l0.9-0.4h0.2v0.4l-0.4,0.3l0.4,0.3h0.4v-0.3h0.6v0.2c0,0.2,2.7,0.5,8.2,0.8
			l0.6-0.4l0.4,0.4c0.8,0,1.1,0.2,1.1,0.6l-0.6,2.6h-0.2c0-0.3-0.1-0.5-0.4-0.5H118v0.3h-0.2v-0.2l0.4-0.9l0.2,0.2l0.4-0.3
			c0-0.3-3-0.6-8.9-1l-0.2,0.2v-0.2l-3.9-0.1h-0.2l-0.2-0.2v-0.1l0.2-0.2v-0.3h-0.9L105,119z M110.6,114.3h-1.2V114h1.2V114.3z
			 M110.6,117.8h-0.3l-0.6-0.6h0.9V117.8z M113,133.5l0.2-0.2l-0.2-0.2v-0.3c0.4,0,0.8-0.2,1.3-0.5v-0.1l-0.2-0.2l0.5,0.2h0.2
			l0.2-0.2c0-0.4,0.2-0.6,0.6-0.6l0.2,0.2h0.6v-0.4h-0.6v-0.5h0.2l0.2,0.2h0.2v-0.5h0.4v0.8h0.4c0-0.3,0.1-0.5,0.4-0.5v-0.3
			l-0.2-0.2h0.4c0,0.3,0.2,0.6,0.7,1.1l0.8-0.2v-0.2h-0.8v-0.2l0.6-0.2h0.2v0.3h0.2l0.2-0.2l-0.2,0.5v0.2l0.2,0.1v0.2l-0.2-0.2
			c-0.2,0-0.5,0.3-0.8,0.9l0.2,0.2l-0.4,0.5h0.4l0.6-0.3v-0.2l-0.2-0.2h0.2l0.4,0.4v0.3h-0.6l0.8,1l-0.2,0.4h-0.4l-0.2-0.1l-0.2,0.5
			v0.2l0.2,0.2v0.2h-0.2l-0.2-0.2h-0.2v0.3c0.8,0,1.1,0.2,1.1,0.5v0.5h-0.4v-0.2l0.2-0.2v-0.3l-0.4,0.3v0.8h0.4v-0.3h0.2v0.3
			l-0.2,0.2l0.2,0.2v0.2h-0.2l-0.2-0.2c-0.2,0-0.4,0.4-0.8,1.3v0.2l0.2,0.2h-0.7v-0.2l0.2-0.2v-0.1l-0.8,0.1h-0.2l-0.2-0.1h-0.2
			l-0.2,0.1h-0.4v-0.1l0.2-0.2v-0.2l-0.6,0.2h-0.2c0-0.3,0.2-0.5,0.6-0.5v-0.1c-0.5,0-0.8-0.2-0.8-0.5l0.2-1l-0.3-0.3
			c0,0.3-0.2,0.6-0.6,1h-0.2l-0.2-0.2l0.6-0.7v-0.5l-0.2-0.2h0.4l-0.2-0.5v-0.1h0.4v-0.3h-0.6l-0.2,0.2c0-0.4-0.2-0.5-0.5-0.5v-0.3
			l0.2-0.2h-0.2l-0.2-0.2h-0.2l-0.2,0.2l-0.2-0.2h-0.2v0.5h-0.2L113,133.5L113,133.5L113,133.5z M116.9,125.8h0.4v-0.2l-0.4-0.3
			l0.4-0.5v-0.1l-0.2-0.2c0.2,0,0.4-0.2,0.4-0.5v-0.2l0.6,0.2c0.2,0,0.3-0.3,0.3-0.8h0.2v0.2c-0.2,0.6-0.5,0.9-0.7,0.9l0.4,0.7v0.2
			l-0.2,0.2v0.2h0.2l1.1-0.3v-0.2c0-0.2-0.2-0.3-0.6-0.3l0.6-0.5h0.4v2.2l-0.2,0.2l0.2,0.1l-0.2,0.7v0.2l0.5-0.2h0.2v0.3
			c-0.4,0-0.7,0.4-0.7,1.3h0.2l-0.2,0.6v0.2l0.2,0.1v0.2l-0.2-0.2l-1.2,0.5v-0.2l-0.2,0.2c-0.8-0.4-1.1-1-1.1-1.6
			c0.2-0.4,0.4-1,0.4-1.7V127l-0.2-0.2l0.2-0.1v-0.3h-0.2l-0.2,0.1h-0.2L116.9,125.8L116.9,125.8z M118.2,132.8l0.2-0.2l-0.2-0.7
			h-0.4c0,0.3-0.1,0.4-0.4,0.4L118.2,132.8z M118.1,135.7l0.3-0.3h-0.5v-0.2l0.2-0.2v-0.2l-0.2-0.2h-0.2l-0.2,0.2
			C117.6,135.4,117.8,135.7,118.1,135.7z M119.1,127.5V127h-0.2l-0.4,0.3v0.2H119.1z M119,134.4l0.2-0.1l0.2,0.1h0.2v-0.3h-1v0.3
			H119z M119.5,132h0.2l-0.2,0.5h-0.2l-0.2-0.2L119.5,132z M119.5,138h0.2v0.3l-0.2,0.2v0.2l0.2,0.1h-0.4l-0.2-0.1L119.5,138z"/>
	</g>
	<g>
		<path d="M98.8,47.8l0.7,0.6l0.1,1.3h-0.7l-0.8-1.9L98.8,47.8z M111.7,133.1l0.1,0.7l-5.9,1.1l-6.7-0.2l-0.1-0.7L111.7,133.1z
			 M103.5,48.1l0.1,0.7l-2,0.9l-0.1-1.4L103.5,48.1z M126.2,59.3l0.7,0.6l2.6-0.8l5.9-0.5l8,27.3l-7.3,0.5l-5.2,2.5l-3.8-16.7
			l-1.3,0.1l-2.3,13.8l0.8,2.6l0.3,4.1l-1.2,2.2l0.1,0.6l1.4,1.3l6.6-0.5l1.2-1.5l-0.1-0.7l-1.5-1.9l-0.2-2l6.5-1.9l2.6-0.2l3.4,0.4
			l6.9,30.8l-10.6-0.6l-0.6,0.7l-0.7-0.6l-3.3,0.3l-0.2-2c-0.4-5.8-1.1-9.8-2.2-12.1l-2.6,0.8l-2.7-0.5l-5.9,0.5l-2.3,13.1l0.1,0.7
			l-2.1-0.5l-1.9,0.8l-6-0.9l-0.6,0.7l-3.3-0.4l6.2-32.4c1.8-17.3,3.2-26.1,4.1-26.1l3.9-0.3L126.2,59.3z M132.4,126.5l0.7,0.6h-1
			v-0.6C132.1,126.5,132.4,126.5,132.4,126.5z M140.7,133.2h1v-0.4l-0.4-0.3L140.7,133.2z M140.7,134.9v0.4h0.6v-1.1L140.7,134.9z
			 M141.9,136.5v0.7l1-0.7c0,0.7,0.2,1.1,0.7,1.1l-1.3,2.4h-0.4l-0.3-0.4v-0.3l0.3-0.4v-0.3h-0.7l0.4-2L141.9,136.5L141.9,136.5z
			 M146.2,133.5l-1,1.1 M143.6,134.9v-0.3l-0.4-0.4l0.4-0.3v-0.4l-0.4-0.3c0.4,0,0.7-0.3,0.7-1 M144.9,136.2h-1.6 M145.3,141.3h-1.6
			l-0.7-0.7v-0.4C144.5,140.6,145.3,140.9,145.3,141.3z M144.9,126.8h0.4v0.7l-1.6,0.7h-0.4v-0.7L144.9,126.8z M143.9,138.9l0.7,0.7
			v0.4h-1 M144.2,143.3h0.7l-1.3,1.1h-0.4L144.2,143.3z M146.6,138.3v1l-1-0.4v-0.6H146.6z M152.8,140.9v1h-0.3l-0.4-1H152.8z
			 M155.8,140.6l0.3,2h-2.3l-0.7-0.7"/>
	</g>
	<g>
		<path d="M166.6,60.1V59l2.7,0.6h5.9c4.3,0,8.8,1.6,13.5,4.7l2.7,7c1.4,0,2.1,0.6,2.1,1.8v0.6c-1.4,0-2.1,0.4-2.1,1.2v2.9h2.7V79
			H193l-0.6-0.6V79l-0.5,0.6v0.6h-0.6l-0.5,5.9l1.1,1.7h-0.6l-0.5,0.6V104c-1.6,10.3-6.6,15.5-15.1,15.5h-6.4c-0.7,0-1.4,0-2-0.1
			H159l-4.6-0.7l-0.7,0.7H153l-0.7-0.7l0.7-3.4v-0.7l-0.7-0.7h0.7l0.1-21.1l-0.1-9.9l-0.5-1.6c0.1-1.8,0.3-3.6,0.5-5.3l-0.1-6.3
			l-0.7-0.7h0.7l0.4-4.8v-0.7l-0.4-3.4h9.3l0.7-0.7v0.7h1.1l0.9-0.5l0.5,0.5L166.6,60.1L166.6,60.1L166.6,60.1z M156.3,48.3h-0.2
			l-0.5,0.4h0.3L156.3,48.3z M164.6,54.5l-0.3-0.7v-0.1l0.3-0.2h-0.3c0-0.9-0.1-1.4-0.5-1.4l-0.5,2l0.2,0.5L164.6,54.5z M167.6,94.1
			l-0.1-0.3l-0.1,2.7h0.1L167.6,94.1L167.6,94.1z M176.7,100.5l-0.4-2.2V83.1l-0.5-0.6l0.5-0.6v-0.6h-1.6v-0.6c1.1,0,1.6-1,1.6-2.9
			v-2.5c0-0.8-0.5-1.2-1.6-1.2l0.5-0.6l-1.1-1.7l-2.1,0.6h-0.5l-0.6-0.6c-1.1,0-1.6,0.4-1.6,1.2h1.1v0.6h-1.1l-1.6-0.6l-0.1,1.8v1.8
			l0.6,0.6h-0.6v0.9l0.1,1.8v0.7l-0.1,0.1v2.4h-0.1v0.3l-0.1-0.1l-0.1,9.5h0.1v1.3l0.8,2.1l-0.7,0.7l0.5,5.3l-0.6,3.1v0.3l0.6,0.6
			v0.7l-0.3,0.3c0.5,0,1.7,0.1,3.5,0.1h3.2c1.1,0,1.8-2,2.1-6.1h-0.6L176.7,100.5z M167.8,84v8.1l0.7,0.7h-0.8v-9.4L167.8,84z
			 M170.7,61.6l-0.5-0.2l-0.5,0.3h0.5v0.2h-0.7v-0.4h-0.3V62c0.6,0,1,0.1,1,0.3h0.2l0.3-0.5V61.6L170.7,61.6z M174,52v-0.2h-0.7v0.5
			h0.3L174,52z M176.7,100.5l0.1,0.6v-0.8L176.7,100.5z M184.9,47.5l-0.7,0.2v-0.2c-0.4,0-0.6-0.3-0.7-0.8h0.2l0.3-0.2h0.3v0.2
			l-0.3,0.2v0.5h0.7v-0.7h0.5v0.8h0.3c0.6-0.9,0.9-1.3,1.2-1.3h0.2l-0.5,0.3l0.5,0.8v0.2h-0.5c0-0.3-0.1-0.5-0.5-0.5l-0.3,0.7
			L184.9,47.5z M183.7,46.4v-0.7l0.5,0.4L183.7,46.4z M185.8,42.8l-0.3-0.8H185l-0.2,0.8h-0.5l-0.5-0.3v-0.3c0-0.2,0.4-0.4,1.2-0.5
			l1.2,0.2l0.7-0.2h0.3l-0.5,1.2L185.8,42.8L185.8,42.8z M186.3,40.5v-0.3l-0.2,0.2c-0.3,0-0.5-0.3-0.5-0.8l-0.9,0.3v0.2h0.5v0.2
			l-0.2,0.2l-0.7-0.5v-0.5h1.9v0.2l-0.4,0v0.4h0.5v-0.7h0.5v1.2L186.3,40.5L186.3,40.5L186.3,40.5z M186.1,48.2h-0.7v0.3l0.7,0.2
			V48.2z M186.7,50.7h-0.2L186,51h0.2L186.7,50.7z M186.4,123.1L186.4,123.1l0.2,0.1l0.1-0.3L186.4,123.1z M187.3,125.8l0.2,0.1
			l-0.5,0.3h-0.1L187.3,125.8z M188,122.5c-0.1,0.2,0,0.3,0.2,0.3l-0.3,0.3l0.1,0.1l-0.2,0.4l-0.5-0.1l-0.1-0.1l-0.1,0.1v-0.2
			c0.2,0,0.3-0.1,0.3-0.2v-0.1l-0.1-0.1l0.1-0.1l0.1-0.1l-0.1-0.1c0.1,0.1,0.2,0,0.3-0.3L188,122.5z M188.5,125.4L188.5,125.4
			l-0.2-0.2l0.1-0.1l-0.1-0.8h0.1v-2.4l1.1,0.2c0,0.4,0.2,1.2,0.6,2.2h0.1l0.1-0.1v-0.1l-0.1-0.1l0.1-1.3l-0.1-0.6h0.1l0.1-0.1
			l0.6,0.1v1.1l-0.1,1.2h-0.1v0.1h0.1v0.4h0.1l-0.1,0.4l-0.1-0.1l-0.1,0.1l0.1,0.7l-0.8-0.1l-0.2-0.2l0,0l-0.1-0.3l0.1-0.1v-0.1h0.2
			l-0.3-0.3c0.1,0,0.2-0.1,0.3-0.2h-0.1l-0.2,0.1c-0.3-0.4-0.4-0.9-0.4-1.4h-0.2l-0.1,0.2l0.1,0.1H189l0.1,2l-0.1,0.1h-0.1l-0.4-0.1
			l-0.1-0.1l-0.1,0.1l-0.1-0.1L188.5,125.4z M190.1,125.3c0.3,0.1,0.5,0.2,0.5,0.3l-0.5-0.1l0.6,0.1l-0.1-0.3H190.1z M190,125.6
			L190,125.6L190,125.6z M190.7,125.3l-0.1-0.2l-0.1,0.1v0.1H190.7z M190.8,52.7h2.1l0.3,0.2l0.3-0.2
			C193.6,52.7,192.7,52.7,190.8,52.7z M194.7,122.4l-0.5,2c-0.2,1.1-0.4,1.6-0.5,1.6l-0.7,0.1l-0.4-0.1c-0.1,0-0.3-1-0.7-2.9
			l0.1-0.7l-0.1-0.1l0.9-0.1v0.7l0.2,0.2h0.6c0.1-0.6,0.3-0.8,0.4-0.8l0.2,0.1l0.4,0.2L194.7,122.4L194.7,122.4z M192.4,80.1
			l0.6-0.6c0,1.2,0.4,1.7,1.1,1.7V80l3.2,0.6v1.2c-1.1,0-1.6,0.6-1.6,1.8h-0.5v-2.4h-0.6l-1.1,1.2h-1.6v-0.6h1.1v-0.6l-1.1-1.2
			L192.4,80.1L192.4,80.1z M193.1,124.8l0.1-0.1l0.2-1h-0.1l-0.1-0.1h-0.3 M195,122.5v-0.2l0.5,0.1h0.1l0.9,0.1c0.2,0,0.5,0,0.7,0
			v0.8l-0.1,0.2h0.1v0.1v0.2c0,0.1,0,0.2,0.1,0.2v0.1h-0.1v0.1v0.1h-0.1v0.2v0.1v0.1v0.1v0.2v-0.2l0.1,0.1v0.1l-0.1-0.1H197
			c0,0.1,0,0.2-0.1,0.2v0.3l-0.1,0.2h0.1l-0.1,0.1v0.1v0.4l-0.1,0.7l-1-0.1l0.1-0.4h0v-0.1h0.1v-0.4l0.1-1.2l-0.1-0.1l0.1-0.1
			l0.1-0.4H196V124h-0.1v-0.1v0.1h-0.1v-0.1h0.2v-0.2l-0.1-0.1v-0.1c0-0.1,0.1-0.1,0.1-0.1h-0.1h-0.4 M195.1,126L195.1,126l0.1,0.1
			L195.1,126c0,0.1,0,0-0.1,0 M195.9,123.8h0.1v0.1L195.9,123.8h-0.1v-0.1l-0.1,0.2h-0.1c0-0.1,0-0.1-0.1-0.1v-0.1L195.9,123.8
			L195.9,123.8c0,0,0,0,0-0.2V123.8l0.1-0.1L195.9,123.8z M197,125.1L197,125.1L197,125.1z M197,126.2l0.1,0.1L197,126.2z
			 M197.2,125L197.2,125h-0.1H197.2z M197.1,126.2L197.1,126.2L197,126L197.1,126.2L197.1,126.2z M197.3,124.2h-0.1v-0.1
			L197.3,124.2L197.3,124.2z M197.2,124.3h-0.1v-0.1L197.2,124.3z M197.2,125.3L197.2,125.3L197.2,125.3L197.2,125.3L197.2,125.3z
			 M197.3,122.5l-0.1-0.1v-0.1L197.3,122.5L197.3,122.5z M197.3,124.7v0.2h-0.1L197.3,124.7L197.3,124.7z M199.5,125.6L199.5,125.6
			L199.5,125.6l-0.1,0.2l-0.1,0.5v0.1l-0.4-0.1h-0.1h-0.5l-1.1-0.1l0.1-0.4h-0.1v-0.1l0,0l0.1,0.1v-0.2v-0.2h0.1h0.3l0.2,0.1
			l0.1-0.1l0.1,0.1h0.1l0.2,0.1h0.1l0.1-0.6h-0.1h-0.4l-0.7-0.1l0.1-0.6v-0.2l0.4-0.1l0.1,0.1l0.1-0.1l0.6,0.1v-0.4h-0.1l0,0v-0.1
			v-0.1l-0.1,0.1h-0.1v-0.1h0.1v-0.2c0-0.1-0.1-0.1-0.1-0.1h0.1c0-0.1,0-0.2,0.1-0.2l0.1-0.8c0.3,0,0.7,0,1,0.1l-0.1,0.8l-0.1,0.1
			v0.1c0,0,0.1,0,0.1,0.1v0.2c0,0.1,0,0.2,0.1,0.2v0.1h-0.1v0.1v0.1l-0.1,0.2l0.1,0.1h-0.1v0.2c0,0,0.1,0,0.1,0.1h-0.1v0.2l0.1-0.1
			h0.1v0.1h-0.1c0,0.1,0,0.2-0.1,0.2v0.2l-0.1,0.2h0.1h-0.1L199.5,125.6C199.4,125.4,199.4,125.4,199.5,125.6L199.5,125.6z
			 M197.8,122.9L197.8,122.9 M198.4,123.8L198.4,123.8C198.5,123.8,198.5,123.8,198.4,123.8h0.1H198.4l0.1,0.1h0.1v0.1l-0.1-0.1
			v-0.1H198.4v0.3 M199,126.8h0.1c0-0.1,0-0.1,0.1-0.1l0.1,0.2c-0.1,0-0.1,0-0.1,0.1C199.1,126.9,199,126.9,199,126.8z M199.7,126.2
			h0.1v0.1L199.7,126.2L199.7,126.2L199.7,126.2z M199.7,126.2h0.1v0.1L199.7,126.2L199.7,126.2L199.7,126.2z M199.7,124.3
			L199.7,124.3l-0.1-0.1L199.7,124.3L199.7,124.3L199.7,124.3z M199.7,125.1l0.1-0.2h0.1v0.2H199.7z M199.7,126.1L199.7,126.1
			l0.1-0.1v0.1H199.7z M199.7,126.1L199.7,126.1l0.1-0.1v0.1H199.7z M199.8,125.2L199.8,125.2L199.8,125.2z M199.8,125.2
			L199.8,125.2L199.8,125.2z M199.8,124.9L199.8,124.9l0.1-0.2l0,0l-0.1-0.1h0.1l0,0l0.2,0.1v0.1l-0.1,0.1l0.1,0.1l-0.1-0.1H199.8z
			 M200,126.4L200,126.4L200,126.4h-0.1v-0.1v-0.1l0.1-0.1l-0.1,0.1v-0.1l0.1-0.1v-0.1h0.1l0.1-0.1c0,0.2,0,0.3,0.1,0.3v0.1
			L200,126.4L200,126.4z M199.8,124.7v0.2V124.7z M199.8,124.7v0.2V124.7z M199.8,125.9L199.8,125.9l0.1-0.1h0.1v0.1H199.8
			L199.8,125.9z M199.9,123.5L199.9,123.5L199.9,123.5L199.9,123.5z M199.9,124.7L199.9,124.7L199.9,124.7v-0.2v-0.1h0.1
			L199.9,124.7l0.1,0.1L199.9,124.7z M199.9,126.1L199.9,126.1L199.9,126.1L199.9,126.1L199.9,126.1z M200,123.1L200,123.1
			L200,123.1l0.1-0.1v-0.1H200l0.1-0.1h0.1v0.1L200,123.1L200,123.1L200,123.1z M200.1,124.9L200.1,124.9L200.1,124.9 M202.4,126.5
			h-0.1v0.1l-0.1-0.1h-0.1l-0.1,0.1v-0.1l-0.4,0.1l-0.1-0.1l-0.1,0.1l-0.1-0.1l-0.4-0.1c-0.5-0.1-0.7-0.4-0.8-1H200h-0.1v-0.1
			l0.1-0.1h-0.1c0-0.1,0-0.2,0.1-0.2l0.1-1l0.1-0.2l-0.1-0.2v-0.1h0.1h-0.1v-0.2l0.1,0.1v0.1l-0.1,0.1v0.1h0.1v-0.6l0.1-0.2
			c0-0.3,0.4-0.5,1-0.6l1.3,0.1l0.1,0.1l-0.1,1.5l-0.1,0.2v0.1v0.1v0.2v0.1l-0.1,0.2l0.1,0.2l-0.1,0.1l-0.1,0.2l0.1,0.1l-0.1,0.1
			v0.1l0.1,0.1l-0.1,0.3v0.1l0.1,0.1l-0.1,0.4L202.4,126.5z M200.2,123.3v-0.2h0.1v0.1L200.2,123.3L200.2,123.3L200.2,123.3z
			 M200.2,123.6L200.2,123.6l0.1-0.1v0.1v0.1L200.2,123.6z M200.3,122.9c-0.1,0-0.1-0.1-0.1-0.2l0.1-0.1c0,0.1,0.1,0.2,0.1,0.2
			L200.3,122.9L200.3,122.9z M200.5,126.4L200.5,126.4l0.1,0.1L200.5,126.4z M201.3,127l-0.1-0.1h0.1l0.1,0.2L201.3,127z M201.4,127
			l0.1-0.1h-0.1v-0.1h0.1c0,0.1,0,0.1,0.1,0.1l-0.1,0.1H201.4z M203.7,125.2l-0.1,0.2L203.7,125.2c0.1,0.2,0.3,0.3,0.6,0.4
			c0.6-0.1,0.9-0.5,1-1c0-0.4-0.1-0.7-0.4-1.1c-0.3,0-0.4-0.1-0.4-0.2c-0.3,0.1-0.6,0.2-0.7,0.3l0.1-0.9c0-0.1,0.2-0.2,0.7-0.3
			l0.4,0.1c0.8,0.4,1.2,1,1.2,1.8l-0.1,0.5c-0.3,1.1-0.9,1.6-1.8,1.5c-0.4,0-0.7-0.1-0.8-0.3L203.7,125.2l-0.2-0.1 M206.5,125.1
			L206.5,125.1L206.5,125.1L206.5,125.1z M206.6,126.8L206.6,126.8l0.1-0.1v0.1H206.6z M228.9,126.7h-0.1l-0.1,0.1v-0.1l-0.1,0.1
			l-0.1-0.1h-0.1l-0.1,0.1l-0.1-0.5v-0.5h1.1c0.1,0,0.3,0.2,0.4,0.6l-0.3,0.4L228.9,126.7z M230.5,126.6l-0.1,0.1v-0.1l-0.1,0.1
			l-0.5-0.1v-0.8h1.4l0.1,0.7v0.2L230.5,126.6L230.5,126.6z"/>
	</g>
</g>
<g class="st2">
	<g>
		<path d="M226.9,74.6l0.5-0.1l0.5,0.4l0.1,0.5l-0.6,0.8l-0.8-0.6v-0.5L226.9,74.6z M229.2,61.6l0.4-0.1c0.6,0,0.9,0.1,0.9,0.3v1
			l0.9,1.1v0.2c-0.1,1-0.4,1.6-1.1,1.7v-0.2l-0.1,0.2h-0.1c-0.4,0.1-1.1-0.5-1.9-1.5v-0.2C228.2,63,228.6,62.2,229.2,61.6z
			 M237.3,57.8l1.9,0.2l2.3-0.3c0.2,0,1.1,0.7,2.4,2.2c2.5-2.3,5.1-3.7,7.9-4.1c3.2,0.8,5,2.3,5.3,4.5c0.1,1-0.4,2.5-1.5,4.5
			l-2.3,0.3c-1.5-0.8-2.4-2.1-2.6-4.1l-0.8-0.4c-0.8,0.1-1.7,1.2-2.6,3.3l-0.7-0.2c-1.1,2.2-1.5,3.9-1.5,4.9l0.3,0.7l-0.4,2.1
			c0.5,2.2,1.2,3.3,2,3.2l2.3-0.6l2.1,0.2l0.2-0.3h0.2c1.1,0.2,1.7,0.6,1.8,1.2c-1.2,2.5-2.3,3.8-3.2,3.9l-1.7-0.3l-2.5,0.6
			l-2.1,0.1l-5.4,1.5l-0.5,0.1c-0.8-0.3-1.3-0.9-1.4-1.8l-0.1-0.8c-0.2-1.6,0.4-2.6,1.7-3l3.1,0.3l0.8-0.9v-0.2l-0.9-5.1l0.2-2
			l-0.5-3.7c-0.2-1.3-0.9-1.9-2.1-1.7l-0.9,0.1c-0.6,0.1-1.3,0.5-2.2,1.3l-0.7,0.1c-0.6-0.1-1.1-0.8-1.7-2c0.3-2.2,1.2-3.4,2.6-3.6
			l0.1,0.2L237.3,57.8z M234.6,63.7l0.5,0.4l0.1,0.5l-0.6,0.8c-0.3,0.1-0.6-0.4-0.9-1.4l0.2-0.3H234.6z M248.2,69.5l0.2,0.2l0.1,0.7
			h-0.2l-0.5-0.4L248.2,69.5z M250.4,69.9l0.5-0.1l0.5,0.4l-0.6,0.8l-0.3-0.2L250.4,69.9z M253.8,69.7c1.2,0,1.8,0.3,2,0.7
			c-0.1,0.8-0.3,1.3-0.5,1.3c-1-0.3-1.6-0.6-1.8-1l-0.1-0.5L253.8,69.7z M262.4,51l1.6-0.2l1.6,1.3c0,0.3-0.2,0.5-0.8,0.6
			c0.1,0.7-0.1,1-0.6,1.1l-1.3-0.5l-0.4,0.5l-0.8-0.4c0.1,0.7-0.1,1-0.5,1.1l-0.5,0.1l-0.8-0.6v-0.2C260.8,52,261.6,51.2,262.4,51z"
			/>
	</g>
</g>
<g>
	<g>
		<path class="st3" d="M206.4,83.1L207,83l0.7,0.6l0.1,0.6l-0.8,1l-1.1-0.8l-0.1-0.6L206.4,83.1z M209.4,66.7l0.6-0.1
			c0.8,0,1.1,0.1,1.2,0.4v1.3l1.1,1.3v0.2c-0.1,1.3-0.6,2-1.4,2.1v-0.2l-0.2,0.2h-0.2c-0.6,0.1-1.4-0.6-2.5-1.9v-0.2
			C208.1,68.5,208.6,67.4,209.4,66.7z M220.2,61.9l2.5,0.3l3-0.4c0.3-0.1,1.4,0.9,3.2,2.7c3.3-3,6.8-4.7,10.4-5.2
			c4.3,1,6.6,2.9,6.9,5.7c0.2,1.3-0.5,3.2-2,5.6l-3.1,0.4c-2-1-3.1-2.7-3.5-5.2l-1-0.5c-1.1,0.2-2.2,1.6-3.5,4.2l-0.9-0.2
			c-1.4,2.8-2.1,4.9-2,6.2l0.4,0.9L230,79c0.7,2.8,1.6,4.2,2.7,4l3-0.7l2.8,0.3l0.3-0.4h0.3c1.5,0.2,2.3,0.8,2.4,1.5
			c-1.6,3.2-3.1,4.8-4.3,5l-2.2-0.3l-3.3,0.8l-2.7,0.1l-7.2,1.9l-0.6,0.1c-1.1-0.4-1.7-1.1-1.9-2.2l-0.1-1c-0.3-2,0.5-3.2,2.3-3.8
			l4.1,0.4l1.1-1.1v-0.3l-1.2-6.4l0.3-2.6l-0.6-4.6c-0.2-1.7-1.1-2.4-2.7-2.2l-1.2,0.2c-0.7,0.1-1.7,0.7-2.9,1.7l-0.9,0.1
			c-0.7-0.2-1.5-1-2.2-2.5c0.4-2.8,1.6-4.3,3.4-4.6l0.1,0.3L220.2,61.9z M216.5,69.3l0.7,0.5l0.1,0.6l-0.8,1.1
			c-0.4,0.1-0.8-0.5-1.1-1.7l0.2-0.4L216.5,69.3z M234.5,76.6l0.3,0.3l0.1,0.9h-0.3l-0.7-0.5L234.5,76.6z M237.4,77.1L238,77
			l0.7,0.6l-0.8,1l-0.4-0.2L237.4,77.1z M242,76.8c1.6,0,2.4,0.3,2.6,0.9c-0.1,1.1-0.3,1.6-0.7,1.7c-1.4-0.4-2.1-0.8-2.3-1.3
			l-0.1-0.6L242,76.8z M244.9,91.8l-0.1-0.6l0.8-1.1 M253.4,53.2l2.1-0.3l2.1,1.6c0.1,0.4-0.3,0.7-1.1,0.8c0.1,0.8-0.2,1.3-0.8,1.3
			l-1.7-0.7l-0.5,0.7l-1-0.5c0.1,0.8-0.1,1.3-0.7,1.4l-0.6,0.1l-1.1-0.8v-0.3C251.3,54.4,252.4,53.3,253.4,53.2z"/>
	</g>
</g>
<g class="st4">
	<g>
		<path class="st5" d="M219.3,119.1C219.8,118.7,218.9,119.5,219.3,119.1c-0.7-0.5-1.4-0.9-2.3-1.4c1.3-0.3,2.4-0.8,3-1.9
			c0.4-0.7,0.5-1.2-0.2-1.8c-0.4-0.4-0.6-0.5-1.2-0.3c-2.5,0.6-4.5-0.2-5.8-2.4c1.3,0.1,2.4-0.2,3.2-1.1c0.4-0.4,0.8-0.8,0.5-1.4
			s-0.6-0.9-1.4-0.9c-2.4,0-4-1.3-4.7-3.9c1.3,0.5,2.5,0.4,3.7-0.4c0.6-0.4,0.6-0.9,0.5-1.4c-0.1-0.5-0.3-0.8-0.9-0.9
			c-2.4-0.6-3.7-2.4-3.6-5.1c1.1,0.9,2.4,1,3.7,0.5c0.6-0.2,0.7-0.7,0.8-1.3c0.1-0.5,0-0.8-0.5-1.1c-2.2-1.3-2.9-3.2-2.2-5.8
			c0.2,0.2,0.4,0.3,0.6,0.5c0.7,0.7,1.6,0.9,2.6,0.9c0.6-0.1,1-0.1,1.3-0.8c0.2-0.6,0.3-1-0.2-1.6c-1.7-1.6-1.7-4-0.3-6.2
			c0.5,1.3,1.5,2,2.9,2.2c0.7,0.1,1-0.3,1.3-0.8c0.2-0.3,0.2-0.8,0.2-1.1c-1.1-2.4-0.8-4.2,1.3-6.3c0.2,1.2,0.6,2.2,1.8,2.7
			c0.5,0.2,0.9,0.5,1.6,0c0.6-0.5,0.8-0.9,0.6-1.6c-0.5-2.3,0.5-4.2,2.6-5.5c0.4,0.9,0.6,1.9,1.1,2.7c0.4,0.7,1.2,1,2,0.4
			c0.3-0.2,0.6-0.6,0.6-0.9c0.2-2.5,1.7-4.3,4.3-5c-0.6,1.3-0.5,2.5,0.3,3.6c0.4,0.5,0.9,0.4,1.4,0.3s0.8-0.2,0.9-0.8
			c0.8-2.4,2.6-3.7,5.4-3.8c-0.1,0.2-0.2,0.4-0.3,0.5c-0.7,1-0.6,2-0.3,3.1c0.2,0.6,0.7,0.6,1.3,0.7c0.6,0.1,0.8-0.1,1.1-0.5
			c1.5-2.2,3.7-3.1,6.2-2.4c-1.2,0.9-1.8,2.1-1.5,3.4c0.1,0.4,0.6,0.7,1,0.9c0.2,0.1,0.8,0,1-0.2c2.1-1.8,4.1-2,6.3-1
			c-0.6,0.9-1.4,1.6-1.9,2.6c-0.6,1-0.2,1.6,0.8,2c0.2,0.1,0.3-0.5,0.6-0.7c0.7-0.4,2.1-2.4,2.9-3.6c0.8-1.3,1-0.8,1.6-0.3
			c0.3,0.3,1.3,1.3,2,2c0.3-0.3-0.3,1-0.9,1.8c-0.8,0.7-0.9,1-1,1.1c-14.8,14.9-28.7,28.9-43.5,43.8
			C219.1,120.5,220,120.1,219.3,119.1z M257,80.9c-4.1-5-14.2-7.1-21.9-4.5c-8.9,3-15.4,10.7-16.2,19.7c-0.6,6.7,1.5,12.3,6.2,16.8
			c1.9-1.9,3.6-3.6,5.3-5.3c-6.3-6.3-4.7-15.4,0.3-20.3c2.5-2.5,5.6-4.2,9.1-4.6c4.6-0.6,8.5,0.6,11.9,3.4
			C253.5,84.4,255.3,82.7,257,80.9z M247.8,90.2c-2.6-2.2-5.7-2.9-9-1.8c-3.7,1.2-6.1,3.8-6.8,7.5c-0.6,3,0.2,5.6,2.4,7.7
			C238.9,99.1,243.3,94.7,247.8,90.2z"/>
	</g>
</g>
<g class="st6">
	<g>
		<path class="st5" d="M264.3,75.7C263.8,76.1,264.7,75.3,264.3,75.7c0.7,0.5,1.4,0.9,2.3,1.4c-1.3,0.3-2.3,0.8-3,1.9
			c-0.4,0.7-0.5,1.2,0.2,1.8c0.4,0.4,0.6,0.5,1.2,0.3c2.5-0.6,4.5,0.2,5.8,2.5c-1.3-0.1-2.3,0.2-3.2,1.1c-0.4,0.4-0.8,0.8-0.5,1.4
			s0.5,1,1.4,1c2.3,0,4,1.3,4.7,4c-1.3-0.5-2.5-0.4-3.7,0.4c-0.6,0.4-0.5,0.9-0.5,1.4c0.1,0.6,0.3,0.8,0.9,1
			c2.3,0.6,3.7,2.5,3.6,5.2c-1.1-0.9-2.3-1-3.7-0.5c-0.6,0.2-0.7,0.7-0.8,1.3c-0.1,0.5,0,0.8,0.5,1.1c2.2,1.3,2.9,3.3,2.2,5.9
			c-0.2-0.2-0.4-0.3-0.5-0.5c-0.7-0.7-1.6-1-2.6-0.9c-0.5,0.1-1,0.1-1.3,0.8c-0.2,0.6-0.3,1,0.2,1.6c1.6,1.7,1.7,4,0.3,6.3
			c-0.5-1.3-1.5-2.1-2.9-2.2c-0.7-0.1-1,0.3-1.3,0.8c-0.2,0.3-0.2,0.8-0.2,1.1c1.1,2.4,0.8,4.3-1.3,6.4c-0.2-1.2-0.6-2.2-1.8-2.8
			c-0.5-0.2-0.9-0.5-1.6,0c-0.5,0.5-0.8,0.9-0.6,1.6c0.5,2.3-0.5,4.2-2.6,5.6c-0.4-0.9-0.6-1.9-1.1-2.8c-0.4-0.7-1.2-1-2-0.4
			c-0.3,0.2-0.5,0.6-0.6,1c-0.2,2.5-1.7,4.4-4.3,5.1c0.5-1.3,0.5-2.5-0.3-3.6c-0.4-0.6-0.9-0.4-1.4-0.3c-0.5,0.1-0.8,0.2-0.9,0.8
			c-0.8,2.5-2.6,3.7-5.3,3.9c0.1-0.2,0.2-0.4,0.3-0.6c0.7-1,0.6-2.1,0.3-3.1c-0.2-0.6-0.7-0.6-1.3-0.7c-0.5-0.1-0.8,0.1-1.1,0.6
			c-1.5,2.2-3.7,3.1-6.2,2.5c1.2-1,1.8-2.1,1.5-3.5c-0.1-0.4-0.6-0.7-1-0.9c-0.2-0.1-0.8,0-1,0.2c-2.1,1.8-4.1,2.1-6.3,1
			c0.6-0.9,1.4-1.7,1.9-2.6c0.5-1,0.2-1.6-0.8-2c-0.2-0.1-0.3,0.6-0.5,0.7c-0.7,0.4-2.1,2.4-2.9,3.6c-0.8,1.3-1,0.8-1.6,0.3
			c-0.3-0.3-1.3-1.3-2-2c-0.3,0.3,0.3-1,0.9-1.8c0.8-0.7,0.9-1,1-1.1c14.7-15.1,28.5-29.3,43.2-44.3
			C264.5,74.3,263.6,74.7,264.3,75.7z M226.9,114.4c4.1,5.1,14.1,7.1,21.8,4.5c8.8-3,15.3-10.9,16.1-19.9c0.6-6.7-1.5-12.5-6.2-17.1
			c-1.9,1.9-3.6,3.6-5.2,5.4c6.3,6.3,4.6,15.5-0.3,20.5c-2.5,2.5-5.6,4.2-9.1,4.7c-4.5,0.6-8.4-0.6-11.8-3.5
			C230.3,110.9,228.6,112.6,226.9,114.4z M236,105c2.6,2.2,5.6,2.9,8.9,1.8c3.7-1.2,6-3.8,6.7-7.6c0.5-3-0.2-5.6-2.4-7.8
			C244.9,95.9,240.5,100.4,236,105z"/>
	</g>
</g>
</svg>
