<?xml version="1.0" encoding="utf-8"?>
<!-- Generator: Adobe Illustrator 24.3.0, SVG Export Plug-In . SVG Version: 6.00 Build 0)  -->
<svg version="1.1" id="Layer_1" xmlns="http://www.w3.org/2000/svg" xmlns:xlink="http://www.w3.org/1999/xlink" x="0px" y="0px"
	 viewBox="0 0 300 200" style="enable-background:new 0 0 300 200;" xml:space="preserve">
<style type="text/css">
	.st0{fill:#FFFFFF;stroke:#000000;stroke-width:4;stroke-miterlimit:10;}
	.st1{opacity:0.49;}
	.st2{opacity:0.24;}
</style>
<path class="st0" d="M273.97,182.63H21.73c-6.45,0-11.68-5.23-11.68-11.68V19.57c0-6.45,5.23-11.68,11.68-11.68h252.23
	c6.45,0,11.68,5.23,11.68,11.68v151.38C285.65,177.4,280.42,182.63,273.97,182.63z"/>
<g class="st1">
	<path d="M210.15,67.05l0.65-0.11l0.77,0.78l0.11,0.84l-0.84,1.4l-1.16-1.12l-0.07-0.84L210.15,67.05z M213.11,44.72l0.62-0.1
		c0.82-0.03,1.25,0.17,1.3,0.6l0.01,1.81l1.25,1.86l0.01,0.28c-0.1,1.75-0.59,2.7-1.49,2.84l-0.01-0.28l-0.18,0.28l-0.21,0.05
		c-0.61,0.08-1.52-0.82-2.74-2.7l-0.05-0.28C211.79,47.2,212.29,45.74,213.11,44.72z M224.77,38.42l2.77,0.45l3.28-0.49
		c0.36-0.05,1.53,1.2,3.49,3.77c3.5-3.99,7.25-6.28,11.26-6.87c4.67,1.48,7.22,4.1,7.67,7.86c0.23,1.77-0.47,4.31-2.09,7.62
		l-3.31,0.49c-2.18-1.37-3.47-3.74-3.88-7.12l-1.09-0.7c-1.19,0.18-2.42,2.09-3.69,5.71l-1.02-0.28c-1.46,3.82-2.13,6.64-2.02,8.47
		l0.47,1.23l-0.55,3.53c0.81,3.86,1.81,5.7,3,5.51l3.24-0.91l3.06,0.42l0.29-0.5l0.33-0.03c1.61,0.36,2.48,1.07,2.61,2.16
		c-1.71,4.26-3.23,6.51-4.56,6.72l-2.41-0.53l-3.6,0.99l-2.98,0.03l-7.8,2.47l-0.65,0.11c-1.19-0.55-1.88-1.58-2.07-3.1l-0.15-1.3
		c-0.32-2.7,0.49-4.39,2.42-5.07l4.44,0.62l1.17-1.47l-0.04-0.42l-1.4-8.81l0.26-3.46l-0.79-6.32c-0.26-2.27-1.27-3.27-3.02-3.02
		l-1.34,0.22c-0.8,0.13-1.83,0.86-3.1,2.21l-0.99,0.14c-0.81-0.22-1.62-1.39-2.43-3.49c0.39-3.79,1.6-5.84,3.62-6.12l0.07,0.41
		L224.77,38.42z M220.9,48.53l0.76,0.73l0.11,0.83l-0.84,1.44c-0.44,0.07-0.86-0.72-1.27-2.38l0.25-0.49L220.9,48.53z M240.68,58.79
		l0.37,0.39l0.18,1.25l-0.33,0.03l-0.76-0.73L240.68,58.79z M243.81,59.58l0.65-0.11l0.77,0.78l-0.84,1.4L244,61.31L243.81,59.58z
		 M248.8,59.26c1.68,0.08,2.63,0.51,2.84,1.29c-0.1,1.46-0.34,2.22-0.73,2.28c-1.49-0.54-2.34-1.14-2.55-1.79l-0.11-0.84
		L248.8,59.26z M253.02,77.5l1.53,1.5l-1.14,1.85l-1.12-1.08l-0.11-0.83L253.02,77.5z M260.77,27.38l2.29-0.35l2.29,2.23
		c0.07,0.56-0.33,0.91-1.2,1.05c0.12,1.12-0.15,1.73-0.81,1.82l-1.82-1.01l-0.55,0.94l-1.09-0.7c0.14,1.12-0.11,1.74-0.76,1.86
		l-0.65,0.11l-1.16-1.11l-0.04-0.42C258.49,29.02,259.65,27.55,260.77,27.38z M259.15,72.71l0.37-0.04l1.49,1.47l-1.1,1.89
		l-1.16-1.12l-0.14-1.26L259.15,72.71z M268.23,66.64l0.4,0.39l0.32-0.08l0.03,3.01l0.04,0.42l0.83,1.14l-0.84,1.44l-1.16-1.11
		l0.51-1.36l-0.14-1.26l-0.8-1.2L268.23,66.64z M269.98,67.66l0.76,0.73l0.07,0.41l-0.58,0.95l-0.76-0.73l-0.04-0.47L269.98,67.66z"
		/>
</g>
<g>
	<path d="M174.87,83.15l0.98-0.13l1.1,1.08l0.11,1.14l-1.33,1.89l-1.67-1.55L174,84.43L174.87,83.15z M180.47,52.66l0.92-0.12
		c1.21-0.03,1.85,0.25,1.9,0.85l-0.08,2.48l1.76,2.57l0,0.39c-0.24,2.39-1.03,3.67-2.37,3.86l0-0.39l-0.28,0.38l-0.32,0.07
		c-0.91,0.1-2.22-1.15-3.93-3.75l-0.06-0.38C178.37,56.03,179.19,54.04,180.47,52.66z M191.84,58.02l1.09,1.01l0.11,1.15l-1.32,1.96
		c-0.65,0.09-1.24-1.01-1.76-3.28l0.4-0.67L191.84,58.02z M198.13,44.28l4.09,0.67l4.9-0.6c0.54-0.07,2.2,1.68,4.98,5.23
		c5.42-5.38,11.12-8.44,17.11-9.18c6.85,2.12,10.51,5.76,10.97,10.9c0.25,2.42-0.93,5.88-3.51,10.39l-4.95,0.61
		c-3.16-1.91-4.96-5.19-5.38-9.82l-1.59-0.98c-1.78,0.23-3.71,2.81-5.79,7.73l-1.5-0.41c-2.38,5.2-3.53,9.05-3.45,11.54l0.64,1.69
		l-1.01,4.82c1,5.3,2.39,7.83,4.17,7.6l4.87-1.18l4.53,0.64l0.46-0.68l0.49-0.04c2.37,0.52,3.62,1.52,3.77,3.01
		c-2.77,5.8-5.15,8.83-7.14,9.11l-3.55-0.78l-5.41,1.29l-4.44-0.01l-11.72,3.21l-0.98,0.13c-1.74-0.77-2.71-2.2-2.9-4.28l-0.15-1.79
		c-0.32-3.7,0.96-6,3.86-6.89l6.57,0.94l1.81-1.99l-0.03-0.58l-1.61-12.08l0.58-4.73l-0.83-8.66c-0.27-3.1-1.72-4.5-4.33-4.19
		l-2.01,0.28c-1.2,0.16-2.77,1.14-4.72,2.97l-1.47,0.17c-1.19-0.32-2.34-1.93-3.43-4.83c0.79-5.18,2.69-7.95,5.71-8.3l0.08,0.57
		L198.13,44.28z M220.68,72.45l0.52,0.54l0.2,1.71l-0.49,0.04l-1.09-1.01L220.68,72.45z M225.29,73.6l0.98-0.13l1.1,1.08l-1.33,1.89
		l-0.57-0.47L225.29,73.6z M232.72,73.27c2.5,0.15,3.88,0.75,4.15,1.82c-0.22,1.99-0.63,3.03-1.21,3.1c-2.18-0.77-3.41-1.6-3.69-2.5
		l-0.11-1.15L232.72,73.27z M238.02,98.3l2.19,2.09l-1.79,2.5l-1.61-1.49l-0.11-1.15L238.02,98.3z M247.38,91.87l0.55-0.05
		l2.13,2.04l-1.73,2.56l-1.67-1.55l-0.14-1.73L247.38,91.87z M252.22,29.9l3.43-0.43l3.28,3.1c0.08,0.77-0.54,1.24-1.84,1.41
		c0.12,1.54-0.32,2.36-1.3,2.47l-2.65-1.41l-0.86,1.28l-1.59-0.98c0.15,1.53-0.26,2.37-1.24,2.52l-0.98,0.13l-1.67-1.55l-0.03-0.58
		C248.73,32.1,250.55,30.11,252.22,29.9z M261.2,83.74l0.58,0.53l0.48-0.1l-0.11,4.11l0.03,0.58l1.18,1.58l-1.32,1.96l-1.67-1.55
		l0.84-1.86l-0.14-1.73l-1.13-1.66L261.2,83.74z M263.74,85.18l1.09,1.01l0.08,0.57L264,88.05l-1.09-1.01l-0.04-0.64L263.74,85.18z"
		/>
</g>
<g>
	<path d="M92.25,41.91c1.06,0,1.58,0.26,1.58,0.77h0.22c0-0.51,0.13-0.77,0.38-0.77h0.22v0.51c0.36,0.94,1,6.49,1.91,16.64
		l-0.22,0.26l0.22,0.26v0.77l-0.22,0.26l0.44,0.51v0.77l-0.22,1.34h0.38l0.22-0.26v0.77c0,2.6,0.2,4.42,0.6,5.44v0.26l-0.16,0.26
		l0.55,3.65h-0.38v0.51h0.38v1.54l0.22,0.83c0.18,3.63,0.44,5.44,0.76,5.44l-0.16,0.77l0.16,1.54l-0.16,1.02l0.38,0.83l-0.22,0.77
		l0.6,2.82h-0.22l0.38,3.14l-0.16,0.26l0.38,1.6l-0.22,0.77l0.6,2.3l-0.22,0.77v0.26l0.22,0.26v0.32l-0.22,0.26
		c0.22,0,0.49,1.37,0.82,4.1v0.32l-0.16,0.26l0.76,5.18l-0.38,1.02v0.26h0.22l0.16-0.26v1.54l-0.16,1.86h0.16l0.22,0.77l0.16,0.26
		h0.22v-0.26l-0.22-0.26l0.38-1.6v-0.26h-0.16l-0.22,0.26l0.38-3.58h0.22l0.16,0.26h0.22v-0.51c-0.4,0-0.6-0.28-0.6-0.83l0.6-5.44
		v-2.05h0.38l-0.16-0.26l0.38-3.39l-0.22-0.77l0.38-1.28h-0.16l0.82-6.02l0.16,0.26l0.38-0.51l-0.76-0.26
		c0.18-0.38,0.38-1.6,0.6-3.65h-0.22l1.75-15.81h-0.16l0.76-7.3h-0.22l1.64-13.5c0-3.97,0.38-5.95,1.15-5.95l0.6,0.26l0.93-0.26
		l0.27,0.26v-0.26l0.16,0.26l0.22-0.26l1.37,0.26h0.93l0.22-0.26l0.22,0.26h0.44l0.16-0.26v0.26l0.76-0.26l2.4,0.26l0.98-0.26
		l0.16,0.26v-0.26l0.76,0.26h0.22l0.16-0.26l0.6,0.26v-0.26c1.06,0,1.58,0.7,1.58,2.11v0.26l-0.16,0.26l0.16,1.54l-0.16,2.88
		l0.16,3.58v1.09l-0.16,0.26l0.38,1.54h-0.38l0.38,1.54l-0.22,0.26v1.86l0.22,1.28l-0.22,0.77v1.34l0.22,0.26l-0.38,1.02l0.38,1.02
		v0.26l-0.22,0.26v0.26l0.22,0.26l-0.22,1.09l0.22,1.02l-0.22,1.02v2.88l0.22,0.26h-0.22l0.22,0.77v0.26l-0.22,0.26l0.22,0.77
		l-0.22,1.54l0.22,2.37l-0.22,1.28l0.38,1.86l-0.38,2.3l0.22,1.28v0.26l-0.22,0.32v0.26l0.22,0.26l-0.22,2.05l0.22,1.02v0.26
		l-0.22,0.26h0.22l-0.22,1.34l0.22,2.82v0.26l-0.22,1.34h0.38l-0.38,2.05l0.22,1.02l-0.22,1.09l0.38,4.67l-0.16,1.28l0.16,1.02
		l-0.16,1.02v0.51l0.16,2.88l-0.16,0.77l0.38,1.34c-0.25,0-0.38,0.43-0.38,1.28v3.07l-0.22,0.32l0.38,2.3l-0.16,1.28v1.34l0.16,0.26
		h-0.16l0.16,0.26v0.26l-0.16,0.26v8.32l0.16,1.28l-0.16,0.77v7.3l-0.22,0.26l0.38,1.02l-0.16,1.54l0.16,1.09l-0.16,1.02v0.77
		l0.16,0.26h-0.16l0.16,2.37l-0.55,2.3l-1.04-0.32h-0.16l-0.22,0.32l-0.16-0.32h-2.57l-0.98,0.32l-0.22-0.77h-0.38v0.45h-2.95
		l-0.22-0.96v-0.26l0.22-0.26v-0.26l-0.22-0.26l0.22-0.83l-0.22-5.44v-2.56l0.22-1.86l-0.22-1.02v-0.77h0.22v0.51h0.16l0.44-0.51
		c-0.4,0-0.6-0.17-0.6-0.51h-0.38v-0.26l0.16-0.26v-0.83l-0.16-1.54l0.16-1.28v-1.34l-0.16-0.26h0.16l-0.16-1.02v-0.26l0.16-0.26
		l-0.16-1.28l0.16-0.77v-0.26l-0.16-0.26l0.16-1.09v-1.79l-0.16-1.54l0.16-1.34v-0.26l-0.16-1.28l0.55-0.26v-0.26h-0.38v-1.02
		l-0.16-1.34l0.16-0.77v-0.26l-0.16-0.26h0.16l-0.16-1.28l0.16-0.77h-0.16l0.38-2.88c-0.25,0-0.38-0.6-0.38-1.79v-1.86l0.16-0.26
		h-0.16l0.16-2.56l-0.16-1.34l0.16-0.26l-0.16-1.54v-1.86l-0.22-0.26l0.22-0.26v-3.07l-0.22-1.34l0.22-0.77v-2.56l0.16-0.26
		l-0.16-0.26l0.16-1.09v-0.26l-0.16-0.26l0.16-0.77l-0.38-0.51l0.22-1.79v-0.58l-0.22-0.26l0.22-0.26v-3.33h-0.22l-0.16,1.02h-0.22
		l0.22,0.77v0.26l-0.22,0.26l0.38,1.28h-0.16l-0.22,0.26l0.22,1.34h-0.38v1.54l-0.22,1.28l0.22,0.26l-0.38,1.34
		c-0.15,3.8-0.57,7.6-1.26,11.39l0.27,0.26l-0.44,3.39l0.16,1.02c-0.18,0-0.57,3.54-1.15,10.62h-0.38l-0.22-0.26v0.58l0.6,0.26
		l-0.98,8.51l0.22,0.32l-0.6,2.05v0.26l0.22,0.26v0.26l-0.22,0.26l0.22,0.77c-0.25,0-0.38,1.3-0.38,3.9v0.26l-0.38,0.51l0.16,0.83
		l-0.38,1.02v0.26l0.22,0.26v0.26h-0.44l0.22,1.02c-0.29,1.07-0.44,2.62-0.44,4.67c0,0.51-0.13,0.77-0.38,0.77l0.16,0.83l-0.55,5.7
		l0.16,0.26h-0.16v0.45h-0.76l-0.22-0.26l-0.22,0.26h-0.16l-0.22-0.26l-0.16,0.26h-2.57l-0.22,0.32c0-0.38-0.47-0.58-1.42-0.58
		l-0.55,0.26c-0.25-0.26-0.38-0.66-0.38-1.22h-0.22v1.22h-0.38l-0.16-0.26l-1.2-8c0.4,0,0.6-0.17,0.6-0.51v-1.02
		c-0.55,0-1.02-1.64-1.42-4.93h0.22l-0.38-2.88l0.6-0.77v-0.51l-0.22-0.26l-0.22,0.26h-0.16l-0.22-0.26l0.22-0.26l-0.44-1.6
		c0.25,0,0.4-0.43,0.44-1.28h-0.44v-0.26l0.22-1.79c-0.44,0-0.82-2.52-1.15-7.55l0.16-0.26h-0.16c-0.15-3.46-0.35-5.18-0.6-5.18
		c0-3.11-0.25-4.67-0.76-4.67l0.16-0.77l-0.6-5.25v-0.26l0.22-0.26l-0.6-3.84v-0.32l0.16-0.26l-0.38-1.02v-0.26l0.22-0.26
		l-0.22-1.02v-0.51h0.38v-0.26c-0.51,0-0.76-0.79-0.76-2.37l0.22-0.26l-0.38-0.77v-0.26h0.38v-0.26l-0.6-1.86h0.22
		c-0.07-0.68-0.27-1.02-0.6-1.02v-0.26h0.38l-0.22-1.02v-0.26l0.22-0.26l-0.38-2.62h0.16l-0.38-1.02l0.22-1.79h-0.38l-0.22,0.26
		v-0.51H91.1l-0.38,0.51v0.77l0.16,0.26l-0.16,0.26v0.26l0.38,0.77v2.88l-0.22,0.26l0.22,0.26v1.79l-0.38,0.77h0.38v0.83l-0.22,0.26
		L91.1,91v2.82l-0.22,0.26h0.22c0,0.38-0.27,0.58-0.82,0.58v0.51l0.22-0.26l0.6,0.26v0.26l-0.6,1.28c0.4,0,0.6,0.17,0.6,0.51v0.51
		l-0.22,0.26l0.22,0.26v0.51l-0.22,0.32l0.22,0.26h-0.38v0.51h0.38v2.3l-0.38,0.51l0.38,0.51l-0.22,0.26l0.38,1.86l-0.16,1.02v2.37
		l0.16,1.28l-0.16,0.77v1.54l0.16,0.26H91.1l0.16,0.83l-0.16,0.77v0.26l0.16,0.26v0.26h-0.38l0.22,1.79v2.11h-0.38v1.02h0.38
		l-0.22,0.26l0.22,2.62v0.26l-0.22,0.26h0.22l-0.22,1.28v0.26l0.22,1.28l-0.38,0.83v0.26h0.38v7.23l-0.22,0.26l0.22,0.26v2.88h-0.22
		l-0.16-0.26H90.5v0.77h0.6v1.02l-0.38,0.51l0.55,3.14l-0.16,1.02v2.11l0.16,0.26H91.1l0.16,0.26l-0.38,1.54v0.26l0.22,0.26
		l-0.22,1.86l0.22,0.7l-1.42,0.26h-0.22l-0.16-0.26v-0.19l0.16-0.26v-0.51h-0.38l-0.38,1.22l-2.35-0.26l-1.2,0.58v-0.32l-0.16-0.26
		l-0.76,0.26l-0.82-0.26l-0.82,0.26h-0.93l-0.22-0.7h0.22c0-0.51-0.2-0.77-0.6-0.77v-0.26l0.22-0.26v-4.74l0.16-1.28l-0.38-2.05
		h0.22l0.16-0.26l-0.16-0.77l0.16-0.83l-0.16-1.02v-0.77l0.16-0.26c0.4,0,0.6-0.26,0.6-0.77v-0.26c-0.4,0-0.6,0.34-0.6,1.02h-0.38
		c0-1.41,0.33-2.11,0.98-2.11v-0.51h-0.38v-0.26l0.16-0.26v-0.26h-0.38l-0.16,0.26l0.16-2.05l-0.16-2.11v-1.54h0.38l-0.38-0.77
		l0.16-1.02l-0.16-1.09v-0.51l0.16-0.26l-0.16-0.26v-1.79l-0.22-1.34l0.22-1.02h0.38l-0.6-5.44l0.22-1.02v-4.16l0.16-0.26
		l-0.16-0.26v-4.67l0.16-1.34l-0.16-0.77v-0.26l0.16-1.02l-0.38-1.79l0.22-0.26v-1.86l-0.22-0.26h0.22l0.16-0.26V96.7l-0.16-0.26
		v-1.79l0.16-4.99l-0.38-1.02v-0.26l0.22-0.26l-0.22-0.26h0.38c0,0.51,0.13,0.77,0.38,0.77v-0.26l-0.55-1.02v-3.14h0.38
		c0-0.51,0.31-1.37,0.93-2.56h-0.16c-0.4,0-0.6,0.34-0.6,1.02h-0.38l-0.16-2.62v-1.28c0-1.24,0.13-2.2,0.38-2.88h-0.38v-1.02
		l0.93,0.26v-0.51l-0.16,0.26l-0.98-0.51l0.6-1.79v-0.51h-0.22l-0.16-0.83l0.16-0.26l-0.38-1.79h0.76v-0.26
		c0-0.34-0.18-0.51-0.55-0.51v-4.67h0.55v-0.51l-0.16-0.26h-0.22l-0.16,0.26v-2.37l-0.22-2.82l0.22-0.83l-0.22-0.77v-0.26h0.22v0.51
		h0.16v-0.77h-0.38l0.22-1.28v-0.51l-0.22-0.26h0.22l-0.22-0.77v-0.32l0.22-0.26v-0.26l-0.22-0.26c0.29-1.54,0.67-2.3,1.15-2.3
		v-1.34l-0.55-0.26c-0.04,0.9-0.24,1.34-0.6,1.34l0.22-2.62l-0.22-1.02h0.22V45.3l0.16,0.26l0.38-0.51h-0.55v-0.77l-0.22-1.86
		L84,41.91l0.76,0.26l0.22-0.26v0.26l1.15-0.51l0.6,0.26c0.29,0,0.44,0.34,0.44,1.02h0.38v-0.77l-0.22-0.26l0.6,0.26h0.22l0.16-0.26
		l0.98,0.26l0.16-0.26v0.26h0.22l0.22-0.26h2.13l0.22-0.26V41.91z"/>
	<path d="M140.1,41.08l0.22,0.26l0.22-0.06l0.16-0.26h0.6v0.26l1.26-0.26l7.87,0.13l0.05,0.32v0.26c0,6.23,0.25,12.1,0.76,17.6
		l0.22,2.11v4.35v0.26l-0.22,0.26v0.26l0.38,0.51v1.28l-0.11,0.26l0.16,0.7l0.33,5.06l-0.6,0.83v0.77h0.16v-1.02l0.22-0.06
		c0.36,0,0.67,2.47,0.93,7.42l0.22,0.77h-0.16c0.4,6.1,0.62,10.35,0.66,12.74l-0.22,0.26l0.27,0.26v0.7l0.49,4.8l-0.22,0.26v0.26
		l1.42,11.97l-0.16,1.02l0.71,7.62l-0.16,0.26l0.16,0.26h0.22l-0.16,2.3l1.75,24.26c0,0.77-0.29,1.28-0.87,1.54l-0.82-0.26
		l-0.16,0.26h-0.22l-0.82-0.19l-0.82,0.26l-0.71-0.26l-0.16,0.06l-2.89-0.38h-0.16l-0.76-0.26l0.33,0.26l-0.6,0.06l-0.6-11.26
		l-0.44-2.88l-3-0.06l-1.97,0.06l-0.82-0.38l-0.82,0.38c-0.04,1.45-0.16,2.18-0.38,2.18l0.22,0.26l-0.33,11.52l-0.16,0.26l-4.7,0.06
		l-0.27,0.32l-0.82-0.26l-2.62,0.32l-0.38-0.77c0.15-9.34,0.49-14.02,1.04-14.02l-0.22-0.26v-0.51c1.2-14.68,1.93-22.42,2.18-23.23
		l-0.22-1.28l0.22-0.26h0.16l-0.22-1.28c-0.04-4.48,0.15-7.02,0.55-7.62l-0.22-0.26c0.15-1.88,0.35-2.84,0.6-2.88l-0.27-0.7
		c0-0.85,0.13-1.3,0.38-1.34l-0.16-0.26c0.07-2.35,0.24-3.52,0.49-3.52l-0.22-0.26v-0.26c0.22-3.58,0.53-5.55,0.93-5.89l-0.38-0.51
		c0.58-3.54,1.06-5.31,1.42-5.31l-0.76-1.28v-2.05l0.38-0.58l-0.22-0.19l-0.05-0.26l0.93-6.91l-0.22-0.26v-0.26
		c0.95-18.39,1.57-27.76,1.86-28.1l0.22-0.26H140.1z M138.24,99.64l0.05,0.26l0.82,0.19l-0.05-0.51L138.24,99.64z M138.95,138.94
		v1.02l0.22-0.06l0.16-1.02L138.95,138.94z M140.21,95.48l-0.11,1.79h0.38l-0.05-1.79H140.21z M142.12,104.12v0.51h0.22l0.38-1.28
		v-0.26L142.12,104.12z M144.74,84.47c-0.04,3.24-0.2,4.86-0.49,4.86l0.22,0.19v0.19c-0.29,11.05-0.62,16.58-0.98,16.58l0.33,0.51
		l-0.27,0.45v2.18l-0.66,1.09l0.16,0.26v0.26l-0.16,0.64l0.16,0.19h0.22l-0.82,12.16l0.16,0.19l-0.05,0.32l0.22,0.19l4.21,0.06
		l-0.11-0.26h0.16l-0.49-7.49h0.11l-0.11-0.26v-1.09l0.11-0.19v-0.26c-0.22,0-0.38-0.73-0.49-2.18l0.27-1.09l-0.38-9.22l0.16-0.06
		l-0.16-0.26v-0.19l0.16-0.19l-0.82-7.68l0.16-0.06l-0.16-0.64l-0.27-5.06h0.16l-0.16-0.19l-0.11-3.52L144.74,84.47z M142.83,93.11
		l-0.22,0.77l0.05,0.26h0.16l0.16-0.77v-0.26H142.83z M142.72,42.87l0.05,0.77h0.38l-0.05-0.26L142.72,42.87z M142.94,66.43
		l-0.16,1.09l0.16,0.19h0.22v-1.28H142.94z M144.3,43.13l0.05,0.77l0.38-0.51v-0.26H144.3z M146.92,76.6l0.05,1.02h0.22l-0.05-1.02
		H146.92z M148.18,74.75V75l0.38-0.51l-0.05-0.26L148.18,74.75z M148.94,98.81v0.26l0.44-0.51V98.3L148.94,98.81z M150.2,97.98
		L149.98,99c0.25,0,0.38-0.26,0.38-0.77v-0.26H150.2z"/>
	<path d="M170.41,41.34l2.08,0.51l0.38-0.51v0.26l0.22-0.26l1.04,0.26h1.91l-0.22,0.26v0.26h0.22l0.38-0.51h2.24l1.26-0.26
		l0.82,0.26v-0.26l0.22,0.26l0.6-0.26l3.06,0.51l0.87-0.26v1.6c4.22,1.28,6.77,4.93,7.65,10.94c0.66,3.03,1.18,6.53,1.58,10.5
		l-0.22,1.02l0.22,3.65l-0.22,1.6l0.22,0.26v0.77h-0.22l0.22,5.76v5.76l-0.22,0.26l0.22,0.77l-0.22,2.11l0.22,0.26v0.26l-0.22,1.02
		l0.22,2.62h-0.22l0.22,0.26v0.26l-0.22,1.34l0.22,1.54l-0.22,0.26l0.22,1.34v1.79l-0.22,1.34l0.22,0.26h-0.22l0.22,0.26v0.77
		l-0.22,2.37l0.22,0.77l-0.22,0.26v0.26l0.22,0.26l-0.22,1.34v2.62l0.22,1.02l-0.22,1.02l0.22,0.32l-0.22,0.26v1.02l0.22,1.28
		l-0.22,1.6v3.14l0.22,0.26l-0.22,0.26v2.11l0.22,1.28l-0.22,1.6v3.9l-0.16,1.54l0.16,0.83h-0.16l0.16,0.26
		c-0.18,7.6-1.29,12.57-3.33,14.91c-1.31,2.6-2.6,4.25-3.88,4.93l-2.68,1.47l-0.16-0.32h-0.22l-0.82,0.51l-1.04-0.19l-3.88,0.58
		l-0.22,0.26h-0.22l-0.66-0.7v0.45h-0.76l-0.22-0.26l-1.69-0.13c-1.57-0.21-2.44-0.45-2.62-0.7v0.51l-0.22-0.26l-1.04,0.9h-0.66
		v-1.02h-0.16c0,0.68-0.15,1.02-0.44,1.02h-2.08l-0.16-1.28v-4.74l-0.22-0.77l0.22-1.34v-5.18l0.16-1.6l-0.16-1.28v-1.09l0.16-0.26
		l-0.16-0.26v-3.9l0.16-1.6l-0.16-0.77l0.16-0.26l-0.16-1.28v-0.83l0.16-0.26l-0.16-0.26v-0.26l0.16-0.77l-0.16-1.86l0.16-0.26
		l-0.16-1.28v-1.34l0.16-4.93l-0.16-1.09h0.16l-0.16-0.26v-0.26l0.16-0.26l-0.16-1.79v-1.34l0.16-1.02l-0.16-0.83l0.16-0.26
		l-0.16-1.28v-3.39l0.16-1.02l-0.16-0.32v-0.26l0.16-0.26v-0.26l-0.16-0.26v-0.26l0.6-1.54v-0.58h-0.22l-0.22,0.26h-0.16v-0.26
		l0.16-1.28l-0.16-0.26l0.16-1.34v-0.51l-0.16-2.37l0.16-1.28l-0.16-0.77l0.16-0.26h-0.16l0.16-0.26v-0.58l-0.16-0.26l0.16-0.26
		v-2.05l-0.16-2.37l0.16-0.26v-0.26l-0.16-1.6l0.16-1.28h-0.16l0.38-1.6h0.38l-0.38-0.51l-0.38,0.51l0.16-1.79v-0.58l-0.16-1.54
		l0.16-0.77l-0.16-0.26v-0.32l0.16-0.26v-0.26l-0.16-1.02h0.38v-0.26h-0.38l0.16-1.02l-0.16-2.11l0.16-1.34h-0.16l0.16-0.26
		l-0.16-1.28v-1.28h0.6v-0.83h-0.22l-0.22,0.26h-0.16l0.16-4.42v-3.39l-0.16-2.62l0.38-0.51l-0.38-1.09l0.16-0.26v-1.02l-0.16-0.26
		l0.38-2.62l-0.22-1.54v-0.83l0.22-0.26l-0.38-0.77l0.38-2.62l0.22,0.26L170.41,41.34z M168.77,55.99v0.26l0.22,1.02h0.22v-1.02
		l-0.22-0.26H168.77z M169.21,47.61v0.77l0.38-0.51v-0.26H169.21z M169.43,62.27v0.77h0.38v-0.26L169.43,62.27z M170.19,46.84v0.77
		h0.44v-0.26L170.19,46.84z M170.57,39.22l0.22,0.32l0.22,0.06l0.33-0.32v-0.64h-0.27L170.57,39.22z M170.74,48.89l-0.05,0.32h0.22
		l1.04-0.51l-0.49-0.7L170.74,48.89z M171.34,51.45v0.9l0.22,0.06l0.55-0.64l-0.27-0.32H171.34z M171.39,57.08h0.71V56.5l-0.22-0.06
		L171.39,57.08z M171.45,50.49V51h0.44v-1.02L171.45,50.49z M171.88,43.06l-0.27,0.32v0.26c0.33,0.04,0.49,0.47,0.49,1.28l0.22,0.32
		l0.44,0.06l-0.16-0.96l0.27-0.9l-0.22-0.06L171.88,43.06z M171.67,48.63l0.22,0.83h0.22v-0.83H171.67z M171.88,42.1v0.26l0.22,1.34
		h0.16v-1.09L171.88,42.1z M171.94,49.27v0.32l0.93,0.06v-0.64h-0.16L171.94,49.27z M172.27,46.52l-0.22,0.26l-0.05,0.32l0.76,0.06
		L172.27,46.52z M173.03,58.43v0.26l0.44,0.7l0.33-1.54l-0.27-0.06L173.03,58.43z M173.74,46.58l-0.55,1.22
		c0.33,0.04,0.47,0.47,0.44,1.28l1.2-0.26l0.05-0.32c-0.47-0.68-0.71-1.3-0.71-1.86L173.74,46.58z M173.3,51.9l-0.05,0.9l0.49,0.06
		l0.05-0.96H173.3z M174.01,59.39v0.64h0.71v-0.58L174.01,59.39z M174.4,41.34v0.64h0.71l0.05-0.58L174.4,41.34z M175.49,45.43
		l-0.05,0.96l-0.98-0.58V45.5L175.49,45.43z M174.62,48.63v0.26l0.44,0.7h0.27l0.05-0.96H174.62z M175.43,52.92l0.22,0.96h-0.98
		v-0.26l1.04-0.7H175.43z M176.64,54.52l0.16,2.82h-0.16l0.16,0.32v0.32l-0.16,1.09h0.16l-0.16,0.26v0.64h0.16l-0.16,2.82v21.44
		l0.16,0.32l-0.16,0.26v9.09l0.16,1.47l-0.16,1.73v10.88l-0.22,0.26l0.22,0.32v12.22l-0.22,0.32l0.22,0.26v6.53l-0.22,0.38
		l0.22,0.26v5.18l-0.22,0.26l0.22,0.26v4.03l0.16,0.26v0.32l0.93-0.32h2.02v1.15h0.22l0.11-1.15c2.4,0,3.95-1.51,4.64-4.54
		c0-1.37,0.15-2.05,0.44-2.05l-0.22-0.26v-0.26l0.22-0.9l-0.22-0.26l0.33-0.58l-0.11-1.15l0.11-2.05v-4.8l-0.11-0.32l0.11-0.26
		l-0.11-1.98v-0.32l0.11-1.15l-0.11-0.26v-0.26l0.11-3.2v-0.58l-0.11-1.73l0.11-1.41l-0.11-0.26l0.11-1.41v-9.15l0.22-1.15
		l-0.33-2.88l0.11-0.32v-0.26l-0.11-0.26l0.11-0.32v-5.12l-0.11-0.83l0.11-1.41V76.79l0.22-1.09l-0.22-1.15v-4.03l-0.11-1.73
		l0.11-1.47v-1.66l-0.11-0.26l0.11-0.32v-0.32c0-3.07-0.42-6.02-1.26-8.83c-0.22,0-0.58-0.47-1.09-1.41
		c-1.02-0.17-1.53-0.47-1.53-0.9l-0.87,0.32h-1.31l-0.22-0.32h-0.16l-0.16,0.32v0.32l-1.15-0.64
		C176.93,53.84,176.64,54.14,176.64,54.52z M179.04,48.57l-0.05,0.9l0.71,0.38l0.49-0.58l0.05-0.32L179.04,48.57z M181.33,53.37
		l0.44,0.64h0.22l-0.44-0.64H181.33z M186.3,50.49v0.77l0.38-0.51v-0.26H186.3z M189.8,59.19l0.87,2.24l-0.27,1.54l0.44,0.64
		l-0.27,1.54l1.2,0.38l-0.27-0.32l0.05-0.9c0-0.43,0.42-0.62,1.26-0.58l-0.71-1.28c-0.22,1.02-0.49,1.54-0.82,1.54l-0.38-1.92
		l0.49-0.58l-0.71-1.28l0.05-0.32c0-0.43,0.58-0.6,1.75-0.51v-0.32L191,59L189.8,59.19z M191,39.03l-0.05,1.54l0.49-0.58l0.05-0.96
		H191z M191.6,56.5c-0.04,0.85-0.22,1.26-0.55,1.22v0.32l0.71,0.06l0.55-0.64c-0.33,0-0.47-0.32-0.44-0.96H191.6z M191.22,57.02
		v0.26l0.22,1.09h0.22v-1.09l-0.22-0.26H191.22z M191.44,53.88l0.22,0.26h0.22v-0.77L191.44,53.88z M191.88,55.61v0.32l0.44,0.64
		h0.22l0.05-0.64L191.88,55.61z M191.98,65.59l-0.05,0.58l0.76,0.06v-0.64H191.98z M193.02,64.38l-0.27,0.32v0.32l0.66,1.28h0.49
		v0.64l-0.49-0.06v0.64h0.22l0.55-0.58l1.2,0.38h-1.8l0.05-0.58c0.66-0.04,1-0.49,1.04-1.34C194.11,65.4,193.57,65.06,193.02,64.38z
		 M193.13,55.67l-0.05,0.64c1.13-0.3,1.71-0.68,1.75-1.15l-0.49-0.06L193.13,55.67z M193.19,60.99l-0.05,0.58l1.69,0.13l-0.44-0.64
		L193.19,60.99z M193.19,45.69v1.28l0.93,0.64v-0.32l-0.22-1.54L193.19,45.69z M193.51,56.95v0.58l0.71,0.06l0.05-0.64H193.51z
		 M193.57,57.4v0.83h0.38v-0.32L193.57,57.4z M195.32,54.52l-1.26,0.06v-0.64h-0.22L195.32,54.52z M194.01,62.71l0.16,1.54
		l0.55-0.58v-0.96H194.01z M194.33,62.27l-0.05,0.96l0.76-0.26l0.05-0.64L194.33,62.27z M194.99,63.03l-0.05,0.64l0.49,0.64
		l0.27,0.06v-0.32l-0.22-0.96L194.99,63.03z M196.46,63.48l-0.05,0.9l0.49,0.06v-0.32L196.46,63.48z M200.12,55.61l-0.33,1.28h0.55
		l0.05-1.22L200.12,55.61z M200.01,52.54l-0.05,1.22h0.27v-1.22H200.01z M200.07,50.94l-0.05,1.28h0.27l0.05-1.22L200.07,50.94z
		 M205.37,47.48l1.47,0.06l-0.82,1.92l-0.27,0.9l1.42,0.06l0.49,0.7l-0.05,1.54c-0.84-0.04-1.44,0.53-1.8,1.73l0.27,0.32l-0.05,0.32
		l-0.27,0.96c-0.07,2.69,0.55,4.07,1.86,4.16l-0.05,1.22l-0.49,0.58l-1.04-0.06c-0.29,0-0.44-0.32-0.44-0.96l-0.49,0.64
		c-0.87-0.09-1.33-1.26-1.37-3.52l0.27-0.32V57.4l-0.38-2.82l0.27-1.22l-1.42-1.34v-0.9c0.04-0.43,0.38-0.62,1.04-0.58
		C204.42,48.46,205.04,47.44,205.37,47.48z M209.13,50.55l1.04,0.06c0.47,0.04,0.67,1.19,0.6,3.46l-0.11,1.54l-0.33,1.86l0.38,3.78
		l-0.76,0.58l-0.71-0.06c-0.66,0-0.93-1.56-0.82-4.67l0.55-1.22c-0.47-0.04-0.71-0.38-0.71-1.02l0.33-2.11l-0.22-0.96l0.27-0.32
		l-0.27-0.32L209.13,50.55z M210.34,46.52c0.95,0.04,1.4,0.49,1.37,1.34c-0.95,1.02-1.86,1.49-2.73,1.41l0.55-0.96l0.05-0.58
		l0.22-0.32V47.1l-0.22-0.32l0.22-0.26H210.34z M213.01,58.55l0.27,0.38h0.27l0.71-0.26l0.38,2.18c-0.25,0.81-0.51,1.22-0.76,1.22
		l-0.93-0.06l-0.71-0.96C212.28,59.51,212.54,58.68,213.01,58.55z"/>
</g>
<g class="st2">
	<path d="M234.45,48.24l0.56-0.1l0.64,0.54l0.07,0.61l-0.75,1.04L234,49.56l-0.04-0.61L234.45,48.24z M237.48,31.92l0.53-0.09
		c0.7-0.05,1.06,0.08,1.1,0.4l-0.03,1.32l1.03,1.31l0,0.21c-0.12,1.27-0.57,1.98-1.34,2.11l0-0.21l-0.16,0.21l-0.19,0.04
		c-0.52,0.08-1.28-0.55-2.28-1.88l-0.03-0.2C236.3,33.76,236.76,32.69,237.48,31.92z M247.57,26.98l2.35,0.24l2.81-0.46
		c0.31-0.05,1.28,0.83,2.89,2.63c3.08-3.01,6.33-4.79,9.77-5.34c3.95,0.93,6.07,2.76,6.37,5.47c0.15,1.27-0.5,3.14-1.96,5.61
		l-2.84,0.46c-1.83-0.93-2.88-2.61-3.15-5.06l-0.92-0.48c-1.02,0.17-2.11,1.59-3.28,4.26l-0.87-0.18c-1.33,2.82-1.97,4.9-1.91,6.22
		l0.38,0.88l-0.55,2.58c0.61,2.78,1.42,4.08,2.44,3.91l2.79-0.76l2.6,0.21l0.26-0.37l0.28-0.03c1.36,0.21,2.09,0.7,2.18,1.49
		c-1.56,3.15-2.9,4.83-4.05,5.03l-2.04-0.31l-3.1,0.84l-2.55,0.12l-6.71,2.03l-0.56,0.1c-1-0.36-1.57-1.09-1.69-2.19l-0.1-0.94
		c-0.21-1.95,0.52-3.21,2.18-3.76l3.78,0.32l1.03-1.11l-0.02-0.31l-1-6.36l0.3-2.52l-0.53-4.57c-0.17-1.64-1.01-2.34-2.51-2.1
		l-1.15,0.2c-0.69,0.12-1.58,0.68-2.69,1.71l-0.84,0.13c-0.69-0.14-1.35-0.96-2-2.46c0.42-2.77,1.5-4.29,3.23-4.56l0.05,0.3
		L247.57,26.98z M244.04,34.44l0.63,0.51l0.07,0.61L244,36.63c-0.37,0.07-0.72-0.5-1.03-1.69l0.23-0.37L244.04,34.44z M260.69,41.28
		l0.3,0.27l0.12,0.9l-0.28,0.04l-0.63-0.51L260.69,41.28z M263.34,41.76l0.56-0.1l0.64,0.54l-0.75,1.04l-0.33-0.23L263.34,41.76z
		 M267.6,41.38c1.43,0.01,2.23,0.29,2.39,0.85c-0.12,1.06-0.34,1.62-0.67,1.68c-1.26-0.35-1.97-0.75-2.14-1.22l-0.07-0.61
		L267.6,41.38z M270.79,54.51l1.27,1.05l-1.02,1.38l-0.93-0.75l-0.07-0.6L270.79,54.51z M278.54,17.83l1.97-0.33l1.9,1.55
		c0.05,0.4-0.3,0.67-1.05,0.8c0.08,0.81-0.17,1.26-0.73,1.35l-1.53-0.67l-0.49,0.7l-0.92-0.47c0.1,0.81-0.14,1.26-0.69,1.37
		l-0.56,0.1l-0.97-0.77l-0.02-0.3C276.56,19.1,277.58,17.99,278.54,17.83z M276.13,50.83l0.31-0.04l1.23,1.02l-0.98,1.4l-0.97-0.77
		l-0.09-0.91L276.13,50.83z M284.02,46.14l0.33,0.27l0.28-0.07l-0.04,2.18l0.02,0.31l0.68,0.81l-0.75,1.08l-0.97-0.77l0.47-1.01
		l-0.09-0.91l-0.66-0.84L284.02,46.14z M285.49,46.83l0.63,0.51l0.05,0.3l-0.52,0.71l-0.63-0.51l-0.03-0.34L285.49,46.83z"/>
</g>
</svg>
