<?xml version="1.0" encoding="utf-8"?>
<!-- Generator: Adobe Illustrator 24.3.0, SVG Export Plug-In . SVG Version: 6.00 Build 0)  -->
<svg version="1.1" id="Layer_1" xmlns="http://www.w3.org/2000/svg" xmlns:xlink="http://www.w3.org/1999/xlink" x="0px" y="0px"
	 viewBox="0 0 300 200" style="enable-background:new 0 0 300 200;" xml:space="preserve">
<style type="text/css">
	.st0{fill:#FFFFFF;}
	.st1{fill:#333333;}
	.st2{opacity:0.49;}
	.st3{opacity:0.24;}
</style>
<g>
	<path class="st0" d="M54.3,47.5c-24.1,0-43.6,19.5-43.6,43.6v61.8h280.1V47.5H54.3z"/>
	<path d="M54.3,45C28.9,45,8.2,65.7,8.2,91.1v64.3h285.1V45H54.3z M288.3,150.4h-147c-0.2,0-0.3,0.1-0.5,0.1c-0.4,0-0.9,0-1.3-0.1
		H13.2V91.1C13.2,68.4,31.7,50,54.3,50h234V150.4z"/>
</g>
<g>
	<g>
		<path class="st1" d="M188.3,107.2l0.9-0.1l1.1,0.9l0.1,0.9l-1.3,1.6l-1.6-1.3l-0.1-0.9L188.3,107.2z M193.7,82.2l0.9-0.1
			c1.2,0,1.8,0.2,1.8,0.7l-0.1,2l1.7,2.1v0.3c-0.2,2-1,3-2.3,3.2v-0.3l-0.3,0.3l-0.3,0.1c-0.9,0.1-2.1-0.9-3.8-3.1l-0.1-0.3
			C191.7,84.9,192.5,83.3,193.7,82.2z M204.7,86.6l1.1,0.8l0.1,0.9l-1.3,1.6c-0.6,0.1-1.2-0.8-1.7-2.7l0.4-0.6L204.7,86.6z
			 M210.7,75.3l3.9,0.6l4.7-0.5c0.5-0.1,2.1,1.4,4.8,4.3c5.2-4.4,10.7-6.9,16.4-7.5c6.6,1.7,10.1,4.7,10.5,9c0.2,2-0.9,4.8-3.4,8.5
			l-4.8,0.5c-3-1.6-4.8-4.3-5.2-8.1l-1.5-0.8c-1.7,0.2-3.6,2.3-5.6,6.3l-1.4-0.3c-2.3,4.3-3.4,7.4-3.3,9.5l0.6,1.4l-1,4
			c1,4.3,2.3,6.4,4,6.2l4.7-1l4.4,0.5l0.4-0.6l0.5,0c2.3,0.4,3.5,1.2,3.6,2.5c-2.7,4.8-4.9,7.3-6.9,7.5l-3.4-0.6l-5.2,1.1l-4.3,0
			l-11.3,2.6l-0.9,0.1c-1.7-0.6-2.6-1.8-2.8-3.5l-0.1-1.5c-0.3-3,0.9-4.9,3.7-5.7l6.3,0.8l1.7-1.6l0-0.5l-1.6-9.9l0.6-3.9l-0.8-7.1
			c-0.3-2.6-1.6-3.7-4.2-3.4l-1.9,0.2c-1.1,0.1-2.7,0.9-4.5,2.4l-1.4,0.1c-1.1-0.3-2.2-1.6-3.3-4c0.8-4.3,2.6-6.5,5.5-6.8l0.1,0.5
			L210.7,75.3z M232.4,98.4l0.5,0.4l0.2,1.4l-0.5,0l-1.1-0.8L232.4,98.4z M236.8,99.4l0.9-0.1l1.1,0.9l-1.3,1.6l-0.6-0.4L236.8,99.4
			z M243.9,99.1c2.4,0.1,3.7,0.6,4,1.5c-0.2,1.6-0.6,2.5-1.2,2.6c-2.1-0.6-3.3-1.3-3.6-2.1l-0.1-0.9L243.9,99.1z M249,119.7l2.1,1.7
			l-1.7,2.1l-1.5-1.2l-0.1-0.9L249,119.7z M258,114.4l0.5,0l2,1.7l-1.7,2.1l-1.6-1.3l-0.1-1.4L258,114.4z M262.7,63.5l3.3-0.4
			l3.2,2.6c0.1,0.6-0.5,1-1.8,1.2c0.1,1.3-0.3,1.9-1.2,2l-2.5-1.2l-0.8,1l-1.5-0.8c0.1,1.3-0.2,1.9-1.2,2.1l-0.9,0.1l-1.6-1.3l0-0.5
			C259.3,65.3,261.1,63.6,262.7,63.5z M271.3,107.7l0.6,0.4l0.5-0.1l-0.1,3.4l0,0.5l1.1,1.3l-1.3,1.6l-1.6-1.3l0.8-1.5l-0.1-1.4
			l-1.1-1.4L271.3,107.7z M273.8,108.9l1,0.8l0.1,0.5l-0.9,1.1l-1-0.8l0-0.5L273.8,108.9z"/>
	</g>
</g>
<g>
	<path d="M110.6,70.3v1.1l0.5,3.2l-0.5,0.5v0.5l0.5,0.5v0.5l-0.5,1.6l0.5,5.8l-0.5,3.7l0.5,4.8v9.1l0.5,2.2l-0.5,0.5l0.5,5.3v7.5
		l0.5,8.5l-0.5,0.5v0.5l0.5,2.1l-0.5,0.5H97.8l-0.5-3.7V98.5h-1.1c-0.6,0-1.3,3-2.1,9.1h0.5c-2.1,14.9-3.7,22.4-4.8,22.4h-0.5
		l-1.6-0.5l-2.6,0.5h-2.7c-1.3,0-2.9-8.3-4.8-25c-0.5,0-1.2-2.7-2.1-8l0.5-0.5l-0.5-3.7h-1.1v15.4l0.5,0.6l-0.5,0.5v0.5l0.5,0.5v0.5
		l-0.5,0.5l1.1,10.7l-0.6,0.5l0.6,2.6v3.7l-1.1,1.1H61.1v-2.6c0-13.2-0.3-22.6-1-28.2l0.5-2.1l-0.5-0.5v-0.5l0.5-0.5l-0.5-3.7v-8.5
		l-1-1.1l1-2.2l-0.5-9.6h11.7l9.6,0.5l3.7,23.4v1.6l1.1,1.1h0.5l3.2-26.6l1.6,0.5l2.7-0.5L110.6,70.3L110.6,70.3z M62.7,128v0.5
		h-1.9V128H62.7z M64.6,128v1l-1.4-0.5V128H64.6z M77.9,128.5v1.9h-1.4l0.9-1.9H77.9z M83.1,132.8h0.9l-0.9,0.9l0.9,2.4
		c-0.6,1.3-2.2,2.7-4.8,4.3h-0.5v-0.9h1v-0.5l-1.9-0.4h-0.5l0.5-1.5v-0.5l-0.5-0.5h0.5v-1.4l3.4,0.5L83.1,132.8z M77.9,90.8l0.9,0.9
		v-1.4h-0.9V90.8z M78.8,128.9l0.5-0.5h0.5l0.5,1.9l-0.5,0.5l0.9,1.4l-0.9,0.9h-1l0.5-0.5l-0.9-0.9l0.5-1.5l-0.5-1.4L78.8,128.9
		L78.8,128.9z M82.2,139.9l0.9,1h-2.4v-1H82.2z M82.7,128.5v1.9l-0.9-0.9v-0.9L82.7,128.5L82.7,128.5z M86,128.5
		c0,1.6-0.6,2.6-1.9,2.9l-0.9-2.9H86z M93.8,124.9c-0.5,0-0.8,0.5-0.9,1.6v0.3l-0.9-0.3l-0.3,0.9c-0.4,0-0.6-0.5-0.6-1.6l-0.6,0.6
		v0.3l0.3,0.3l-0.9,0.3v-0.6l0.3-0.3l-0.6-0.6v-0.9c0.7,0,1.5,0.3,2.4,0.9h0.6v-0.6l-0.3-0.3l1.2-0.4h0.3L93.8,124.9L93.8,124.9z
		 M93.8,123h-0.3l0.6-0.7h0.3L93.8,123z M95.3,125.6v0.3l-0.3,0.3l-1.2-0.6l0.6-1L95.3,125.6z M95.3,128.8l-0.3,0.3l-1.2-0.3v-0.3
		h1.5V128.8z M104.6,130.4v0.3h-0.3v-0.6h-0.6c0,1.1-1.1,1.6-3.3,1.6c0-0.3-0.6-0.5-1.8-0.6l-0.3,0.3c0-0.8-0.9-1.3-2.7-1.3v-0.3
		c0.8,0,1.2-0.2,1.2-0.7h0.9v1h0.6l0.3-0.3l-0.3-1.6v-0.4h1.2c0-0.4-0.3-0.6-0.9-0.6v-0.3l1.5-0.3h0.3l0.3,0.3l1.2-0.3h0.6v0.3
		l-0.3,0.3v0.3l0.9,0.3l0.3-0.3C103.7,127.5,104.1,128.4,104.6,130.4z M123.5,122.6H119l-0.3,0.4l-0.3-0.4H116l-0.3,0.4l-0.6-0.7
		h-12l-1.5-0.3l-0.9,0.3h-4.2l-0.6-0.6v-0.3l1.8-0.3l0.6,0.6h2.1l0.3-0.3v0.3l0.3-0.3l0.3,0.3l2.1-0.3l14.4,0.6l1.2,0.3l0.3-0.3
		l0.3,0.3h0.3l0.3-0.3v0.3l1.2-0.3l2.1,0.3L123.5,122.6L123.5,122.6z M101,123.6h-0.6l-0.3-0.3l0.6-0.7L101,123.6z M103.4,126.5v0.3
		h-0.6v-0.9L103.4,126.5z M110,129.5l-0.9,0.3h-0.3v-0.3l0.9-0.4h0.3V129.5z M111.5,130.1h-0.3c0-0.7-0.3-1-0.9-1v-0.3h1.5
		L111.5,130.1z M112.6,128.9l-0.2-0.2l0.4-0.3v0.5l0.5-0.3h1.6v-0.3l-0.2-0.2l0.9-0.4h0.2v0.4l-0.4,0.3l0.4,0.3h0.4v-0.3h0.6v0.2
		c0,0.2,2.8,0.5,8.4,0.8l0.6-0.4l0.4,0.4c0.8,0,1.2,0.2,1.2,0.6l-0.6,2.6h-0.2c0-0.3-0.1-0.5-0.4-0.5H126v0.3h-0.2v-0.2l0.4-0.9
		l0.2,0.2l0.4-0.3c0-0.3-3.1-0.6-9.2-1l-0.2,0.2v-0.2l-4-0.1h-0.2l-0.2-0.2v-0.1l0.2-0.2v-0.3h-0.9L112.6,128.9z M118.4,124.3h-1.2
		v-0.3h1.2V124.3z M118.4,127.8h-0.3l-0.6-0.6h0.9V127.8z M120.8,143.5l0.2-0.2l-0.2-0.2v-0.3c0.4,0,0.9-0.2,1.3-0.5v-0.1L122,142
		l0.5,0.2h0.2l0.2-0.2c0-0.4,0.2-0.6,0.6-0.6l0.2,0.2h0.6v-0.4h-0.6v-0.5h0.2l0.2,0.2h0.2v-0.5h0.4v0.8h0.4c0-0.3,0.1-0.5,0.4-0.5
		v-0.3l-0.2-0.2h0.4c0,0.3,0.2,0.6,0.7,1.1l0.8-0.2V141h-0.8v-0.2l0.6-0.2h0.2v0.3h0.2l0.2-0.2l-0.2,0.5v0.2l0.2,0.1v0.2l-0.2-0.2
		c-0.2,0-0.5,0.3-0.8,0.9l0.2,0.2l-0.4,0.5h0.4l0.6-0.3v-0.2l-0.2-0.2h0.2l0.4,0.4v0.3h-0.6l0.8,1l-0.2,0.4h-0.4l-0.2-0.1l-0.2,0.5
		v0.2l0.2,0.2v0.2H127l-0.2-0.2h-0.2v0.3c0.8,0,1.2,0.2,1.2,0.5v0.5h-0.4v-0.2l0.2-0.2V146l-0.4,0.3v0.8h0.4v-0.3h0.2v0.3l-0.2,0.2
		l0.2,0.2v0.2h-0.2l-0.2-0.2c-0.2,0-0.4,0.4-0.8,1.3v0.2l0.2,0.2H126V149l0.2-0.2v-0.1l-0.8,0.1h-0.2l-0.2-0.1h-0.2l-0.2,0.1h-0.4
		v-0.1l0.2-0.2v-0.2l-0.6,0.2h-0.2c0-0.3,0.2-0.5,0.6-0.5v-0.3c-0.5,0-0.8-0.2-0.8-0.5l0.2-1l-0.3-0.3c0,0.3-0.2,0.6-0.6,1h-0.2
		l-0.2-0.2l0.6-0.7v-0.5l-0.2-0.2h0.4l-0.2-0.5v-0.2h0.4v-0.3h-0.6l-0.2,0.2c0-0.4-0.2-0.5-0.5-0.5v-0.3l0.2-0.2H122l-0.2-0.2h-0.2
		l-0.2,0.2l-0.2-0.2H121v0.5h-0.2L120.8,143.5L120.8,143.5z M124.8,135.7h0.4v-0.2l-0.4-0.3l0.4-0.5v-0.2l-0.2-0.2
		c0.2,0,0.4-0.2,0.4-0.5v-0.2l0.6,0.2c0.2,0,0.3-0.3,0.3-0.8h0.2v0.2c-0.2,0.6-0.5,0.9-0.7,0.9l0.4,0.7v0.2l-0.2,0.2v0.2h0.2
		l1.2-0.3v-0.2c0-0.2-0.2-0.3-0.6-0.3l0.6-0.5h0.4v2.3l-0.2,0.2l0.2,0.1l-0.2,0.7v0.2l0.5-0.2h0.2v0.3c-0.5,0-0.7,0.4-0.7,1.3h0.2
		l-0.2,0.6v0.2l0.2,0.1v0.2l-0.2-0.2l-1.2,0.5v-0.2l-0.2,0.2c-0.8-0.4-1.2-1-1.2-1.6c0.2-0.4,0.4-1,0.4-1.7v-0.2l-0.2-0.2l0.2-0.1
		v-0.3h-0.2l-0.2,0.1h-0.2V135.7z M126.2,142.8l0.2-0.2l-0.2-0.7h-0.4c0,0.3-0.1,0.4-0.4,0.4L126.2,142.8z M126,145.7l0.3-0.3h-0.5
		v-0.2l0.2-0.2v-0.2l-0.2-0.2h-0.2l-0.2,0.2C125.6,145.5,125.8,145.7,126,145.7z M127.1,137.5v-0.5H127l-0.4,0.3v0.2L127.1,137.5
		L127.1,137.5z M127,144.4l0.2-0.1l0.2,0.1h0.2v-0.3h-1v0.3H127z M127.5,142h0.2l-0.2,0.5h-0.2l-0.2-0.2L127.5,142z M127.5,148h0.2
		v0.3l-0.2,0.2v0.2l0.2,0.1h-0.4l-0.2-0.1L127.5,148z"/>
	<polygon points="106.6,144.1 106.6,144.8 113.5,145 119.5,143.8 119.4,143.1 	"/>
	<path d="M147.7,129.5l0.6-0.7l10.9,0.6l-7-30.9l-3.5-0.4l-2.7,0.2l-6.7,1.9l0.2,2l1.5,1.9l0.1,0.7l-1.3,1.5l-6.8,0.5l-1.5-1.3
		l-0.1-0.6l1.2-2.2l-0.3-4.1l-0.8-2.6L134,82l1.4-0.1l3.9,16.8l5.3-2.5l7.4-0.5l-8.2-27.4l-6.1,0.5l-2.7,0.8l-0.7-0.6l-6.8,1.2
		l-4,0.3c-0.9,0.1-2.3,8.8-4.2,26.2l-6.4,32.6l3.4,0.4l0.6-0.7l6.2,0.9l2-0.8l2.1,0.5l-0.1-0.7l2.4-13.2l6.1-0.5l2.8,0.5l2.6-0.8
		c1.1,2.2,1.8,6.2,2.3,12.1l0.2,2.1l3.4-0.3L147.7,129.5z"/>
	<path d="M193.9,57.1v0.2l0.7-0.2l0.7,0.2l0.3-0.7c0.3,0,0.5,0.2,0.5,0.5h0.5V57l-0.5-0.8l0.5-0.3h-0.2c-0.2,0-0.6,0.4-1.2,1.3h-0.3
		v-0.8h-0.5V57h-0.7v-0.5l0.3-0.2v-0.2h-0.3l-0.3,0.2h-0.2C193.2,56.9,193.5,57.1,193.9,57.1z"/>
	<path d="M194.6,52.5l0.2-0.8h0.5l0.3,0.8h0.9l0.5-1.2h-0.3l-0.7,0.2l-1.2-0.2c-0.8,0.1-1.2,0.3-1.2,0.5v0.3l0.5,0.3L194.6,52.5
		L194.6,52.5z"/>
	<path d="M241.5,130.9c-0.2-0.2-0.7-0.3-1.4-0.3c-1.5,0-2.3,0.5-2.3,1.4v0.7l0.1,0.1v0.1h-0.1c0.1,1.6,0.6,2.5,1.4,2.5l1.1,0.1
		c1.3,0,2-0.4,2.1-1.1v-0.4C242.5,132,242.2,130.9,241.5,130.9z M240.6,134.5l-0.4,0.1c-0.4,0-0.6-0.6-0.6-1.7h0.1l-0.1-0.1v-1.1
		l0.6-0.1l0.4,0.1l0.1,2.8L240.6,134.5L240.6,134.5z"/>
	<path d="M202.9,91.6h-1.1v0.6h1.6l1.1-1.2h0.6v2.4h0.5c0-1.2,0.6-1.8,1.7-1.8v-1.2l-3.3-0.6v1.2c-0.7,0-1.1-0.6-1.1-1.7l-0.6,0.6
		h-0.5l1.1,1.2L202.9,91.6L202.9,91.6z"/>
	<path d="M200.7,113.7V98.1l0.5-0.6h0.6l-1.1-1.7l0.5-5.9h0.6v-0.6l0.5-0.6v-0.6l0.6,0.6h1.1v-1.2h-2.8v-2.9c0-0.8,0.7-1.2,2.2-1.2
		v-0.6c0-1.2-0.7-1.8-2.2-1.8l-2.7-7.1c-4.8-3.2-9.4-4.7-13.9-4.7h-6l-2.8-0.6v1.1h-1.2l-0.5-0.5l-0.9,0.5h-1.1v-0.7l-0.7,0.7h-9.6
		l0.4,3.4v0.7l-0.4,4.8h-0.7l0.7,0.7l0.1,6.4c-0.2,1.7-0.4,3.4-0.5,5.3l0.5,1.6l0.1,9.9l-0.2,21.2h-0.7l0.7,0.7v0.7l-0.7,3.4
		l0.7,0.7h0.7l0.7-0.7l4.8,0.7h8.6c0.7,0,1.4,0.1,2.1,0.1h6.6C193.9,129.3,199.1,124.1,200.7,113.7z M178.6,71.3h0.3v0.4h0.7v-0.2
		h-0.5l0.5-0.3l0.5,0.2v0.4l-0.3,0.5h-0.2c0-0.2-0.3-0.3-1-0.3V71.3z M186.3,111l-0.2-0.6l-0.4,0.7h0.6c-0.3,4.1-1.1,6.1-2.2,6.1
		h-3.3c-1.9,0-3,0-3.6-0.1l0.3-0.3v-0.7l-0.6-0.6v-0.3l0.6-3.2l-0.5-5.3l0.7-0.7l-0.8-2.1v2.5h-0.2l0.1-2.7l0.1,0.3v-1.3h-0.1
		l0.1-9.6l0.1,0.1v-0.3h0.1v-2.4l0.1-0.1v-0.7l-0.1-1.8v-0.9h0.6l-0.6-0.6v-1.8l0.1-1.8l1.6,0.6h1.1v-0.6h-1.1
		c0-0.8,0.5-1.2,1.6-1.2l0.6,0.6h0.5l2.2-0.6l1.1,1.7l-0.5,0.6c1.1,0,1.6,0.4,1.6,1.2v2.5c0,2-0.5,2.9-1.6,2.9v0.6h1.6v0.6l-0.5,0.6
		l0.5,0.6v15.2l0.4,2.2l0.2-0.2L186.3,111L186.3,111z"/>
	<polygon points="177,101.9 177,93.8 176.9,93.1 176.9,102.6 177.7,102.6 	"/>
	<polygon points="196.5,60.4 196.3,60.4 195.8,60.7 196,60.7 	"/>
</g>
<g class="st2">
	<g>
		<path d="M228.9,108.3l0.6-0.1l0.7,0.6l0.1,0.6l-0.8,1l-1.1-0.8l-0.1-0.6L228.9,108.3z M231.9,91.8l0.6-0.1c0.8,0,1.2,0.1,1.2,0.4
			l0,1.3l1.2,1.3l0,0.2c-0.1,1.3-0.6,2-1.5,2.1l0-0.2l-0.2,0.2l-0.2,0c-0.6,0.1-1.4-0.6-2.6-1.9l0-0.2
			C230.7,93.6,231.2,92.5,231.9,91.8z M243,86.9l2.6,0.3l3.1-0.4c0.3-0.1,1.4,0.9,3.2,2.7c3.4-3,6.9-4.7,10.7-5.2
			c4.4,1,6.8,2.9,7.1,5.7c0.2,1.3-0.5,3.2-2.1,5.7l-3.1,0.4c-2-1-3.2-2.7-3.6-5.2l-1-0.5c-1.1,0.2-2.3,1.6-3.6,4.3l-1-0.2
			c-1.4,2.8-2.1,4.9-2,6.3l0.4,0.9l-0.6,2.6c0.7,2.8,1.6,4.2,2.8,4l3.1-0.7l2.9,0.3l0.3-0.4l0.3,0c1.5,0.2,2.3,0.8,2.4,1.6
			c-1.7,3.2-3.1,4.8-4.4,5l-2.3-0.3l-3.4,0.8l-2.8,0.1l-7.4,1.9l-0.6,0.1c-1.1-0.4-1.8-1.1-1.9-2.2l-0.1-1c-0.3-2,0.5-3.2,2.4-3.8
			l4.2,0.4l1.1-1.1l0-0.3l-1.2-6.5l0.3-2.6l-0.7-4.7c-0.2-1.7-1.2-2.4-2.8-2.2l-1.3,0.2c-0.8,0.1-1.7,0.7-3,1.7l-0.9,0.1
			c-0.8-0.2-1.5-1-2.2-2.5c0.4-2.8,1.6-4.3,3.5-4.6l0.1,0.3L243,86.9z M239.3,94.4L240,95l0.1,0.6l-0.8,1.1
			c-0.4,0.1-0.8-0.5-1.2-1.7l0.2-0.4L239.3,94.4z M257.8,101.7l0.3,0.3l0.1,0.9l-0.3,0l-0.7-0.5L257.8,101.7z M260.7,102.2l0.6-0.1
			l0.7,0.6l-0.8,1l-0.4-0.2L260.7,102.2z M265.4,101.9c1.6,0,2.5,0.3,2.7,0.9c-0.1,1.1-0.4,1.6-0.7,1.7c-1.4-0.4-2.2-0.8-2.4-1.3
			l-0.1-0.6L265.4,101.9z M269.2,115.3l1.4,1.1l-1.1,1.4l-1-0.8l-0.1-0.6L269.2,115.3z M277.2,78.2l2.2-0.3l2.1,1.6
			c0.1,0.4-0.3,0.7-1.1,0.8c0.1,0.8-0.2,1.3-0.8,1.3l-1.7-0.7l-0.5,0.7l-1-0.5c0.1,0.8-0.1,1.3-0.8,1.4l-0.6,0.1l-1.1-0.8l0-0.3
			C275,79.5,276.1,78.4,277.2,78.2z M275,111.7l0.4,0l1.4,1.1l-1.1,1.4l-1.1-0.8l-0.1-0.9L275,111.7z M283.7,107.1l0.4,0.3l0.3-0.1
			l0,2.2l0,0.3l0.8,0.8l-0.8,1.1l-1.1-0.8l0.5-1l-0.1-0.9l-0.7-0.9L283.7,107.1z M285.3,107.8l0.7,0.5l0.1,0.3l-0.6,0.7l-0.7-0.5
			l0-0.3L285.3,107.8z"/>
	</g>
</g>
<g class="st3">
	<g>
		<path d="M246.6,92.8l0.5-0.1l0.5,0.4l0.1,0.5l-0.6,0.8l-0.8-0.6l0-0.5L246.6,92.8z M248.9,79.8l0.4-0.1c0.6,0,0.9,0.1,0.9,0.3
			l0,1.1l0.9,1.1l0,0.2c-0.1,1-0.4,1.6-1.1,1.7l0-0.2l-0.1,0.2l-0.1,0c-0.4,0.1-1.1-0.5-1.9-1.6l0-0.2
			C247.9,81.2,248.3,80.4,248.9,79.8z M257.3,76l2,0.2l2.3-0.3c0.3,0,1.1,0.7,2.5,2.2c2.5-2.4,5.2-3.7,8.1-4.1
			c3.3,0.8,5.1,2.3,5.4,4.5c0.1,1-0.4,2.5-1.5,4.5l-2.4,0.3c-1.5-0.8-2.4-2.2-2.7-4.1l-0.8-0.4c-0.9,0.1-1.7,1.2-2.7,3.4l-0.7-0.2
			c-1.1,2.2-1.6,3.9-1.5,5l0.3,0.7l-0.4,2.1c0.5,2.2,1.2,3.3,2.1,3.2l2.3-0.6l2.2,0.2l0.2-0.3l0.2,0c1.1,0.2,1.8,0.6,1.8,1.2
			c-1.2,2.5-2.4,3.8-3.3,4l-1.7-0.3l-2.6,0.6l-2.1,0.1l-5.6,1.5l-0.5,0.1c-0.8-0.3-1.3-0.9-1.5-1.8l-0.1-0.8c-0.2-1.6,0.4-2.6,1.8-3
			l3.2,0.3l0.8-0.9l0-0.2l-0.9-5.1l0.2-2l-0.5-3.7c-0.2-1.3-0.9-1.9-2.1-1.7l-1,0.1c-0.6,0.1-1.3,0.5-2.2,1.3l-0.7,0.1
			c-0.6-0.1-1.1-0.8-1.7-2c0.3-2.2,1.2-3.4,2.6-3.6l0,0.2L257.3,76z M254.4,81.9l0.5,0.4l0.1,0.5l-0.6,0.8c-0.3,0.1-0.6-0.4-0.9-1.4
			l0.2-0.3L254.4,81.9z M268.4,87.7l0.3,0.2l0.1,0.7l-0.2,0l-0.5-0.4L268.4,87.7z M270.7,88.1l0.5-0.1l0.5,0.4l-0.6,0.8l-0.3-0.2
			L270.7,88.1z M274.2,87.9c1.2,0,1.9,0.3,2,0.7c-0.1,0.8-0.3,1.3-0.5,1.3c-1.1-0.3-1.7-0.6-1.8-1l-0.1-0.5L274.2,87.9z M277.1,98.5
			l1.1,0.9l-0.8,1.1l-0.8-0.6l-0.1-0.5L277.1,98.5z M283,69.2l1.6-0.2l1.6,1.3c0,0.3-0.2,0.5-0.9,0.6c0.1,0.7-0.1,1-0.6,1.1
			l-1.3-0.6l-0.4,0.6l-0.8-0.4c0.1,0.7-0.1,1-0.6,1.1l-0.5,0.1l-0.8-0.6l0-0.2C281.4,70.2,282.2,69.3,283,69.2z M281.5,95.6l0.3,0
			l1,0.8l-0.8,1.1l-0.8-0.6l-0.1-0.7L281.5,95.6z M288,92l0.3,0.2l0.2-0.1v1.8l0,0.2l0.6,0.7l-0.6,0.8l-0.8-0.6l0.4-0.8l-0.1-0.7
			l-0.6-0.7L288,92z M289.2,92.6l0.5,0.4l0,0.2l-0.4,0.6l-0.5-0.4l0-0.3L289.2,92.6z"/>
	</g>
</g>
</svg>
