<?xml version="1.0" encoding="utf-8"?>
<!-- Generator: Adobe Illustrator 24.3.0, SVG Export Plug-In . SVG Version: 6.00 Build 0)  -->
<svg version="1.1" id="Layer_1" xmlns="http://www.w3.org/2000/svg" xmlns:xlink="http://www.w3.org/1999/xlink" x="0px" y="0px"
	 viewBox="0 0 300 200" style="enable-background:new 0 0 300 200;" xml:space="preserve">
<style type="text/css">
	.st0{fill:#333031;}
	.st1{opacity:0.49;}
	.st2{opacity:0.24;}
</style>
<g>
	<g>
		<path class="st0" d="M178.4,111.58l1.16-0.11l1.31,0.92l0.13,0.98l-1.58,1.62l-1.98-1.32l-0.07-0.99L178.4,111.58z M185.04,85.46
			l1.1-0.1c1.44-0.02,2.19,0.22,2.25,0.73l-0.09,2.13l2.09,2.2l0,0.33c-0.28,2.04-1.22,3.15-2.81,3.3l0-0.33l-0.33,0.33l-0.38,0.06
			c-1.08,0.08-2.63-0.99-4.67-3.21l-0.07-0.32C182.56,88.35,183.53,86.65,185.04,85.46z M198.53,90.06l1.29,0.87l0.13,0.98
			l-1.57,1.68c-0.77,0.08-1.47-0.86-2.08-2.81l0.48-0.57L198.53,90.06z M206,78.28l4.85,0.57l5.81-0.52
			c0.65-0.06,2.61,1.44,5.91,4.48c6.42-4.61,13.19-7.23,20.29-7.86c8.13,1.82,12.47,4.93,13.02,9.34c0.29,2.07-1.1,5.04-4.17,8.9
			l-5.88,0.52c-3.75-1.64-5.88-4.45-6.38-8.41l-1.88-0.84c-2.11,0.2-4.4,2.4-6.87,6.62l-1.78-0.35c-2.82,4.45-4.18,7.75-4.1,9.89
			l0.76,1.45l-1.2,4.13c1.19,4.54,2.84,6.71,4.94,6.51l5.78-1.01l5.37,0.55l0.54-0.58l0.58-0.03c2.81,0.44,4.3,1.3,4.47,2.57
			c-3.28,4.97-6.11,7.57-8.47,7.8l-4.21-0.66l-6.42,1.1l-5.26-0.01l-13.9,2.75l-1.16,0.11c-2.06-0.66-3.21-1.89-3.44-3.67
			l-0.18-1.53c-0.38-3.17,1.14-5.14,4.58-5.9l7.79,0.81l2.15-1.71l-0.04-0.5l-1.91-10.35l0.69-4.05L215.3,91
			c-0.32-2.66-2.04-3.86-5.14-3.59l-2.38,0.24c-1.42,0.13-3.29,0.98-5.6,2.54l-1.75,0.14c-1.42-0.27-2.77-1.65-4.07-4.14
			c0.94-4.44,3.19-6.81,6.77-7.11l0.1,0.49L206,78.28z M232.75,102.42l0.62,0.47l0.23,1.47l-0.59,0.03l-1.29-0.87L232.75,102.42z
			 M238.21,103.4l1.16-0.11l1.31,0.92l-1.58,1.62l-0.67-0.4L238.21,103.4z M247.03,103.11c2.96,0.12,4.6,0.64,4.92,1.56
			c-0.26,1.71-0.74,2.59-1.43,2.66c-2.59-0.66-4.05-1.37-4.38-2.14l-0.13-0.98L247.03,103.11z M253.31,124.56l2.6,1.79l-2.13,2.15
			l-1.9-1.28l-0.13-0.98L253.31,124.56z M264.41,119.05l0.65-0.04l2.53,1.75l-2.05,2.19l-1.98-1.32l-0.17-1.48L264.41,119.05z
			 M270.15,65.97l4.07-0.37l3.89,2.66c0.09,0.65-0.64,1.06-2.19,1.21c0.14,1.32-0.38,2.02-1.54,2.12l-3.14-1.21l-1.03,1.1
			l-1.88-0.84c0.18,1.31-0.31,2.03-1.47,2.16l-1.16,0.11l-1.98-1.32l-0.04-0.5C266.02,67.85,268.17,66.14,270.15,65.97z
			 M280.81,112.09l0.69,0.46l0.57-0.08l-0.14,3.52l0.03,0.5l1.4,1.35l-1.57,1.68l-1.98-1.32l0.99-1.59l-0.17-1.48l-1.34-1.42
			L280.81,112.09z M283.82,113.32l1.29,0.87l0.1,0.49l-1.09,1.11l-1.29-0.87l-0.05-0.55L283.82,113.32z"/>
	</g>
</g>
<g>
</g>
<g>
	<path d="M65.01,67.1v1.1l0.65,3.34l-0.65,0.55v0.55l0.65,0.55v0.55l-0.65,1.7l0.65,6.09l-0.65,3.89l0.65,4.99v9.43l0.65,2.25
		l-0.65,0.55l0.65,5.54v7.79l0.65,8.88l-0.65,0.55v0.55l0.65,2.19l-0.65,0.55H49.26l-0.65-3.84V96.49h-1.36
		c-0.69,0-1.56,3.14-2.59,9.43h0.65c-2.55,15.53-4.51,23.3-5.9,23.3h-0.65l-2.01-0.55l-3.24,0.55h-3.3c-1.64,0-3.61-8.68-5.9-26.04
		c-0.61,0-1.47-2.78-2.59-8.33l0.65-0.55l-0.65-3.89h-1.36v16.06l0.65,0.6l-0.65,0.55v0.55l0.65,0.55v0.55l-0.65,0.55l1.36,11.13
		l-0.71,0.55l0.71,2.74v3.89l-1.36,1.1H3.97v-2.74c0-13.71-0.43-23.52-1.3-29.44l0.65-2.19L2.67,94.3v-0.55l0.65-0.55l-0.65-3.89
		v-8.88l-1.3-1.1l1.3-2.25L2.03,67.1h14.45l11.79,0.55l4.6,24.4v1.7l1.3,1.1h0.65l3.95-27.74l1.94,0.55l3.3-0.55H65.01z
		 M5.85,127.25v0.49H3.52v-0.49H5.85z M8.18,127.25v0.99l-1.75-0.49v-0.49H8.18z M24.64,127.74v1.97h-1.75l1.17-1.97H24.64z
		 M31.12,132.24h1.17l-1.17,0.99l1.17,2.47c-0.78,1.35-2.74,2.83-5.9,4.44h-0.58v-0.99h1.23v-0.49l-2.4-0.44h-0.58l0.58-1.54v-0.49
		l-0.58-0.49h0.58v-1.48l4.15,0.49L31.12,132.24z M24.64,88.48l1.17,0.99v-1.48h-1.17V88.48z M25.81,128.23l0.58-0.49h0.65
		l0.58,1.97l-0.58,0.55l1.17,1.48l-1.17,0.99h-1.23l0.58-0.49l-1.17-0.99l0.58-1.54l-0.58-1.48H25.81z M29.95,139.64l1.17,1.04H28.2
		v-1.04H29.95z M30.54,127.74v1.97l-1.17-0.99v-0.99H30.54z M34.62,127.74c0,1.68-0.78,2.69-2.33,3.02l-1.17-3.02H34.62z
		 M44.27,124.07c-0.61,0-0.97,0.55-1.1,1.64v0.33l-1.1-0.33l-0.39,0.99c-0.48,0-0.71-0.55-0.71-1.64l-0.71,0.66v0.33l0.32,0.33
		l-1.1,0.33v-0.66l0.39-0.33l-0.78-0.66v-0.99c0.91,0,1.9,0.33,2.98,0.99h0.71v-0.66l-0.32-0.33l1.43-0.38h0.39V124.07z
		 M44.27,122.04h-0.39l0.78-0.71h0.32L44.27,122.04z M46.15,124.72v0.33l-0.39,0.33l-1.49-0.66l0.71-1.04L46.15,124.72z
		 M46.15,128.07l-0.39,0.33l-1.49-0.33v-0.33h1.88V128.07z M57.62,129.77v0.33h-0.39v-0.66h-0.71c0,1.1-1.36,1.65-4.08,1.65
		c0-0.29-0.76-0.51-2.27-0.66l-0.32,0.33c0-0.88-1.1-1.32-3.3-1.32v-0.33c0.95,0,1.43-0.24,1.43-0.71h1.1v1.04h0.78l0.32-0.33
		l-0.32-1.7v-0.38h1.49c0-0.44-0.39-0.66-1.17-0.66v-0.33l1.88-0.33h0.39l0.39,0.33l1.43-0.33h0.78v0.33l-0.39,0.33v0.33l1.1,0.33
		l0.39-0.33C56.47,126.7,56.97,127.72,57.62,129.77z M80.95,121.65h-5.57l-0.39,0.38l-0.32-0.38h-2.98l-0.39,0.38l-0.71-0.71H55.74
		L53.93,121l-1.1,0.33h-5.18l-0.78-0.66v-0.33l2.2-0.33l0.78,0.66h2.59l0.39-0.33v0.33l0.32-0.33l0.39,0.33l2.59-0.33L73.88,121
		l1.49,0.33l0.39-0.33l0.32,0.33h0.39l0.39-0.33v0.33l1.49-0.33l2.59,0.33V121.65z M53.15,122.7h-0.71l-0.39-0.33l0.78-0.71
		L53.15,122.7z M56.13,125.71v0.33h-0.78v-0.99L56.13,125.71z M64.29,128.78l-1.1,0.33H62.8v-0.33l1.1-0.38h0.39V128.78z
		 M66.11,129.44h-0.39c0-0.69-0.37-1.04-1.1-1.04v-0.33h1.88L66.11,129.44z M67.47,128.23l-0.26-0.16l0.52-0.33v0.49l0.65-0.33h1.94
		v-0.33l-0.26-0.17l1.17-0.38h0.26v0.38l-0.45,0.33l0.45,0.33h0.45v-0.33h0.71v0.16c0,0.22,3.46,0.51,10.37,0.88l0.78-0.38
		l0.45,0.38c0.95,0,1.43,0.22,1.43,0.66l-0.71,2.69H84.7c0-0.33-0.15-0.49-0.45-0.49h-0.19v0.33H83.8v-0.22l0.45-0.99l0.19,0.16
		l0.52-0.33c0-0.29-3.78-0.64-11.34-1.04l-0.26,0.22v-0.22l-4.99-0.11h-0.26l-0.19-0.22v-0.11l0.19-0.22v-0.33h-1.17L67.47,128.23z
		 M74.66,123.35h-1.49v-0.33h1.49V123.35z M74.66,127.03h-0.39l-0.71-0.66h1.1V127.03z M77.64,143.36l0.19-0.16l-0.19-0.17v-0.33
		c0.52,0,1.06-0.18,1.62-0.55v-0.11l-0.19-0.22l0.65,0.22h0.26l0.26-0.22c0-0.44,0.24-0.66,0.71-0.66l0.19,0.22h0.78v-0.38h-0.78
		v-0.49h0.26l0.26,0.16h0.26v-0.49h0.45v0.82h0.45c0-0.33,0.15-0.49,0.45-0.49v-0.33l-0.26-0.16h0.52c0,0.29,0.3,0.68,0.91,1.15
		l0.97-0.16v-0.16h-0.97v-0.17l0.78-0.16h0.19v0.33h0.26l0.26-0.17l-0.26,0.49v0.22l0.26,0.11v0.22l-0.26-0.22
		c-0.3,0-0.63,0.33-0.97,0.99l0.26,0.22l-0.52,0.49h0.52l0.71-0.33v-0.17l-0.26-0.22h0.26l0.45,0.38v0.33h-0.71l0.97,1.04
		l-0.26,0.44h-0.45l-0.26-0.11l-0.19,0.49v0.17l0.19,0.16v0.17h-0.19l-0.26-0.17H84.7v0.33c0.95,0,1.43,0.17,1.43,0.49v0.55h-0.45
		v-0.22l0.26-0.16v-0.33l-0.52,0.33v0.88h0.52v-0.33h0.19v0.33l-0.19,0.17l0.19,0.16v0.16h-0.19l-0.26-0.16
		c-0.22,0-0.54,0.44-0.97,1.32v0.22l0.26,0.16h-0.91v-0.16l0.19-0.22v-0.11l-0.97,0.11h-0.26l-0.19-0.11h-0.26l-0.19,0.11h-0.45
		v-0.11l0.19-0.22v-0.16l-0.71,0.16h-0.26c0-0.33,0.26-0.49,0.78-0.49v-0.33c-0.65,0-0.97-0.16-0.97-0.49l0.19-1.04l-0.39-0.33
		c0,0.33-0.26,0.68-0.78,1.04h-0.26l-0.19-0.16l0.71-0.71v-0.49l-0.26-0.17h0.52l-0.26-0.49v-0.22h0.52v-0.33h-0.78l-0.26,0.22
		c0-0.37-0.22-0.55-0.65-0.55v-0.33l0.19-0.16h-0.19l-0.26-0.17h-0.26l-0.19,0.17l-0.26-0.17h-0.26v0.49h-0.19V143.36z M82.57,135.3
		h0.45v-0.16l-0.45-0.33l0.45-0.49v-0.17l-0.19-0.16c0.3,0,0.45-0.18,0.45-0.55v-0.17l0.78,0.17c0.26,0,0.39-0.27,0.39-0.82h0.26
		v0.16c-0.3,0.66-0.61,0.99-0.91,0.99l0.45,0.71v0.17l-0.19,0.16v0.17h0.19l1.43-0.33v-0.17c0-0.22-0.24-0.33-0.71-0.33l0.71-0.55
		h0.45v2.36l-0.19,0.22l0.19,0.11L85.93,137v0.16l0.65-0.16h0.26v0.33c-0.56,0-0.86,0.44-0.91,1.32h0.19l-0.19,0.66v0.22l0.19,0.11
		v0.22l-0.19-0.22l-1.49,0.55v-0.16l-0.19,0.16c-0.95-0.44-1.43-1.01-1.43-1.7c0.3-0.4,0.45-1,0.45-1.81v-0.17l-0.26-0.22l0.26-0.11
		v-0.33h-0.26l-0.19,0.11h-0.26V135.3z M84.25,142.71l0.19-0.22l-0.19-0.77H83.8c0,0.29-0.17,0.44-0.52,0.44L84.25,142.71z
		 M84.06,145.72l0.39-0.33H83.8v-0.16l0.26-0.17v-0.16l-0.26-0.22h-0.26l-0.26,0.22C83.49,145.45,83.75,145.72,84.06,145.72z
		 M85.42,137.17v-0.49h-0.19L84.7,137v0.16H85.42z M85.22,144.35l0.19-0.11l0.26,0.11h0.26v-0.33H84.7v0.33H85.22z M85.93,141.83
		h0.19l-0.19,0.55h-0.26l-0.26-0.22L85.93,141.83z M85.93,148.08h0.19v0.33l-0.19,0.16v0.22l0.19,0.11h-0.45l-0.26-0.11
		L85.93,148.08z"/>
	<path d="M59.69,53.73l0.91,0.66l0.13,1.37l-0.84,0.06l-1.04-2.03L59.69,53.73z M75.96,143.04l0.06,0.71l-7.45,1.21l-8.42-0.22
		l-0.06-0.71L75.96,143.04z M65.65,54.05l0.06,0.71l-2.46,0.88l-0.13-1.43L65.65,54.05z M94.42,65.73l0.84,0.66l3.3-0.88l7.52-0.49
		l10.11,28.56l-9.2,0.55l-6.54,2.58l-4.86-17.49l-1.68,0.11l-2.92,14.42l1.04,2.74l0.39,4.28l-1.49,2.25l0.06,0.66l1.81,1.32
		l8.36-0.49l1.56-1.54l-0.06-0.71l-1.88-2.03l-0.19-2.08l8.29-1.97l3.3-0.22l4.28,0.44l8.68,32.24l-13.48-0.6l-0.78,0.77l-0.91-0.66
		l-4.21,0.27l-0.19-2.14c-0.52-6.1-1.45-10.31-2.79-12.61l-3.24,0.88l-3.43-0.49l-7.52,0.49l-2.98,13.71l0.06,0.71l-2.59-0.55
		l-2.46,0.88l-7.65-0.93l-0.78,0.71l-4.21-0.44l7.9-33.94c2.33-18.17,4.06-27.28,5.18-27.36l4.99-0.33L94.42,65.73z M102.2,136.07
		l0.84,0.66h-1.23v-0.66H102.2z M112.69,143.09h1.23v-0.38l-0.45-0.33L112.69,143.09z M112.69,144.84v0.38h0.78v-1.1L112.69,144.84z
		 M114.31,146.6v0.71l1.3-0.71c0,0.73,0.28,1.1,0.84,1.1l-1.68,2.47h-0.45l-0.39-0.38v-0.33l0.39-0.38v-0.33h-0.84l0.45-2.14H114.31
		z M118.53,142.38c0,0.69,0.41,1.04,1.23,1.04l-1.23,1.1l0.39,0.33l-0.84,1.43H116l-0.39-0.38l-0.45,0.38v-0.71
		c0.86,0,1.3-0.24,1.3-0.71v-0.33l-0.45-0.38l0.45-0.33v-0.38l-0.45-0.33c0.56,0,0.84-0.35,0.84-1.04L118.53,142.38z M118.53,151.59
		h-2.07l-0.84-0.71v-0.38C117.55,150.82,118.53,151.19,118.53,151.59z M118.07,136.4h0.45v0.71l-2.07,0.71H116v-0.71L118.07,136.4z
		 M116.84,149.07l0.84,0.71v0.38h-1.23l-0.45-0.38L116.84,149.07z M117.23,153.67h0.84l-1.62,1.1H116L117.23,153.67z M120.21,148.41
		v1.04l-1.3-0.38v-0.66H120.21z M128.5,140.24l0.45-0.33h2.53l0.39,3.51v3.89h-0.84v0.38h0.84v1.75h-4.15l-0.45,0.33
		c-1.34-1.13-2.18-2.54-2.53-4.22h-0.78v0.71l0.39,0.33h-0.39l0.78,6.74v0.33h-0.39l-1.68-0.33h-0.39l-0.45,0.33h-0.39l0.39-2.08
		l-1.23-3.18h0.39l-0.78-8.17h4.54c0.22,1.5,1.34,3.98,3.37,7.46h0.39l0.45-0.38v-0.33l-0.45-0.38v-4.55l-0.39-1.81H128.5z
		 M128.12,151.2v1.04h-0.39l-0.45-1.04H128.12z M131.87,150.88l0.39,2.08h-2.92l-0.84-0.71h2.53l-0.84-1.04L131.87,150.88z"/>
	<path d="M145.54,66.61v-1.15l3.43,0.6h7.45c5.44,0,11.14,1.65,17.11,4.93l3.37,7.35c1.81,0,2.72,0.62,2.72,1.86v0.6
		c-1.81,0-2.72,0.4-2.72,1.21v3.07h3.43v1.21h-1.36l-0.71-0.6v0.6l-0.65,0.66v0.6h-0.71l-0.65,6.14l1.36,1.81h-0.71l-0.65,0.6v16.28
		c-1.99,10.82-8.36,16.23-19.11,16.23h-8.16c-0.87,0-1.71-0.02-2.53-0.05h-10.56l-5.9-0.71l-0.84,0.71h-0.84l-0.84-0.71l0.84-3.56
		v-0.71l-0.84-0.71h0.84l0.19-22.09l-0.06-10.36l-0.65-1.64c0.13-1.94,0.32-3.78,0.58-5.54l-0.06-6.63l-0.84-0.71h0.84l0.45-4.99
		v-0.71l-0.45-3.56h11.79l0.84-0.71v0.71h1.36l1.17-0.55l0.58,0.55H145.54z M132.52,54.27h-0.26l-0.65,0.38h0.32L132.52,54.27z
		 M143.02,60.74l-0.32-0.71v-0.16l0.32-0.16h-0.32c0-0.95-0.19-1.43-0.58-1.43l-0.58,2.08l0.26,0.55L143.02,60.74z M146.84,102.14
		l-0.13-0.27l-0.06,2.85h0.19V102.14z M158.31,108.82l-0.52-2.3v-15.9l-0.65-0.6l0.65-0.66v-0.6h-2.01v-0.6
		c1.34,0,2.01-1.02,2.01-3.07v-2.63c0-0.84-0.67-1.26-2.01-1.26l0.65-0.6l-1.36-1.81l-2.72,0.6h-0.65l-0.71-0.6
		c-1.34,0-2.01,0.4-2.01,1.21h1.36v0.6h-1.36l-2.01-0.6l-0.07,1.86v1.92l0.78,0.66h-0.78v0.93l0.13,1.92v0.71l-0.13,0.11v2.52h-0.06
		v0.27l-0.06-0.11l-0.07,9.98h0.13v1.37l1.04,2.19l-0.84,0.71l0.65,5.54l-0.78,3.29v0.33l0.78,0.66v0.71l-0.39,0.33
		c0.65,0.04,2.12,0.05,4.41,0.05h4.08c1.43,0,2.33-2.12,2.72-6.36h-0.71L158.31,108.82z M147.04,91.55v8.5l0.84,0.71h-1.04V90.9
		L147.04,91.55z M150.79,68.2l-0.58-0.16l-0.65,0.33h0.65v0.22h-0.91V68.2h-0.32v0.55c0.82,0,1.23,0.11,1.23,0.33h0.26l0.32-0.49
		V68.2z M154.94,58.11v-0.16h-0.91v0.49h0.32L154.94,58.11z M158.31,108.82l0.19,0.66v-0.88L158.31,108.82z M168.74,53.4l-0.91,0.22
		V53.4c-0.52,0-0.82-0.27-0.91-0.82h0.26l0.32-0.22h0.32v0.22l-0.32,0.16v0.49h0.91v-0.66H169v0.82h0.32
		c0.69-0.91,1.19-1.37,1.49-1.37h0.26l-0.58,0.33l0.58,0.88v0.16h-0.58c0-0.33-0.19-0.49-0.58-0.49l-0.32,0.71L168.74,53.4z
		 M167.19,52.19v-0.71l0.65,0.38L167.19,52.19z M169.91,48.52l-0.32-0.82H169l-0.26,0.82h-0.65l-0.58-0.33v-0.33
		c0-0.22,0.5-0.4,1.49-0.55l1.49,0.16l0.91-0.16h0.32l-0.65,1.21H169.91z M170.49,46.1v-0.33l-0.26,0.16
		c-0.43,0-0.65-0.29-0.65-0.88l-1.17,0.33v0.22H169v0.16l-0.26,0.16l-0.91-0.55V44.9h2.4v0.16l-0.32,0.16v0.38h0.58V44.9h0.58v1.21
		H170.49z M170.23,54.11h-0.91v0.33l0.91,0.22V54.11z M171.07,56.74h-0.26l-0.58,0.33h0.26L171.07,56.74z M170.68,132.56v0.06
		l0.26,0.05l0.06-0.33L170.68,132.56z M171.79,135.3l0.26,0.06l-0.58,0.27h-0.13L171.79,135.3z M172.63,131.91
		c-0.09,0.22,0,0.33,0.26,0.33l-0.39,0.33l0.13,0.11l-0.26,0.38l-0.65-0.06l-0.13-0.11l-0.13,0.11v-0.22c0.26,0,0.39-0.07,0.39-0.22
		v-0.11l-0.13-0.11l0.13-0.11l0.06-0.11l-0.19-0.11c0.17,0.07,0.3-0.02,0.39-0.27L172.63,131.91z M173.28,134.92l-0.06-0.05
		l-0.13-0.16l0.13-0.11l-0.19-0.82h0.13v-2.52l1.42,0.16c0,0.44,0.26,1.23,0.78,2.36h0.13l0.13-0.11v-0.11l-0.13-0.11l0.19-1.37
		l-0.06-0.6h0.13l0.13-0.06l0.78,0.06v1.1l-0.13,1.21h-0.26v0.11h0.2v0.44h0.06l-0.13,0.38l-0.06-0.05l-0.07,0.11l0.13,0.77
		l-1.04-0.11l-0.26-0.22h-0.06l-0.07-0.33l0.07-0.05v-0.05h0.26l-0.32-0.27c0.17-0.04,0.3-0.09,0.39-0.16h-0.13l-0.26,0.11
		c-0.35-0.44-0.52-0.91-0.52-1.43h-0.26l-0.06,0.22l0.06,0.11h-0.13l0.13,2.08l-0.06,0.11h-0.13l-0.52-0.11l-0.13-0.05l-0.07,0.11
		l-0.13-0.05L173.28,134.92z M175.29,134.87c0.39,0.11,0.58,0.22,0.58,0.33l-0.65-0.05l0.71,0.05l-0.19-0.33H175.29z M175.22,135.14
		v-0.05V135.14z M176.06,134.81l-0.13-0.22l-0.13,0.05v0.11L176.06,134.81z M176.06,134.43l-0.13-0.05L176.06,134.43z M176.19,58.82
		h2.66l0.32,0.16l0.32-0.16C179.8,58.82,178.7,58.82,176.19,58.82z M181.12,131.74l-0.65,2.08c-0.26,1.1-0.45,1.64-0.58,1.64
		l-0.91,0.05l-0.52-0.11c-0.13,0-0.41-1.02-0.84-3.07l0.06-0.77l-0.19-0.11l1.17-0.06v0.77l0.26,0.22h0.71
		c0.17-0.58,0.34-0.88,0.52-0.88l0.26,0.05l0.52,0.16H181.12z M178.27,87.55l0.71-0.6c0,1.21,0.45,1.81,1.36,1.81v-1.21l4.08,0.6
		v1.21c-1.38,0-2.07,0.62-2.07,1.86h-0.65v-2.47h-0.71l-1.36,1.26h-2.01v-0.66h1.36v-0.6l-1.36-1.21H178.27z M179.56,133.17h-0.06
		l-0.19-0.11h-0.32l-0.19,0.05l0.32,1.15l0.19-0.05L179.56,133.17z M184.03,133.71v0.11c0,0.04,0,0.07,0,0.11v0.22v-0.16l0.19,0.05
		v0.05l-0.06-0.05h-0.06c0,0.11-0.02,0.18-0.07,0.22v0.27l-0.13,0.17h0.06l-0.06,0.05v0.05v0.44l-0.07,0.71l-1.23-0.05l0.06-0.38
		h-0.06v-0.11h0.06v-0.38l0.13-1.26l-0.07-0.05l0.07-0.11l0.06-0.44h-0.06v-0.05h-0.07v-0.05v0.05h-0.13V133h0.26v-0.22
		c0-0.04-0.06-0.05-0.19-0.05v-0.05c0-0.07,0.06-0.11,0.19-0.11h-0.13h-0.52l-0.78-0.11l0.07-0.6v-0.22l0.58,0.05h0.13l1.1,0.05
		c0.3,0,0.58,0,0.84,0v0.88l-0.13,0.16h0.07v0.11v0.22c0,0.11,0.04,0.16,0.13,0.16v0.05h-0.13v0.05v0.06h-0.07v0.22V133.71z
		 M181.63,135.63c0-0.04-0.04-0.05-0.13-0.05v-0.05h0.13l0.07,0.05v0.05H181.63z M182.67,133.28h0.13v0.05h-0.13l-0.13-0.05v-0.05
		l-0.06,0.16h-0.06c0.04-0.07,0.02-0.11-0.07-0.11v-0.05l0.26-0.05v0.11c0.04,0,0.09-0.05,0.13-0.16v0.05h0.07L182.67,133.28z
		 M184.1,134.65l-0.07-0.05L184.1,134.65z M184.1,135.74l0.19,0.05L184.1,135.74z M184.29,134.54l-0.07,0.11l-0.06-0.05
		L184.29,134.54z M184.23,135.74v-0.06l-0.06-0.11l0.19,0.11L184.23,135.74z M184.42,133.66h-0.19v-0.05h0.19V133.66z
		 M184.36,133.83h-0.13v-0.06L184.36,133.83z M184.29,134.81l-0.07-0.11h0.07l0.06,0.11H184.29z M184.49,131.85l-0.19-0.06v-0.05
		l0.19,0.05V131.85z M184.42,134.21v0.16h-0.06v-0.16H184.42z M187.21,135.14v0.11h-0.06v0.11l-0.06,0.49v0.11l-0.45-0.05h-0.13
		h-0.58l-1.42-0.11l0.06-0.44h-0.13v-0.06v-0.05l0.13,0.05v-0.16v-0.22h0.06H185l0.26,0.06l0.13-0.06l0.06,0.06h0.13l0.26,0.05h0.06
		l0.13-0.66h-0.13h-0.45l-0.84-0.05l0.07-0.66v-0.16l0.52-0.05l0.06,0.05l0.06-0.05l0.78,0.11v-0.33h-0.06v-0.05v-0.05v-0.05
		l-0.06,0.05h-0.07v-0.05h0.19v-0.22c0-0.07-0.06-0.11-0.19-0.11h0.07c0-0.11,0.04-0.17,0.13-0.17l0.13-0.82
		c0.43,0,0.84,0.02,1.23,0.05l-0.07,0.88l-0.06,0.11v0.05c0.04,0,0.06,0.02,0.06,0.05v0.22c0,0.15,0.04,0.22,0.13,0.22v0.05h-0.13
		v0.06v0.05l-0.13,0.16l0.06,0.05h-0.06v0.17c0.04,0,0.06,0.02,0.06,0.05h-0.06v0.22l0.06-0.11h0.13v0.05h-0.07
		c0,0.11-0.04,0.18-0.13,0.22v0.22l-0.13,0.22h0.06h-0.06v0.05c0,0.11,0.02,0.2,0.06,0.27V135.14z M185.13,132.4v-0.11l0.07,0.11
		H185.13z M186.04,133.33v0.05l-0.13-0.05l-0.06-0.05h-0.06v0.17h-0.07c0.04-0.07,0-0.13-0.13-0.17v-0.11l0.32,0.05v0.05
		c0.04,0,0.07-0.04,0.07-0.11l0.06,0.05l-0.06,0.05v0.05H186.04z M186.62,136.35h0.19c0-0.11,0.02-0.15,0.07-0.11l0.06,0.22
		c-0.09-0.04-0.13-0.02-0.13,0.05C186.73,136.51,186.67,136.46,186.62,136.35z M187.47,135.74h0.19v0.05h-0.26v-0.05H187.47z
		 M187.47,135.74h0.19v0.05h-0.26v-0.05H187.47z M187.53,133.83l-0.06-0.06v-0.05l0.13,0.05v0.06H187.53z M187.47,134.65l0.06-0.17
		h0.06v0.17H187.47z M187.47,135.69v-0.05h0.19v0.05H187.47z M187.47,135.69v-0.05h0.19v0.05H187.47z M187.6,134.76l-0.06-0.05
		L187.6,134.76z M187.6,134.76l-0.06-0.05L187.6,134.76z M187.66,134.43l-0.07-0.11l0.2-0.05v-0.11l-0.07-0.05h0.07v-0.05l0.26,0.05
		v0.05l-0.06,0.06l0.06,0.11l-0.13-0.05L187.66,134.43z M187.86,136.02l-0.06-0.05v0.05h-0.07v-0.05v-0.05l0.07-0.11l-0.2,0.11
		v-0.05l0.07-0.05v-0.05h0.13l0.06-0.06c-0.04,0.18,0,0.27,0.13,0.27v0.05H187.86z M187.66,134.15v0.17V134.15z M187.66,134.15v0.17
		V134.15z M187.66,135.47v-0.05l0.06-0.05h0.13v0.05l-0.13,0.05H187.66z M187.79,132.95l-0.07-0.05l0.13,0.05H187.79z
		 M187.73,134.15v-0.05v-0.05v-0.05v-0.05h0.13l-0.06,0.22l0.06,0.06L187.73,134.15z M187.79,135.69l-0.07-0.05h0.07l0.06,0.05
		H187.79z M187.92,132.51h0.07l-0.07-0.05l0.07-0.05v-0.05h-0.07l0.07-0.11h0.19v0.05l-0.13,0.22H187.92z M187.92,134.48v-0.11
		l0.07,0.05v0.05H187.92z M190.9,136.07h-0.19v0.06l-0.06-0.06h-0.06l-0.07,0.06v-0.06l-0.45,0.06l-0.19-0.06l-0.13,0.06l-0.19-0.11
		l-0.45-0.05c-0.61-0.11-0.93-0.46-0.97-1.04h-0.06h-0.06v-0.05l0.06-0.05h-0.06c0-0.11,0.04-0.16,0.13-0.16l0.07-1.04l0.13-0.16
		l-0.19-0.17v-0.05h0.07h-0.13v-0.16l0.19,0.05v0.05l-0.06,0.11v0.05h0.19v-0.6l0.19-0.22c0.04-0.29,0.45-0.49,1.23-0.6l1.68,0.11
		l0.07,0.11l-0.13,1.54l-0.06,0.22v0.11v0.11v0.22v0.05l-0.07,0.16l0.07,0.17l-0.07,0.05l-0.06,0.22l0.06,0.11l-0.06,0.11v0.05
		l0.06,0.05l-0.06,0.33v0.05l0.06,0.06l-0.13,0.38L190.9,136.07z M188.11,132.78v-0.16h0.07v0.05v0.11H188.11z M188.11,133v-0.05
		l0.13-0.05V133v0.06L188.11,133z M188.31,132.34c-0.09,0-0.13-0.05-0.13-0.17l0.13-0.05c0,0.11,0.07,0.18,0.19,0.22l-0.06,0.05
		L188.31,132.34z M188.5,136.02l0.07,0.05v0.06L188.5,136.02z M190.06,135.09l0.06-0.11l0.13-2.08l-0.07-0.05h-0.19
		c-0.3-0.11-0.45,0.09-0.45,0.6l-0.13,1.21c-0.04,0.37,0.17,0.55,0.65,0.55V135.09z M189.54,136.62l-0.06-0.11h0.06l0.13,0.17
		L189.54,136.62z M189.67,136.57l0.13-0.11h-0.06v-0.11h0.06c0,0.07,0.02,0.11,0.07,0.11l-0.07,0.11H189.67z M195.57,134.48
		c-0.43,1.1-1.19,1.63-2.27,1.59c-0.52,0-0.84-0.11-0.97-0.33l0.13-0.82l-0.07-0.11l0.07-0.11l0.06,0.05l-0.06,0.16l0.06-0.05
		c0.13,0.11,0.39,0.22,0.78,0.33c0.78-0.15,1.21-0.49,1.3-1.04c0.04-0.4-0.13-0.77-0.52-1.1c-0.35-0.04-0.52-0.11-0.52-0.22
		c-0.43,0.07-0.74,0.18-0.91,0.33l0.06-0.93c0-0.15,0.3-0.24,0.91-0.27l0.52,0.11c1.04,0.44,1.53,1.06,1.49,1.86L195.57,134.48z
		 M196.15,134.65l0.06-0.11v0.11H196.15z M196.21,136.35v-0.05h0.13v0.05H196.21z M227.9,133.99c-0.22,0.73-1.1,1.1-2.66,1.1
		l-1.43-0.11c-0.99,0-1.55-0.86-1.68-2.58h0.13v-0.11l-0.13-0.11v-0.77c0-0.95,0.93-1.42,2.79-1.42c0.86,0,1.45,0.11,1.75,0.33
		c0.82,0,1.23,1.1,1.23,3.29V133.99z M224.46,136.29h-0.13l-0.19,0.11v-0.11l-0.13,0.11l-0.19-0.11h-0.13l-0.19,0.11l-0.13-0.49
		v-0.49h1.43c0.17,0,0.32,0.2,0.45,0.6l-0.32,0.38L224.46,136.29z M225.57,133.99h0.13l-0.13-2.91l-0.45-0.11l-0.78,0.11v1.1
		l0.13,0.11h-0.13c0,1.21,0.26,1.81,0.78,1.81L225.57,133.99z M226.54,136.18l-0.19,0.11v-0.11l-0.13,0.11l-0.65-0.11v-0.88h1.75
		l0.13,0.71v0.17H226.54z"/>
</g>
<g>
</g>
<g class="st1">
	<g>
		<path d="M230.51,98.9l0.76-0.09l0.88,0.58l0.11,0.64l-1.01,1.09l-1.34-0.84l-0.07-0.65L230.51,98.9z M234.33,81.69l0.72-0.09
			c0.95-0.04,1.45,0.11,1.5,0.44l-0.01,1.4l1.43,1.41l0.01,0.22c-0.14,1.34-0.74,2.08-1.79,2.21l-0.01-0.22l-0.21,0.22l-0.25,0.04
			c-0.71,0.07-1.76-0.61-3.15-2.03l-0.05-0.21C232.75,83.62,233.36,82.49,234.33,81.69z M248.02,76.66l3.22,0.3l3.83-0.43
			c0.43-0.05,1.76,0.9,4,2.84c4.14-3.12,8.56-4.94,13.24-5.46c5.41,1.06,8.35,3.04,8.8,5.92c0.24,1.35-0.62,3.32-2.56,5.89
			l-3.87,0.43c-2.52-1.02-3.98-2.82-4.4-5.41l-1.26-0.52c-1.39,0.16-2.85,1.64-4.39,4.45l-1.18-0.2c-1.76,2.96-2.59,5.14-2.49,6.54
			l0.53,0.94l-0.7,2.72c0.88,2.95,2.02,4.35,3.41,4.19l3.8-0.75l3.56,0.28l0.34-0.39l0.39-0.03c1.87,0.25,2.87,0.79,3.01,1.62
			c-2.06,3.31-3.87,5.05-5.42,5.24l-2.8-0.37l-4.22,0.82l-3.48,0.08l-9.13,2.02l-0.76,0.09c-1.38-0.4-2.16-1.19-2.36-2.35l-0.15-1
			c-0.32-2.07,0.64-3.38,2.9-3.94l5.17,0.41l1.38-1.15l-0.03-0.32l-1.49-6.75l0.36-2.66l-0.81-4.85c-0.27-1.74-1.43-2.49-3.47-2.27
			l-1.57,0.19c-0.94,0.11-2.15,0.69-3.64,1.75l-1.15,0.12c-0.94-0.16-1.87-1.04-2.78-2.65c0.52-2.92,1.96-4.51,4.32-4.76l0.08,0.32
			L248.02,76.66z M243.35,84.49l0.87,0.55l0.11,0.64l-1,1.12c-0.51,0.06-0.99-0.54-1.44-1.81l0.3-0.38L243.35,84.49z M266.22,92.06
			l0.42,0.3l0.19,0.96l-0.39,0.03l-0.87-0.55L266.22,92.06z M269.85,92.62l0.76-0.09l0.88,0.58l-1.01,1.09l-0.45-0.25L269.85,92.62z
			 M275.67,92.29c1.96,0.04,3.06,0.35,3.29,0.95c-0.14,1.12-0.43,1.71-0.89,1.76c-1.73-0.39-2.71-0.84-2.94-1.34l-0.11-0.64
			L275.67,92.29z M280.29,106.24l1.76,1.13l-1.36,1.44l-1.29-0.81l-0.11-0.64L280.29,106.24z M290.14,67.59l2.68-0.31l2.63,1.68
			c0.07,0.43-0.4,0.7-1.42,0.83c0.12,0.86-0.2,1.33-0.97,1.41l-2.1-0.74l-0.65,0.73l-1.26-0.52c0.15,0.85-0.16,1.33-0.92,1.44
			l-0.76,0.09l-1.34-0.84l-0.03-0.32C287.45,68.89,288.84,67.74,290.14,67.59z M287.51,102.46l0.43-0.04l1.71,1.1l-1.31,1.47
			l-1.34-0.84l-0.14-0.97L287.51,102.46z M298.19,97.65l0.46,0.29l0.38-0.06l-0.01,2.31l0.03,0.32l0.95,0.87l-1,1.12l-1.34-0.84
			l0.62-1.06l-0.14-0.97l-0.92-0.91L298.19,97.65z M300.21,98.4l0.87,0.55l0.08,0.32l-0.69,0.74l-0.87-0.55l-0.04-0.36L300.21,98.4z
			"/>
	</g>
</g>
<g class="st2">
	<g>
		<path d="M249.16,91.36l0.58-0.07l0.67,0.46l0.08,0.51l-0.76,0.86l-1.01-0.66l-0.05-0.51L249.16,91.36z M252,77.76l0.55-0.07
			c0.72-0.03,1.1,0.09,1.14,0.35l-0.01,1.1l1.08,1.12l0.01,0.17c-0.1,1.06-0.55,1.64-1.34,1.74l-0.01-0.17l-0.16,0.17l-0.19,0.03
			c-0.54,0.05-1.33-0.48-2.39-1.61l-0.04-0.17C250.81,79.28,251.26,78.39,252,77.76z M262.32,73.81l2.43,0.24l2.89-0.33
			c0.32-0.04,1.33,0.71,3.03,2.26c3.12-2.46,6.45-3.89,9.98-4.3c4.09,0.85,6.31,2.42,6.66,4.69c0.18,1.07-0.46,2.62-1.92,4.66
			l-2.92,0.34c-1.9-0.81-3.02-2.24-3.34-4.29l-0.95-0.41c-1.05,0.13-2.15,1.29-3.3,3.51l-0.9-0.16c-1.32,2.34-1.95,4.06-1.86,5.17
			l0.4,0.74L272,88.07c0.68,2.34,1.54,3.44,2.59,3.32l2.86-0.59l2.69,0.23l0.26-0.31l0.29-0.02c1.41,0.2,2.17,0.63,2.28,1.29
			c-1.55,2.61-2.91,3.99-4.08,4.14l-2.11-0.3l-3.18,0.64l-2.63,0.05l-6.89,1.58l-0.58,0.07c-1.04-0.32-1.64-0.94-1.79-1.86
			l-0.12-0.79c-0.25-1.64,0.48-2.67,2.18-3.11l3.9,0.33l1.04-0.91l-0.03-0.26l-1.14-5.34l0.27-2.11l-0.63-3.83
			c-0.21-1.37-1.09-1.98-2.63-1.8l-1.19,0.15c-0.71,0.08-1.62,0.54-2.75,1.38l-0.87,0.09c-0.71-0.13-1.41-0.83-2.1-2.1
			c0.39-2.31,1.47-3.56,3.25-3.76l0.06,0.25L262.32,73.81z M258.81,79.99l0.66,0.44l0.08,0.51l-0.75,0.89
			c-0.39,0.05-0.75-0.43-1.09-1.43l0.23-0.3L258.81,79.99z M276.11,86.02l0.32,0.23l0.14,0.76l-0.29,0.02l-0.66-0.44L276.11,86.02z
			 M278.85,86.47l0.58-0.07l0.67,0.46l-0.76,0.86l-0.34-0.2L278.85,86.47z M283.24,86.22c1.48,0.03,2.31,0.28,2.48,0.76
			c-0.1,0.89-0.32,1.35-0.67,1.39c-1.3-0.31-2.05-0.67-2.22-1.06l-0.09-0.51L283.24,86.22z M286.77,97.27l1.33,0.9l-1.02,1.14
			l-0.97-0.64l-0.08-0.51L286.77,97.27z M294.1,66.72l2.02-0.24l1.99,1.33c0.06,0.34-0.3,0.56-1.07,0.65
			c0.09,0.68-0.15,1.05-0.73,1.11l-1.59-0.59l-0.49,0.58l-0.95-0.41c0.11,0.68-0.12,1.05-0.69,1.14l-0.58,0.07l-1.01-0.66
			l-0.03-0.26C292.08,67.74,293.12,66.83,294.1,66.72z M292.21,94.29l0.32-0.03l1.29,0.88l-0.98,1.16l-1.01-0.66l-0.11-0.76
			L292.21,94.29z M300.26,90.5l0.35,0.23l0.29-0.05l0,1.83l0.03,0.26l0.72,0.69l-0.75,0.89l-1.01-0.66l0.47-0.84l-0.11-0.76
			l-0.69-0.72L300.26,90.5z M301.79,91.11l0.66,0.44l0.06,0.25l-0.52,0.58l-0.66-0.44l-0.03-0.28L301.79,91.11z"/>
	</g>
</g>
</svg>
